<svg width="500" height="500" viewBox="0 0 604 556" fill="none" xmlns="http://www.w3.org/2000/svg">
<path d="M444.97 207.269C442.64 207.476 440.413 207.716 438.381 207.912C432.072 208.526 418.243 212.354 413.475 206.071C405.613 195.707 425.586 178.132 430.613 170.235C436.832 160.468 444.54 149.593 445.791 137.73C447.693 119.689 435.331 95.2851 420.078 85.8647C399.038 72.8686 369.645 81.7129 350.741 94.471C323.356 112.953 304.112 143.439 296.302 175.282C287.884 209.605 299.494 245.131 296.166 279.919C290.936 334.596 213.429 264.938 228.576 408.717C231.92 440.458 237.374 475.18 255.209 502.385C262.606 513.667 277.391 529.343 292.13 528.44C313.026 527.156 312.093 497.598 318.575 483.953C326.154 468.003 339.375 455.402 354.067 445.975C372.754 433.985 394.42 423.262 401.848 400.624C406.673 385.925 399.412 370.785 390.124 359.35C385.005 353.049 374.094 345.843 375.729 336.558C377.086 328.856 387.911 323.197 393.554 319.137C410.913 306.648 427.79 293.193 443.227 278.378C457.081 265.084 480.509 244.92 478.614 223.317C477.086 205.934 459.119 206.013 444.97 207.269Z" fill="url(#paint0_linear_97_1399)"/>
<g opacity="0.8">
<g opacity="0.8">
<path opacity="0.8" d="M333.812 511C333.599 511 333.385 510.942 333.198 510.823C297.65 488.111 280.92 453.436 282.054 404.814C283.042 362.425 296.933 316.432 310.367 271.951C320.947 236.924 330.938 203.838 332.759 177.265C334.215 155.974 341.013 136.66 352.962 119.863C362.516 106.43 375.364 94.5728 391.148 84.6236C417.996 67.6975 444.441 62.0808 444.705 62.025C445.273 61.9059 445.841 62.2241 445.972 62.7322C446.105 63.2403 445.749 63.7483 445.181 63.8674C444.921 63.9214 418.818 69.4748 392.302 86.2074C367.892 101.611 338.114 129.931 334.867 177.38C333.036 204.145 323.015 237.32 312.406 272.444C285.97 359.974 256.007 459.183 334.425 509.284C334.9 509.587 335.01 510.177 334.671 510.604C334.467 510.862 334.142 511 333.812 511Z" fill="#F2F2F2" fill-opacity="0.2"/>
</g>
<g opacity="0.8">
<path opacity="0.8" d="M334.442 183.615C334.334 183.615 334.225 183.598 334.117 183.563C333.831 183.471 327.043 181.208 319.615 172.378C312.843 164.327 304.227 149 301.644 121.707C301.59 121.125 302.018 120.607 302.6 120.553C303.179 120.494 303.701 120.926 303.755 121.509C306.275 148.14 314.59 163.054 321.121 170.873C328.167 179.311 334.703 181.523 334.77 181.544C335.325 181.726 335.63 182.325 335.449 182.88C335.303 183.329 334.889 183.615 334.442 183.615Z" fill="white"/>
</g>
<g opacity="0.8">
<path opacity="0.8" d="M323.837 250.251C323.3 250.251 322.839 249.844 322.783 249.299C322.724 248.716 323.148 248.197 323.731 248.136C323.912 248.117 342.105 246.161 365.948 235.641C387.932 225.941 419.361 206.764 444.236 170.487C444.568 170.005 445.226 169.88 445.71 170.212C446.192 170.544 446.315 171.203 445.985 171.685C420.805 208.405 388.986 227.805 366.725 237.616C342.591 248.251 324.129 250.226 323.946 250.244C323.908 250.251 323.873 250.251 323.837 250.251Z" fill="#F2F2F2" fill-opacity="0.2"/>
</g>
<g opacity="0.8">
<path opacity="0.8" d="M285.556 412.844C285.439 412.844 285.32 412.825 285.203 412.783C284.464 412.523 266.95 406.204 252.478 388.503C243.977 378.104 238.349 365.932 235.749 352.33C232.511 335.379 234 316.156 240.175 295.194C240.34 294.633 240.929 294.311 241.493 294.476C242.054 294.641 242.376 295.232 242.211 295.793C228.48 342.397 241.075 371.161 254.059 387.083C268.147 404.361 285.733 410.721 285.909 410.784C286.46 410.98 286.75 411.585 286.556 412.136C286.402 412.573 285.992 412.844 285.556 412.844Z" fill="white"/>
</g>
<g opacity="0.8">
<path opacity="0.8" d="M291.726 377.06C291.201 377.06 290.746 376.671 290.675 376.137C290.598 375.557 291.007 375.024 291.588 374.947C292.435 374.834 376.621 363.402 397.249 331.55C397.569 331.06 398.224 330.918 398.717 331.237C399.208 331.557 399.35 332.212 399.03 332.705C390.12 346.461 369.351 358.106 337.3 367.322C313.538 374.154 292.08 377.024 291.865 377.051C291.817 377.055 291.771 377.06 291.726 377.06Z" fill="white"/>
</g>
</g>
<path d="M560.849 257.651C553.538 231.306 530.389 211.353 503.904 204.465C487.779 200.271 468.094 198.852 451.649 201.715C428.517 205.742 409.423 220.828 394.539 238.316C377.052 258.862 375.414 284.324 369.163 309.617C367.937 314.577 359.854 341.88 353.73 325.878C345.194 303.563 326.158 307.498 326.154 307.5C311.258 310.581 299.811 321.517 294.303 335.277C279.593 372.036 284.14 419.787 287.251 458.318C288.715 476.441 290.969 494.47 293.656 512.438C294.32 516.88 297.512 520.527 301.83 521.769C306.147 523.011 310.792 521.616 313.715 518.206C316.753 514.657 319.937 511.399 322.884 508.533C351.225 480.956 395.598 476.875 433.039 475.226C454.899 474.264 472.91 472.874 491.958 461.136C499.873 456.26 508.474 450.269 512.145 441.358C515.464 433.297 516.109 419.491 511.111 411.993C504.886 402.654 491.059 403.243 482.827 396.365C469.528 385.251 504.311 377.516 511.318 375.265C522.489 371.675 529.894 362.768 538.262 355.045C544.655 349.146 550.665 342.725 555.304 335.334C569.471 312.756 567.732 282.456 560.849 257.651Z" fill="#D8DEE8"/>
<path d="M560.849 257.651C553.538 231.306 530.389 211.353 503.904 204.465C487.779 200.271 468.094 198.852 451.649 201.715C428.517 205.742 409.423 220.828 394.539 238.316C377.052 258.862 375.414 284.324 369.163 309.617C367.937 314.577 359.854 341.88 353.73 325.878C345.194 303.563 326.158 307.498 326.154 307.5C311.258 310.581 299.811 321.517 294.303 335.277C279.593 372.036 284.14 419.787 287.251 458.318C288.715 476.441 290.969 494.47 293.656 512.438C294.32 516.88 297.512 520.527 301.83 521.769C306.147 523.011 310.792 521.616 313.715 518.206C316.753 514.657 319.937 511.399 322.884 508.533C351.225 480.956 395.598 476.875 433.039 475.226C454.899 474.264 472.91 472.874 491.958 461.136C499.873 456.26 508.474 450.269 512.145 441.358C515.464 433.297 516.109 419.491 511.111 411.993C504.886 402.654 491.059 403.243 482.827 396.365C469.528 385.251 504.311 377.516 511.318 375.265C522.489 371.675 529.894 362.768 538.262 355.045C544.655 349.146 550.665 342.725 555.304 335.334C569.471 312.756 567.732 282.456 560.849 257.651Z" fill="url(#paint1_linear_97_1399)"/>
<g opacity="0.8">
<g opacity="0.8">
<path opacity="0.8" d="M289.062 528C288.909 528 288.756 527.967 288.61 527.899C288.078 527.65 287.852 527.025 288.101 526.5C288.451 525.768 323.632 452.285 372.186 376.969C400.716 332.713 428.218 296.487 453.929 269.294C486.166 235.199 515.704 215.258 541.725 210.021C542.302 209.905 542.861 210.274 542.978 210.841C543.096 211.41 542.723 211.964 542.15 212.08C516.569 217.228 487.411 236.958 455.482 270.728C429.861 297.826 402.441 333.95 373.98 378.097C325.497 453.299 290.374 526.661 290.027 527.394C289.843 527.777 289.462 528 289.062 528Z" fill="#F2F2F2" fill-opacity="0.2"/>
</g>
<g opacity="0.8">
<path opacity="0.8" d="M415.387 319.075C415.331 319.075 415.275 319.071 415.218 319.062C414.64 318.971 414.245 318.426 414.337 317.848C414.498 316.848 430.123 217.674 414.607 200.939C414.208 200.509 414.233 199.839 414.663 199.44C415.093 199.042 415.763 199.069 416.162 199.497C432.373 216.983 417.089 314.057 416.431 318.182C416.35 318.703 415.899 319.075 415.387 319.075Z" fill="#F2F2F2" fill-opacity="0.2"/>
</g>
<g opacity="0.8">
<path opacity="0.8" d="M600.811 267.727C600.619 267.727 600.425 267.675 600.25 267.566C558.654 241.572 472.116 255.148 471.247 255.288C470.667 255.38 470.124 254.988 470.032 254.409C469.938 253.831 470.333 253.286 470.911 253.194C471.131 253.159 493.131 249.661 520.033 249.454C544.923 249.26 579.249 251.94 601.377 265.767C601.874 266.078 602.024 266.731 601.715 267.228C601.511 267.552 601.164 267.727 600.811 267.727Z" fill="#F2F2F2" fill-opacity="0.2"/>
</g>
<g opacity="0.8">
<path opacity="0.8" d="M324.18 463.52C324.101 463.52 324.019 463.512 323.94 463.493C323.37 463.361 323.015 462.792 323.147 462.222C334.5 413.168 291.931 341.65 291.499 340.934C291.196 340.433 291.359 339.782 291.86 339.479C292.363 339.178 293.015 339.339 293.315 339.84C293.424 340.022 304.309 358.205 313.625 382.277C322.247 404.553 331.255 436.589 325.212 462.7C325.099 463.188 324.662 463.52 324.18 463.52Z" fill="white"/>
</g>
<g opacity="0.8">
<path opacity="0.8" d="M359.376 402.483C358.932 402.483 358.516 402.201 358.37 401.754C358.186 401.199 358.489 400.598 359.044 400.416C359.424 400.291 397.613 387.769 443.86 378.697C486.623 370.31 545.236 363.242 581.625 377.208C582.172 377.419 582.445 378.031 582.234 378.578C582.024 379.125 581.412 379.398 580.865 379.187C544.946 365.402 486.757 372.443 444.267 380.778C398.147 389.825 360.086 402.305 359.706 402.43C359.598 402.464 359.487 402.483 359.376 402.483Z" fill="#F2F2F2" fill-opacity="0.2"/>
</g>
</g>
<path d="M338.924 29.0696L395.921 502.751C396.775 509.852 391.879 516.219 385.021 516.899L147.618 542.958C133.075 543.862 125.112 536.433 124.215 528.881L64.3742 25.2789C63.4827 17.7685 70.6165 10.9678 85.2222 10.9678L324.786 16.013C331.719 16.1299 338.074 22.0038 338.924 29.0696Z" fill="url(#paint2_linear_97_1399)"/>
<path d="M349.609 28.2528L406.919 504.303C407.779 511.442 402.866 517.84 395.981 518.527L149.86 543.027C142.143 543.795 135.072 538.213 134.17 530.623L73.9939 24.4183C73.0962 16.8703 78.7644 10.8022 86.5641 10.9337L335.414 15.1315C342.375 15.2484 348.753 21.1536 349.609 28.2528Z" fill="#1C3761"/>
<path d="M220.812 27.9251C221.115 30.4592 219.297 32.4881 216.748 32.4547C214.194 32.4234 211.877 30.3381 211.574 27.7977C211.269 25.2595 213.096 23.2305 215.649 23.2681C218.199 23.3078 220.508 25.391 220.812 27.9251Z" fill="url(#paint3_linear_97_1399)"/>
<g opacity="0.5">
<path opacity="0.5" d="M304.919 350.803C257.532 263.206 186.743 236.986 165.43 146.707C153.91 97.9076 161.76 51.2001 174.979 12.4248L86.5641 10.9323C78.7644 10.8008 73.0962 16.8688 73.9939 24.4168L134.17 530.622C135.072 538.214 142.143 543.793 149.862 543.025L343.337 523.765C344.767 445.277 326.042 389.85 304.919 350.803Z" fill="white" fill-opacity="0.6"/>
</g>
<path opacity="0.3" d="M344.612 190.26L122.405 196.157C116.837 196.305 111.562 190.18 110.637 182.472L96.2586 62.6784C95.3213 54.8674 99.1418 48.5801 104.777 48.6386L329.564 50.9681C334.572 51.0203 339.263 57.0132 340.052 64.3483L352.161 176.909C352.938 184.152 349.564 190.128 344.612 190.26Z" fill="url(#paint4_linear_97_1399)"/>
<path opacity="0.3" d="M377.499 494.678L160.882 518.117C155.458 518.704 150.326 513.143 149.431 505.687L135.528 389.856C134.622 382.303 138.347 375.858 143.833 375.463L362.921 359.728C367.806 359.378 372.378 364.859 373.142 371.967L384.873 481.025C385.629 488.044 382.332 494.156 377.499 494.678Z" fill="url(#paint5_linear_97_1399)"/>
<path opacity="0.3" d="M361.187 343.67L141.805 358.48C136.31 358.852 131.107 353.012 130.197 345.432L116.059 227.645C115.136 219.965 118.909 213.597 124.47 213.426L346.376 206.575C351.322 206.422 355.953 212.156 356.729 219.375L368.648 330.163C369.412 337.296 366.078 343.341 361.187 343.67Z" fill="url(#paint6_linear_97_1399)"/>
<path d="M166.915 305.668L163.733 299.579V291.256L169.859 305.668H166.915Z" fill="url(#paint7_linear_97_1399)"/>
<path d="M94.3841 299.272C107.908 294.41 117.95 316.299 138.416 313.247C152.045 311.214 161.584 299.422 168.271 303.853C170.448 305.296 171.333 307.803 171.743 309.573C169.162 315.948 162.193 330.547 146.598 339.226C123.756 351.939 89.1272 348.211 81.9747 331.518C77.2836 320.573 83.9559 303.021 94.3841 299.272Z" fill="url(#paint8_linear_97_1399)"/>
<path d="M211.057 225.522L296.416 162.201L270.037 126.655L238.517 125.532L184.679 189.976C166.013 203.824 153.856 224.109 150.451 247.099C147.044 270.088 152.795 293.028 166.645 311.692L202.197 285.319C188.151 266.391 192.126 239.566 211.057 225.522Z" fill="url(#paint9_linear_97_1399)"/>
<path d="M223.778 345.916C246.77 349.323 269.714 343.572 288.38 329.725L373.739 266.404L347.363 230.857L315.842 229.734L262.004 294.178C243.073 308.222 216.245 304.248 202.199 285.32L170.679 284.196L166.647 311.694C180.495 330.355 200.786 342.51 223.778 345.916Z" fill="url(#paint10_linear_97_1399)"/>
<path d="M192.258 344.791C215.25 348.198 238.194 342.447 256.86 328.599L342.219 265.278L315.84 229.732L230.482 293.053C211.55 307.097 184.723 303.123 170.677 284.194L135.125 310.566C148.975 329.232 169.263 341.387 192.258 344.791Z" fill="url(#paint11_linear_97_1399)"/>
<path d="M179.537 224.399L264.895 161.078L238.519 125.532L153.159 188.853C134.492 202.701 122.335 222.986 118.93 245.976C115.525 268.967 121.275 291.905 135.125 310.569L170.677 284.196C156.63 265.266 160.605 238.443 179.537 224.399Z" fill="url(#paint12_linear_97_1399)"/>
<path opacity="0.45" d="M238.517 125.532C239.826 127.296 264.893 161.078 264.893 161.078L296.413 162.201L270.035 126.655L238.517 125.532Z" fill="white"/>
<path opacity="0.45" d="M315.84 229.733L342.216 265.279L373.739 266.402L347.36 230.856L315.84 229.733Z" fill="#A07CF4"/>
<path opacity="0.45" d="M298.595 282.568C284.925 282.069 279.269 273.403 268.225 265.057L230.485 293.053C211.554 307.097 184.727 303.123 170.68 284.194C161.29 271.541 159.956 255.357 165.76 241.822C158.248 228.703 160.968 211.499 145.968 198.277C145.329 197.714 144.674 197.184 144.01 196.668C130.529 209.86 121.746 226.996 118.934 245.976C115.527 268.965 121.279 291.905 135.129 310.569C148.979 329.232 169.269 341.387 192.261 344.793C215.253 348.2 238.197 342.449 256.864 328.602L342.222 265.281L338.784 260.647C328.157 272.438 314.326 283.14 298.595 282.568Z" fill="white" fill-opacity="0.5"/>
<path d="M261.759 133.781C262.855 129.221 264.415 124.601 267.037 120.228C268.35 118.051 269.945 115.943 271.891 114.058C273.83 112.171 276.135 110.545 278.678 109.323C279.304 109 279.976 108.758 280.638 108.491C281.304 108.238 281.991 108.038 282.676 107.831C284.054 107.478 285.461 107.188 286.847 107.069C289.638 106.773 292.323 106.948 294.831 107.27C297.348 107.593 299.668 108.096 301.874 108.564C304.077 109.04 306.131 109.486 308.056 109.789C309.975 110.092 311.731 110.217 313.276 110.131C314.806 110.012 316.113 109.728 317.278 109.186C318.457 108.645 319.503 107.925 320.484 106.963C321.466 106.002 322.376 104.781 323.205 103.383C323.635 102.713 324 101.92 324.391 101.17C324.578 100.782 324.741 100.36 324.921 99.9594C325.096 99.5524 325.28 99.16 325.428 98.7175C325.739 97.8533 326.075 97.0183 326.332 96.0978L326.75 94.7514C326.881 94.2943 326.99 93.8183 327.113 93.3529C328.075 89.6185 328.727 85.6441 329.203 81.6008L329.207 81.5695C329.814 76.4116 334.489 72.7232 339.648 73.3306C344.806 73.938 348.495 78.6117 347.888 83.7696C347.85 84.0848 347.794 84.4084 347.727 84.7131C346.692 89.3618 345.445 94.0271 343.714 98.6987C343.495 99.2831 343.291 99.8655 343.057 100.448L342.312 102.199C341.842 103.362 341.247 104.531 340.679 105.691C340.408 106.272 340.071 106.85 339.748 107.428C339.416 108.006 339.109 108.582 338.756 109.154C338.017 110.3 337.309 111.44 336.439 112.553C334.762 114.778 332.781 116.945 330.368 118.811C327.963 120.679 325.125 122.194 322.142 123.117C319.148 124.071 316.006 124.342 313.131 124.215C310.259 124.058 307.628 123.53 305.236 122.9C300.463 121.62 296.436 120.021 292.741 119.155C290.904 118.723 289.167 118.443 287.549 118.445C286.728 118.418 285.954 118.51 285.173 118.608C284.407 118.748 283.64 118.913 282.891 119.188C281.388 119.725 279.933 120.508 278.584 121.564C277.233 122.616 275.983 123.925 274.855 125.421C272.592 128.419 270.851 132.101 269.492 136L269.475 136.046C268.742 138.144 266.448 139.253 264.348 138.522C262.383 137.835 261.291 135.762 261.759 133.781Z" fill="url(#paint13_linear_97_1399)"/>
<path d="M271.104 147.752C272.368 146.085 273.75 144.471 275.311 142.979C276.86 141.48 278.589 140.104 280.503 138.935C282.414 137.766 284.514 136.798 286.75 136.161C287.314 136.021 287.875 135.865 288.447 135.744C289.023 135.633 289.597 135.518 290.186 135.451C291.357 135.289 292.558 135.234 293.754 135.272C294.953 135.299 296.143 135.439 297.303 135.65C298.468 135.856 299.598 136.149 300.679 136.487C302.857 137.159 304.846 138.019 306.713 138.846C308.575 139.676 310.314 140.474 311.976 141.117C312.805 141.432 313.613 141.709 314.402 141.943C315.191 142.171 315.959 142.342 316.713 142.471C318.218 142.705 319.652 142.751 321.097 142.553C322.538 142.363 323.972 141.96 325.396 141.421C328.247 140.255 331.045 138.453 333.682 136.232C338.968 131.759 343.611 125.935 347.849 119.815L347.922 119.71C350.457 116.049 355.48 115.137 359.142 117.671C362.803 120.205 363.716 125.227 361.181 128.889C360.993 129.16 360.76 129.452 360.545 129.692L358.438 132.034L357.386 133.201C357.033 133.59 356.653 133.965 356.29 134.347L354.081 136.623L351.766 138.835C348.628 141.749 345.294 144.54 341.553 146.997C337.82 149.443 333.64 151.57 328.957 152.837C326.596 153.428 324.13 153.802 321.617 153.81C319.107 153.833 316.573 153.434 314.235 152.758C313.07 152.412 311.944 152.007 310.876 151.556C309.813 151.101 308.798 150.61 307.83 150.103C305.903 149.084 304.155 148.013 302.504 147.037C299.201 145.066 296.243 143.534 293.147 143.083C292.372 142.966 291.589 142.901 290.792 142.918C290.393 142.91 289.992 142.947 289.587 142.972C289.184 143.008 288.781 143.075 288.374 143.121C286.756 143.379 285.151 143.893 283.591 144.609C282.03 145.325 280.516 146.252 279.084 147.348C277.643 148.433 276.284 149.683 274.992 151.032L274.971 151.053C273.998 152.067 272.386 152.101 271.372 151.128C270.43 150.222 270.334 148.769 271.104 147.752Z" fill="url(#paint14_linear_97_1399)"/>
<path d="M338.889 241.919C339.529 238.927 340.475 235.851 342.189 232.847C343.049 231.35 344.116 229.879 345.45 228.538C346.78 227.198 348.386 226.019 350.177 225.123C351.072 224.671 352.033 224.311 353.008 224.017C353.985 223.748 354.987 223.529 355.964 223.426C357.937 223.186 359.801 223.276 361.501 223.458C363.211 223.641 364.737 223.936 366.152 224.193C367.563 224.456 368.826 224.685 369.952 224.815C371.071 224.944 372.012 224.948 372.735 224.85C373.447 224.729 373.927 224.549 374.319 224.284C374.726 224.015 375.05 223.71 375.403 223.274C375.754 222.84 376.127 222.245 376.49 221.521C377.234 220.095 377.862 218.081 378.321 215.922C378.783 213.749 379.083 211.378 379.28 208.948C379.697 203.759 384.244 199.893 389.434 200.311C394.624 200.73 398.491 205.274 398.073 210.464C398.034 210.965 397.954 211.455 397.84 211.929L397.806 212.063C397.052 215.098 396.157 218.158 394.925 221.27C394.769 221.661 394.622 222.045 394.457 222.435L393.929 223.612C393.595 224.389 393.173 225.186 392.766 225.969C392.572 226.359 392.334 226.758 392.102 227.152C391.867 227.549 391.645 227.939 391.393 228.334C390.862 229.127 390.355 229.908 389.725 230.691C388.514 232.244 387.069 233.78 385.286 235.122C383.512 236.464 381.392 237.566 379.182 238.218C376.96 238.894 374.643 239.061 372.586 238.936C370.534 238.792 368.718 238.385 367.127 237.93C363.956 236.997 361.488 235.928 359.409 235.348C358.38 235.055 357.461 234.859 356.663 234.807C355.855 234.744 355.137 234.786 354.388 234.993C353.636 235.201 352.878 235.537 352.141 236.047C351.402 236.554 350.68 237.228 350.006 238.042C348.651 239.673 347.521 241.812 346.617 244.14L346.586 244.221C345.78 246.296 343.444 247.325 341.369 246.519C339.498 245.791 338.479 243.82 338.889 241.919Z" fill="url(#paint15_linear_97_1399)"/>
<path d="M345.474 250.507C347.046 248.298 348.988 246.165 351.531 244.518C352.796 243.7 354.207 243.007 355.729 242.535C357.241 242.063 358.884 241.829 360.546 241.823C362.22 241.817 363.838 242.143 365.329 242.55C366.832 242.965 368.139 243.506 369.358 243.992L371.095 244.695C371.627 244.896 372.172 245.115 372.656 245.265C373.164 245.449 373.617 245.549 374.074 245.677C374.508 245.754 374.94 245.856 375.329 245.871C375.732 245.937 376.097 245.885 376.462 245.904C376.644 245.881 376.824 245.864 376.999 245.852C377.179 245.818 377.356 245.783 377.531 245.756C378.237 245.603 378.947 245.345 379.669 245.015C381.12 244.299 382.623 243.226 384.078 241.873C386.999 239.151 389.665 235.538 392.089 231.718L392.108 231.689C394.498 227.919 399.494 226.8 403.265 229.19C407.035 231.58 408.154 236.575 405.764 240.345C405.482 240.79 405.133 241.228 404.784 241.598L403.369 243.082C402.901 243.577 402.429 244.067 401.924 244.549L400.438 245.994L398.876 247.405C396.759 249.263 394.505 251.052 391.949 252.642C389.4 254.222 386.517 255.621 383.233 256.435C381.575 256.817 379.832 257.047 378.055 257.017C377.609 256.999 377.166 256.98 376.723 256.948C376.281 256.896 375.838 256.842 375.4 256.781C374.54 256.602 373.661 256.445 372.865 256.166C372.036 255.926 371.297 255.606 370.55 255.293C369.855 254.959 369.143 254.621 368.531 254.262C367.88 253.907 367.32 253.552 366.742 253.199L365.166 252.191C363.151 250.885 361.571 249.989 359.946 249.636C359.132 249.48 358.27 249.403 357.36 249.496C356.458 249.588 355.541 249.826 354.625 250.194C352.788 250.922 350.996 252.21 349.368 253.786L349.332 253.822C348.32 254.801 346.706 254.773 345.727 253.763C344.852 252.861 344.775 251.488 345.474 250.507Z" fill="url(#paint16_linear_97_1399)"/>
<path d="M176.439 260.544C176.439 260.544 178.596 261.696 180.707 257.515C182.362 254.238 183.442 253.516 183.755 254.538C184.068 255.561 182.932 257.325 182.932 257.325C182.932 257.325 187.022 257.01 190.114 254.948C193.206 252.885 192.145 255.745 191.342 257.317C190.538 258.889 185.642 262.024 184.083 262.137C182.523 262.251 178.494 264.821 178.494 264.821L176.439 260.544Z" fill="url(#paint17_linear_97_1399)"/>
<path d="M78.9687 544.327C78.9687 544.327 95.0149 551.618 95.2759 552.783C95.5389 553.948 84.9563 552.393 80.6368 552.56C76.3173 552.726 72.764 551.451 73.1544 549.623C73.5448 547.794 75.0584 543.191 75.0584 543.191L78.9687 544.327Z" fill="url(#paint18_linear_97_1399)"/>
<path d="M79.5564 538.41L78.5815 545.632C78.5815 545.632 76.0407 546.536 74.3351 545.467L73.6064 537.545L79.5564 538.41Z" fill="url(#paint19_linear_97_1399)"/>
<path d="M3.99136 538.583L2.12493 541.578C1.603 542.415 1.44643 543.425 1.69695 544.379C2.35041 546.869 3.65315 551.725 4.22101 552.992C4.99555 554.716 15.3778 555.741 15.3778 555.741C15.3778 555.741 16.3047 554.438 14.1481 552.864C11.9915 551.291 10.6073 551.044 9.84533 548.721C9.0854 546.4 8.57599 539.831 8.57599 539.831L3.99136 538.583Z" fill="url(#paint20_linear_97_1399)"/>
<path d="M11.7592 530.969C11.0765 531.512 7.74238 541.634 7.74238 541.634C7.74238 541.634 6.66303 543.014 4.61289 540.976C2.56275 538.939 3.68594 540.062 3.68594 540.062L4.07008 530.107L11.7592 530.969Z" fill="url(#paint21_linear_97_1399)"/>
<path d="M88.3831 393.292C89.2286 414.838 89.2641 438.248 88.024 463.255C86.6273 491.416 83.8214 517.444 80.2869 541.04C78.9717 541.081 77.5917 541.088 76.1491 541.048C75.1741 541.021 74.2304 540.973 73.3181 540.91C71.483 536.017 69.3139 529.584 67.3723 521.9C65.3305 513.82 64.0987 506.571 63.2219 499.64C60.1321 475.237 63.7522 473.108 61.2448 455.02C59.0235 439.002 55.8648 438.378 52.1591 415.635C48.136 390.96 51.1319 387.257 52.587 385.921C58.7876 380.227 73.3494 384.101 88.3831 393.292Z" fill="url(#paint22_linear_97_1399)"/>
<path opacity="0.3" d="M52.5876 385.919C58.5 380.488 72.0222 383.775 86.3063 392.064C69.876 409.814 68.0847 421.328 70.0534 428.798C72.2789 437.242 79.0473 439.674 79.0223 448.906C78.991 460.253 68.7486 463.257 68.9657 475.264C69.1098 483.202 73.6109 483.121 74.6736 492.925C75.9304 504.527 70.0513 508.526 71.9553 517.11C72.7737 520.802 75.112 525.628 81.7718 530.598C81.2916 534.124 80.7989 537.612 80.2853 541.037C78.9722 541.079 77.5901 541.085 76.1475 541.046C75.1725 541.019 74.2289 540.971 73.3165 540.908C71.4814 536.015 69.3123 529.582 67.3707 521.898C65.3289 513.818 64.0972 506.568 63.2203 499.638C60.1305 475.234 63.7506 473.105 61.2432 455.018C59.0219 438.999 55.8632 438.375 52.1575 415.633C48.1365 390.958 51.1324 387.257 52.5876 385.919Z" fill="url(#paint23_linear_97_1399)"/>
<path d="M78.2074 392.929C64.059 413.625 48.7998 439.386 35.1545 470.216C24.8411 493.516 17.3629 515.394 11.8701 534.89C11.1269 535.235 9.37321 535.921 7.13517 535.625C4.08084 535.22 2.24991 533.27 1.76973 532.728C-0.466216 518.75 -0.219865 506.915 0.540065 498.371C1.0265 492.902 1.88456 483.793 5.37314 472.548C9.27926 459.953 11.9641 459.245 17.0602 445.917C22.3484 432.086 21.0686 428.634 26.1334 411.323C28.2149 404.211 31.6972 393.63 37.4447 380.972C51.0295 384.959 64.6185 388.944 78.2074 392.929Z" fill="url(#paint24_linear_97_1399)"/>
<path d="M83.5043 275.893C83.5043 275.893 83.0429 281.952 81.0178 286.438C79.1869 290.492 70.1533 292.796 68.3078 293.658C66.4643 294.518 71.598 297.359 76.8194 298.048C82.0408 298.737 97.0369 298.011 99.7948 296.109C102.553 294.207 97.6841 294.205 93.9888 292.717C90.2915 291.229 88.3582 283.85 89.1203 280.554C89.8844 277.256 83.5043 275.893 83.5043 275.893Z" fill="url(#paint25_linear_97_1399)"/>
<path d="M91.0408 271.26C93.7924 267.61 92.6192 260.444 90.1661 259.525C89.4646 259.262 88.9907 259.634 81.9906 265.361C78.5145 268.207 76.8255 269.67 76.7337 271.628C76.6773 272.824 77.1951 274.252 77.9884 275.256C78.3976 275.773 79.0615 276.366 80.4707 277.458C81.7192 278.426 81.6482 278.401 82.0261 278.679C82.9321 279.345 84.6107 280.416 87.379 281.399C87.3059 280.729 87.2558 279.883 87.3163 278.925C87.3393 278.556 87.4479 277.111 87.9197 275.775C88.7318 273.473 90.1494 272.444 91.0408 271.26Z" fill="url(#paint26_linear_97_1399)"/>
<path d="M83.9973 280.639C83.9973 280.639 87.4066 283.368 91.5591 281.547C95.2773 279.917 92.7345 271.177 89.6446 270.246C88.6133 269.935 86.8972 270.275 85.7093 271.125C85.0078 271.626 84.8617 272.048 83.7009 272.845C82.6299 273.58 82.2478 273.571 81.9994 274.001C81.6883 274.54 81.6967 275.58 83.3481 277.805C82.3543 277.333 81.3793 277.366 80.8678 277.882C80.7864 277.963 80.5902 278.237 80.5401 278.56C80.3626 279.729 81.705 280.652 83.9973 280.639Z" fill="url(#paint27_linear_97_1399)"/>
<path d="M20.6532 400.537C26.5572 405.883 36.7808 406.317 39.0126 406.411C49.518 406.858 51.0191 402.297 61.4117 402.739C71.8357 403.184 74.5852 407.945 81.9737 406.043C83.2827 405.707 88.3976 404.219 93.834 397.118C109.237 376.991 96.3623 354.848 111.715 326.378C114.031 322.087 116.066 318.313 120.16 314.263C133.411 301.16 146.048 307.12 162.746 296.606C176.445 287.981 185.639 270.641 181.664 262.823C179.863 259.281 178.301 259.749 175.881 259.465C171.815 266.359 161.752 274.768 150.175 279.662C139.192 284.307 130.726 282.088 113.92 282.322C103.648 282.466 86.0134 282.712 72.0299 287.718C37.0626 300.234 24.1167 342.796 20.2878 355.38C16.9412 366.381 9.61329 390.54 20.6532 400.537Z" fill="url(#paint28_linear_97_1399)"/>
<path d="M434.205 305.938C432.885 304.93 431.566 303.92 430.247 302.912C429.092 303.239 410.131 308.938 406.378 325.612C405.862 327.906 403.958 336.36 408.591 341.794C416.355 350.903 438.883 347.315 449.46 334.575C457.769 324.564 458.802 308.777 454.001 305.819C448.19 302.242 430.869 315.626 429.549 316.647C426.902 318.692 424.497 320.869 424.077 320.487C423.359 319.84 429.046 312.407 434.205 305.938Z" fill="url(#paint29_linear_97_1399)"/>
<path d="M580.207 423.977C580.207 423.977 579.197 421.353 580.78 419.982C582.362 418.611 591.112 414.642 595.504 414.726C599.895 414.809 596.356 418.193 593.851 420.107C591.343 422.021 585.496 426.033 583.99 426.374C582.485 426.714 580.207 423.977 580.207 423.977Z" fill="url(#paint30_linear_97_1399)"/>
<path d="M572.462 428.616C575.011 426.63 577.237 425.082 578.917 423.963C582.635 421.489 584.293 420.727 585.953 420.207C587.4 419.757 590.681 418.915 590.988 419.596C591.302 420.287 588.262 421.911 580.794 427.576C579.71 428.398 576.268 431.024 576.268 431.024L572.462 428.616Z" fill="url(#paint31_linear_97_1399)"/>
<path d="M461.331 545.981C461.331 545.981 462.345 548.603 460.765 549.976C459.184 551.35 450.439 555.33 446.048 555.255C441.658 555.18 445.19 551.79 447.696 549.872C450.201 547.953 456.042 543.933 457.548 543.591C459.049 543.248 461.331 545.981 461.331 545.981Z" fill="url(#paint32_linear_97_1399)"/>
<path d="M460.698 534.382C460.884 537.722 460.537 540.433 460.17 542.32C459.646 545.013 459.329 546.539 458.051 547.891C455.794 550.279 451.842 550.751 451.27 549.791C450.621 548.701 454.803 546.574 456.189 541.464C456.796 539.227 456.654 537.202 456.416 535.778L460.698 534.382Z" fill="url(#paint33_linear_97_1399)"/>
<path d="M445.662 398.169C439.743 404.398 441.036 413.301 442.89 429.254C444.445 442.639 446.562 462.433 448.556 487.491C450.364 504.97 452.172 522.448 453.982 539.926C456.996 539.926 460.009 539.926 463.024 539.926C466.719 532.077 471.122 520.058 471.343 505.21C471.525 492.909 468.65 491.296 468.095 477.365C467.79 469.704 468.468 465.41 474.235 432.162C478.824 405.713 479.725 400.751 476.043 396.722C469.548 389.617 453.188 390.247 445.662 398.169Z" fill="url(#paint34_linear_97_1399)"/>
<path opacity="0.4" d="M463.745 519.956C462.19 515.08 458.056 510.097 457.776 500.428C457.446 489.021 462.918 486.173 462.117 475.476C461.346 465.195 456.041 464.448 454.521 454.32C452.755 442.555 459.3 439.481 461.574 425.57C463.649 412.881 460.645 400.513 457.517 392.249C464.54 390.968 472.102 392.414 476.042 396.722C479.724 400.749 478.82 405.713 474.234 432.16C468.467 465.408 467.787 469.702 468.094 477.362C468.649 491.294 471.524 492.907 471.342 505.208C471.123 520.058 466.72 532.075 463.023 539.924C462.025 539.924 461.027 539.924 460.031 539.924C464.862 531.14 465.269 524.734 463.745 519.956Z" fill="url(#paint35_linear_97_1399)"/>
<path d="M581.769 430.108C569.093 447.571 544.854 476.421 523.898 471.53C512.816 468.944 508.795 458.356 476.225 413.638C468.391 402.884 461.723 394.021 456.988 387.799C469.646 384.665 482.306 381.53 494.964 378.397C503.509 392.493 509.127 404.427 512.607 412.484C520.925 431.746 523.925 444.862 531.495 445.659C535.196 446.049 537.595 443.244 542.708 439.15C549.401 433.792 559.769 427.01 575.26 421.792C577.429 424.564 579.598 427.336 581.769 430.108Z" fill="url(#paint36_linear_97_1399)"/>
<path d="M454.049 281.53C456.614 277.399 460.573 275.775 464.997 274.03C470.732 271.767 473.316 272.228 477.577 271.149C488.118 268.475 488.323 261.589 497.784 256.848C509.876 250.789 515.782 258.917 525.816 253.569C537.081 247.566 533.098 235.48 543.048 227.466C556.86 216.343 589.151 219.804 599.314 238.987C605.183 250.067 604.078 267.16 595.794 276.756C590.965 282.35 584.036 285.325 584.383 290.311C584.629 293.862 588.83 294.344 591.291 299.39C594.464 305.892 591.525 313.356 591.049 314.561C586.64 325.751 566.535 332.637 548.823 330.252C516.883 325.947 502.757 292.839 482.414 299.124C478.673 300.281 473.264 303.506 465.717 302.322C463.445 301.965 455.395 300.705 452.541 294.037C450.028 288.168 453.604 282.246 454.049 281.53Z" fill="url(#paint37_linear_97_1399)"/>
<path d="M494.467 301.924C484.759 301.886 472.742 301.993 460.463 303.289C434.057 306.076 435.097 319.212 439.878 331.187C444.757 343.409 444.587 354.198 444.489 358.037C444.331 364.222 443.207 369.18 440.959 379.097C437.053 396.324 434.145 400.282 436.894 404.686C440.905 411.109 452.145 410.792 454.116 410.698C464.099 410.218 466.216 404.361 474.634 403.434C484.413 402.357 486.674 409.7 500.271 414.641C516.319 420.473 536.982 418.931 546.577 408.187C550.283 404.039 552.66 398.307 551.068 396.504C548.898 394.047 541.353 401.115 533.32 398.311C527.998 396.454 528.478 392.364 522.107 388.375C514.438 383.574 509.927 387.106 504.726 384.008C496.616 379.172 498.359 365.072 497.703 341.854C497.428 332.243 496.672 318.562 494.467 301.924Z" fill="url(#paint38_linear_97_1399)"/>
<path d="M494.467 301.924C508.551 302.61 513.586 317.268 528.288 320.159C537.196 321.912 550.485 319.508 569.562 300.978C572.266 302.228 574.972 303.481 577.675 304.731C574.896 321.368 567.174 330.705 563.383 334.635C541.727 357.095 500.657 356.409 478.417 337.152C471.437 331.109 467.504 324.269 465.366 319.773C472.396 311.033 482.627 301.348 494.467 301.924Z" fill="url(#paint39_linear_97_1399)"/>
<path d="M463.633 291.084C464.512 290.451 465.748 290.865 466.082 291.894C467.005 294.745 468.909 299.598 471.508 300.809C475.247 302.554 480.88 301.788 481.591 302.481C482.299 303.17 464.798 312.252 453.138 308.123C453.057 308.094 452.977 308.058 452.9 308.017L452.236 307.66C450.919 306.95 451.217 304.984 452.685 304.693C454.936 304.249 460.827 302.558 462.309 299.989C462.481 299.694 462.529 297.375 462.485 297.037L462.007 293.28C461.934 292.699 462.182 292.125 462.658 291.785L463.633 291.084Z" fill="url(#paint40_linear_97_1399)"/>
<path d="M466.389 293.05C466.389 293.05 464.492 296.436 460.776 295.563C457.448 294.781 458.368 286.321 460.786 285.081C461.592 284.667 463.158 284.621 464.27 285.143C465.053 285.511 467.285 287.694 466.494 290.533C467.271 290.203 468.005 290.33 468.231 290.708C468.517 291.188 467.918 291.956 467.782 292.132C467.308 292.737 466.682 292.965 466.389 293.05Z" fill="url(#paint41_linear_97_1399)"/>
<path d="M571.837 302.03L573.165 299.412C573.165 299.412 566.382 288.318 571.941 286.537C577.501 284.757 575.935 287.93 575.305 289.443C574.674 290.956 575.689 295.891 576.655 297.4C577.622 298.907 575.941 303.932 575.941 303.932L571.837 302.03Z" fill="url(#paint42_linear_97_1399)"/>
<path opacity="0.3" d="M523.784 407.309C520.277 404.921 522.69 400.242 518.721 396.461C515.089 393 511.112 395.061 504.617 393.207C496.809 390.98 490.759 384.64 487.98 379.105C485.999 375.157 486.157 372.571 487.98 352.344C489.715 333.082 490.205 328.377 492.681 327.755C497.187 326.619 501.22 340.772 510.043 340.774C515.026 340.776 515.701 336.261 521.978 333.902C532.632 329.901 540.248 339.313 551.637 338.964C554.547 338.874 558.079 338.117 562.109 335.85C545.697 351.685 519.258 355.143 497.826 347.969C498.116 367.547 497.354 379.616 504.723 384.008C509.924 387.108 514.435 383.574 522.104 388.375C528.475 392.364 527.995 396.453 533.317 398.311C541.35 401.114 548.895 394.046 551.064 396.503C552.509 398.14 550.674 402.995 547.559 406.98C545.728 406.222 543.709 405.671 541.509 405.5C533.1 404.846 527.924 410.125 523.784 407.309Z" fill="#6D69DD"/>
<path d="M423.774 260.721L424.766 258.145L422.194 255.601C421.62 255.033 420.745 254.903 420.031 255.279C416.248 257.273 404.835 264.359 401.432 278.768C401.252 279.524 401.567 280.313 402.217 280.739C403.396 281.513 404.789 282.175 404.789 282.175L423.774 260.721Z" fill="url(#paint43_linear_97_1399)"/>
<path d="M436.571 291.916L435.041 300.349C435.041 300.349 434.959 302.789 434.562 303.733C435.523 304.998 437.93 305.603 437.93 305.603L442.728 296.083L436.853 291.889L436.571 291.916Z" fill="url(#paint44_linear_97_1399)"/>
<path d="M431.157 303.609L432.527 300.181C432.527 300.181 433.779 297.474 437.312 297.012C440.844 296.551 440.805 298.457 440.805 298.457L438.5 299.137C438.5 299.137 437.009 299.567 435.986 301.728C434.556 303.928 433.022 305.034 433.022 305.034L431.157 303.609Z" fill="url(#paint45_linear_97_1399)"/>
<path d="M450.544 293.618C450.544 293.618 429.111 273.09 424.767 258.145C409.526 262.349 404.787 282.177 404.787 282.177C404.787 282.177 435.481 292.182 445.537 300.005C449.137 299.21 450.544 293.618 450.544 293.618Z" fill="url(#paint46_linear_97_1399)"/>
<path d="M392.732 281.203C393.59 280.898 394.26 280.148 394.421 279.186C398.826 252.668 417.351 248.445 417.53 248.405C418.929 248.111 419.822 246.736 419.526 245.337C419.23 243.938 417.856 243.045 416.457 243.341C415.551 243.531 394.292 248.372 389.315 278.339C389.081 279.748 390.033 281.081 391.444 281.315C391.891 281.39 392.331 281.344 392.732 281.203Z" fill="url(#paint47_linear_97_1399)"/>
<path d="M473.263 58.5183C473.263 59.7582 473.314 60.9856 473.184 62.1942C473.128 62.714 473.119 63.2296 473.038 63.7368C472.877 64.7596 472.702 65.7699 472.447 66.7614C472.324 67.2582 472.201 67.7529 472.059 68.2435C471.959 68.5649 471.863 68.8947 471.756 69.2162C469.228 76.7893 464.08 83.3541 457.217 88.249C457.069 88.3555 456.927 88.4599 456.779 88.558C454.418 90.207 451.864 91.6515 449.142 92.883C448.975 92.9582 448.808 93.0312 448.635 93.1064C447.438 93.6324 446.211 94.1167 444.952 94.5571C444.42 94.7429 443.873 94.9224 443.328 95.0894C442.962 95.2063 442.597 95.319 442.225 95.4234C441.674 95.5841 441.117 95.7323 440.551 95.8764C440.179 95.9703 439.801 96.0621 439.424 96.1498C434.689 97.2415 429.661 97.7237 424.484 97.4941C424.1 97.4753 423.716 97.4565 423.338 97.4315C423.225 97.4252 423.114 97.4127 423.01 97.4064C422.979 97.4064 422.947 97.4002 422.916 97.4002C422.674 97.3814 422.432 97.3689 422.198 97.3438C422.075 97.3313 421.956 97.325 421.839 97.3125C421.578 97.2874 421.313 97.2624 421.052 97.2373C420.941 97.2248 420.828 97.206 420.718 97.1935C420.45 97.1685 420.179 97.1372 419.912 97.0996C419.812 97.0871 419.72 97.0745 419.619 97.062C419.333 97.0244 419.05 96.9869 418.757 96.9451C418.688 96.9326 418.615 96.9201 418.54 96.9075C418.223 96.8637 417.914 96.8136 417.599 96.7593C417.555 96.7531 417.513 96.3147 417.475 96.3085C417.123 96.2458 416.768 95.6843 416.421 95.6843H416.415C413.465 95.6843 410.626 94.7596 407.928 93.7618C407.934 93.7556 407.934 93.9727 407.941 93.9664C407.097 93.6575 406.266 93.4299 405.448 93.0772C404.724 92.762 404.01 92.4864 403.31 92.1462C402.97 92.4196 402.573 92.7307 402.133 93.0354C396.498 90.612 391.533 87.2909 387.504 83.2873C387.976 82.6486 388.427 81.9869 388.842 81.2855C383.034 74.6664 379.625 66.5318 379.625 57.8608C379.625 37.0683 399.231 19.6177 424.484 18.8537C425.309 18.8287 425.908 18.8245 426.72 18.8349C451.466 19.1501 472.249 35.5758 473.011 56.7461V56.7712C473.011 57.0384 473.011 57.3097 473.011 57.5832V57.7063C473.013 57.9777 473.263 58.2449 473.263 58.5183Z" fill="url(#paint48_linear_97_1399)"/>
<path d="M470.134 58.3739C470.134 80.5796 448.65 97.7233 422.918 97.3998C422.323 97.3935 421.722 97.3747 421.121 97.3497C420.576 97.3246 420.031 97.2933 419.49 97.2516C418.939 97.214 418.388 97.1639 417.841 97.1096C417.73 97.0971 417.618 97.0908 417.507 97.0721C417.154 97.0345 416.808 96.9969 416.453 96.9489C416.106 96.9051 415.764 96.8612 415.417 96.807C414.92 96.7381 414.426 96.6588 413.935 96.5711C413.636 96.5147 413.346 96.4667 413.054 96.4104C410.11 95.8405 407.271 95.0473 404.574 94.0433C403.743 93.7343 402.931 93.4108 402.131 93.0643C396.496 90.6408 391.532 87.3072 387.502 83.3036C380.467 76.338 376.258 67.3622 376.258 57.7268C376.258 36.9343 395.864 19.4816 421.117 18.7197C423.081 18.6571 425.023 18.701 426.937 18.8429C447.47 20.3249 464.585 32.9119 469.009 49.7655C469.009 49.7676 469.011 49.7697 469.011 49.7718C469.122 50.1955 469.226 50.6213 469.322 51.0513C469.353 51.1891 469.381 51.329 469.41 51.4667C469.481 51.8091 469.552 52.1493 469.612 52.4937C469.702 52.9989 469.784 53.5082 469.85 54.0196C469.844 54.0259 469.85 54.0321 469.85 54.0447C469.875 54.2367 469.9 54.435 469.919 54.627C469.951 54.8692 469.976 55.1113 469.994 55.3514C470.019 55.6186 470.045 55.8899 470.057 56.1571C470.063 56.2385 470.07 56.3241 470.076 56.4055C470.095 56.7144 470.107 57.0255 470.113 57.3344C470.128 57.6809 470.134 58.0274 470.134 58.3739Z" fill="url(#paint49_linear_97_1399)"/>
<path d="M470.134 58.3739C470.134 80.5796 448.65 97.7233 422.918 97.3998C422.323 97.3935 421.722 97.3747 421.121 97.3497C420.576 97.3246 420.031 97.2933 419.49 97.2516C418.939 97.214 418.388 97.1639 417.841 97.1096C417.73 97.0971 417.618 97.0908 417.507 97.0721C417.154 97.0345 416.808 96.9969 416.453 96.9489C416.106 96.9051 415.764 96.8612 415.417 96.807C414.92 96.7381 414.426 96.6588 413.935 96.5711C413.636 96.5147 413.346 96.4667 413.054 96.4104C410.11 95.8405 407.271 95.0473 404.574 94.0433C403.743 93.7343 402.931 93.4108 402.131 93.0643C396.496 90.6408 391.532 87.3072 387.502 83.3036C380.467 76.338 376.258 67.3622 376.258 57.7268C376.258 36.9343 395.864 19.4816 421.117 18.7197C423.081 18.6571 425.023 18.701 426.937 18.8429C447.47 20.3249 464.585 32.9119 469.009 49.7655C469.009 49.7676 469.011 49.7697 469.011 49.7718C469.122 50.1955 469.226 50.6213 469.322 51.0513C469.353 51.1891 469.381 51.329 469.41 51.4667C469.481 51.8091 469.552 52.1493 469.612 52.4937C469.702 52.9989 469.784 53.5082 469.85 54.0196C469.844 54.0259 469.85 54.0321 469.85 54.0447C469.875 54.2367 469.9 54.435 469.919 54.627C469.951 54.8692 469.976 55.1113 469.994 55.3514C470.019 55.6186 470.045 55.8899 470.057 56.1571C470.063 56.2385 470.07 56.3241 470.076 56.4055C470.095 56.7144 470.107 57.0255 470.113 57.3344C470.128 57.6809 470.134 58.0274 470.134 58.3739Z" fill="url(#paint50_linear_97_1399)"/>
<path d="M395.396 47.5218C397.294 42.1092 402.037 38.2246 407.641 38.1578C415.042 38.068 421.117 44.6558 421.117 52.8739C421.117 44.6579 427.263 37.9219 434.946 37.83C440.913 37.7591 446.063 41.7042 448.153 47.3611C456.161 67.7716 421.117 85.6772 421.117 85.6772C421.117 85.6772 388.252 66.7091 395.396 47.5218Z" fill="white"/>
<g opacity="0.3">
<path opacity="0.3" d="M409.865 86.9456C415.427 75.5902 409.805 64.7191 417.337 57.3422C425.101 49.74 435.36 56.9122 446.628 50.6208C451.047 48.1535 456.004 43.3985 459.718 33.5752C466.227 40.3717 470.131 48.9864 470.131 58.3713C470.131 81.0926 447.638 98.5202 421.118 97.3513C415.224 97.0924 409.648 95.9318 404.566 94.0532C407.065 91.7174 408.727 89.271 409.865 86.9456Z" fill="url(#paint51_linear_97_1399)"/>
</g>
<path d="M571.431 101.077C571.431 81.6021 553.464 66.3996 532.065 67.0968C519.879 67.4934 509.275 72.9853 502.655 81.0948C502.655 81.0927 502.653 81.0907 502.653 81.0886C502.611 81.1387 502.574 81.1909 502.532 81.2409C502.417 81.3829 502.307 81.5269 502.196 81.6709C501.991 81.9319 501.791 82.1949 501.593 82.4621C501.476 82.6207 501.363 82.7793 501.25 82.938C501.062 83.2052 500.877 83.4724 500.697 83.7437C500.593 83.8982 500.488 84.0527 500.388 84.2092C500.186 84.5223 499.993 84.8396 499.801 85.159C499.732 85.2738 499.659 85.3886 499.593 85.5055C499.342 85.9376 499.1 86.3759 498.87 86.8205C498.81 86.9374 498.753 87.0585 498.693 87.1775C498.526 87.5094 498.361 87.8454 498.204 88.1836C498.127 88.3485 498.056 88.5176 497.981 88.6846C497.849 88.9831 497.72 89.2858 497.599 89.5884C497.528 89.7638 497.457 89.9412 497.39 90.1186C497.271 90.4296 497.156 90.7428 497.048 91.0579C496.991 91.2229 496.931 91.3878 496.876 91.5527C496.745 91.9493 496.624 92.35 496.509 92.7508C496.486 92.8343 496.457 92.9178 496.434 93.0013C496.3 93.4877 496.179 93.9761 496.069 94.4708C496.035 94.6169 496.01 94.7631 495.979 94.9092C495.906 95.264 495.835 95.6189 495.774 95.9758C495.743 96.1574 495.716 96.3411 495.687 96.5248C495.636 96.8567 495.59 97.1886 495.551 97.5226C495.528 97.7105 495.507 97.8962 495.486 98.0862C495.451 98.439 495.423 98.7917 495.398 99.1466C495.388 99.3115 495.373 99.4764 495.365 99.6413C495.338 100.161 495.323 100.681 495.323 101.207C495.323 113.704 502.893 124.728 514.242 130.629C515.286 131.171 516.361 131.672 517.468 132.125C518.021 132.353 518.583 132.568 519.15 132.772C523.144 134.206 527.493 135.058 532.067 135.192C532.698 135.21 533.324 135.213 533.948 135.204C534.159 135.202 534.368 135.19 534.577 135.183C534.99 135.171 535.401 135.158 535.812 135.135C536.063 135.121 536.311 135.098 536.56 135.079C536.925 135.052 537.291 135.023 537.654 134.987C537.919 134.96 538.184 134.927 538.447 134.895C538.79 134.854 539.134 134.812 539.474 134.762C539.746 134.722 540.017 134.678 540.286 134.632C540.616 134.578 540.944 134.52 541.272 134.459C541.545 134.407 541.817 134.35 542.088 134.294C542.408 134.227 542.727 134.154 543.042 134.081C543.314 134.016 543.585 133.952 543.854 133.881C544.168 133.799 544.479 133.714 544.788 133.626C545.055 133.551 545.32 133.476 545.585 133.394C545.683 133.365 545.783 133.34 545.879 133.309C545.877 133.307 545.875 133.305 545.873 133.303C560.679 128.66 571.431 116.092 571.431 101.077Z" fill="#168D8F"/>
<path d="M568.491 101.082C568.491 120.507 550.616 135.731 529.325 135.109C508.826 134.509 492.761 119.34 492.761 101.207C492.761 83.074 508.826 67.8507 529.325 67.1848C550.616 66.4939 568.491 81.6588 568.491 101.082Z" fill="url(#paint52_linear_97_1399)"/>
<path d="M526.876 81.1244L521.141 91.6761L509.568 93.0642C507.9 93.2646 507.109 95.3457 508.232 96.594L516.049 105.286L513.385 117.249C512.992 119.008 514.698 120.463 516.276 119.708L527.166 114.483L537.734 120.895C539.302 121.847 541.233 120.557 540.995 118.714L539.375 106.242L548.529 97.9049C549.87 96.6859 549.222 94.4711 547.442 94.1601L535.425 92.0644L530.608 81.187C529.909 79.6214 527.709 79.588 526.876 81.1244Z" fill="white"/>
<g opacity="0.2">
<path opacity="0.2" d="M538.584 126.656C533.964 116.486 538.634 107.087 532.396 100.566C526.131 94.0136 518.093 100.138 509.573 94.8944C506.314 92.8885 502.715 89.0518 500.055 81.1406C495.467 86.7724 492.759 93.7192 492.759 101.209C492.759 119.342 508.824 134.511 529.323 135.11C534.129 135.25 538.766 134.58 543.069 133.229C540.945 131.013 539.54 128.762 538.584 126.656Z" fill="url(#paint53_linear_97_1399)"/>
</g>
<path d="M502.717 177.646C502.717 178.857 502.765 180.055 502.64 181.236C502.586 181.745 502.577 182.246 502.498 182.743C502.341 183.743 502.17 184.728 501.922 185.697C501.801 186.181 501.682 186.665 501.542 187.143C501.446 187.459 501.35 187.778 501.245 188.093C498.776 195.491 493.748 201.901 487.047 206.681C486.901 206.784 486.765 206.888 486.619 206.984C484.312 208.593 481.819 210.005 479.162 211.209C478.999 211.282 478.836 211.355 478.665 211.426C477.496 211.94 476.297 212.413 475.07 212.843C474.55 213.025 474.015 213.2 473.483 213.363C473.126 213.478 472.769 213.587 472.406 213.691C471.867 213.847 471.322 213.994 470.771 214.133C470.408 214.223 470.038 214.315 469.669 214.401C465.044 215.465 460.134 215.939 455.078 215.714C454.702 215.695 454.326 215.678 453.959 215.653C453.85 215.647 453.741 215.634 453.637 215.628C453.606 215.628 453.576 215.622 453.545 215.622C453.309 215.603 453.073 215.59 452.844 215.567C452.723 215.555 452.608 215.549 452.493 215.538C452.238 215.513 451.977 215.49 451.725 215.465C451.616 215.453 451.508 215.434 451.397 215.423C451.136 215.398 450.871 215.369 450.61 215.334C450.514 215.321 450.422 215.309 450.326 215.298C450.048 215.263 449.768 215.225 449.485 215.183C449.418 215.171 449.345 215.158 449.274 215.148C448.965 215.106 448.662 215.058 448.353 215.002C448.311 214.995 448.27 214.568 448.232 214.561C447.887 214.501 447.541 213.952 447.203 213.952H447.196C444.315 213.952 441.541 213.048 438.908 212.073C438.914 212.067 438.914 212.278 438.921 212.271C438.098 211.969 437.286 211.748 436.486 211.403C435.779 211.094 435.081 210.827 434.399 210.493C434.067 210.76 433.678 211.065 433.248 211.361C427.745 208.994 422.895 205.75 418.96 201.841C419.419 201.217 419.862 200.57 420.267 199.887C414.595 193.422 411.265 185.478 411.265 177.009C411.265 156.701 430.413 139.657 455.078 138.912C455.883 138.887 456.47 138.883 457.261 138.896C481.429 139.204 501.728 155.246 502.471 175.924V175.949C502.471 176.21 502.471 176.475 502.471 176.742V176.863C502.475 177.12 502.717 177.381 502.717 177.646Z" fill="url(#paint54_linear_97_1399)"/>
<path d="M499.661 177.506C499.661 199.194 478.677 215.937 453.547 215.622C452.967 215.616 452.378 215.597 451.792 215.574C451.259 215.549 450.727 215.52 450.199 215.478C449.66 215.442 449.121 215.392 448.589 215.338C448.48 215.325 448.372 215.319 448.261 215.302C447.917 215.267 447.576 215.229 447.232 215.181C446.894 215.14 446.56 215.096 446.222 215.042C445.737 214.975 445.253 214.895 444.775 214.812C444.485 214.758 444.199 214.71 443.915 214.655C441.04 214.098 438.265 213.324 435.633 212.343C434.82 212.04 434.029 211.725 433.246 211.387C427.743 209.019 422.893 205.763 418.958 201.853C412.087 195.051 407.977 186.286 407.977 176.872C407.977 156.563 427.125 139.518 451.789 138.775C453.708 138.714 455.604 138.756 457.474 138.896C477.529 140.344 494.245 152.637 498.565 169.098C498.565 169.1 498.567 169.102 498.567 169.104C498.675 169.518 498.778 169.935 498.87 170.355C498.899 170.49 498.926 170.626 498.955 170.762C499.024 171.096 499.095 171.428 499.154 171.764C499.241 172.258 499.321 172.753 499.385 173.254C499.379 173.26 499.385 173.267 499.385 173.279C499.41 173.467 499.433 173.661 499.452 173.849C499.483 174.085 499.506 174.321 499.525 174.557C499.55 174.818 499.573 175.083 499.586 175.344C499.592 175.423 499.598 175.506 499.605 175.586C499.623 175.888 499.636 176.191 499.64 176.494C499.655 176.83 499.661 177.168 499.661 177.506Z" fill="url(#paint55_linear_97_1399)"/>
<path d="M499.661 177.506C499.661 199.194 478.677 215.937 453.547 215.622C452.967 215.616 452.378 215.597 451.792 215.574C451.259 215.549 450.727 215.52 450.199 215.478C449.66 215.442 449.121 215.392 448.589 215.338C448.48 215.325 448.372 215.319 448.261 215.302C447.917 215.267 447.576 215.229 447.232 215.181C446.894 215.14 446.56 215.096 446.222 215.042C445.737 214.975 445.253 214.895 444.775 214.812C444.485 214.758 444.199 214.71 443.915 214.655C441.04 214.098 438.265 213.324 435.633 212.343C434.82 212.04 434.029 211.725 433.246 211.387C427.743 209.019 422.893 205.763 418.958 201.853C412.087 195.051 407.977 186.286 407.977 176.872C407.977 156.563 427.125 139.518 451.789 138.775C453.708 138.714 455.604 138.756 457.474 138.896C477.529 140.344 494.245 152.637 498.565 169.098C498.565 169.1 498.567 169.102 498.567 169.104C498.675 169.518 498.778 169.935 498.87 170.355C498.899 170.49 498.926 170.626 498.955 170.762C499.024 171.096 499.095 171.428 499.154 171.764C499.241 172.258 499.321 172.753 499.385 173.254C499.379 173.26 499.385 173.267 499.385 173.279C499.41 173.467 499.433 173.661 499.452 173.849C499.483 174.085 499.506 174.321 499.525 174.557C499.55 174.818 499.573 175.083 499.586 175.344C499.592 175.423 499.598 175.506 499.605 175.586C499.623 175.888 499.636 176.191 499.64 176.494C499.655 176.83 499.661 177.168 499.661 177.506Z" fill="url(#paint56_linear_97_1399)"/>
<path d="M444.027 199.163C444.117 181.391 444.685 168.451 445.24 166.896C445.357 166.566 445.57 166.138 445.842 165.406C448.814 157.373 446.539 152.147 449.126 150.404C450.274 149.629 451.729 149.98 452.942 150.27C458.773 151.669 462.587 159.859 461.289 166.09C461.086 167.059 460.796 167.808 460.627 168.213C461.03 168.228 461.343 168.236 461.654 168.251C464.266 168.376 466.9 168.338 469.487 168.66C474.663 169.305 478.506 173.801 478.441 179.015C478.406 181.808 478.427 184.637 478.005 187.386C477.331 191.78 474.533 194.821 470.859 197.09C468.727 198.407 466.458 199.286 464.051 199.647C462.654 199.856 461.573 199.837 461.007 199.823C454.879 199.683 445.355 199.228 444.027 199.163Z" fill="white"/>
<path d="M440.916 167.489C440.53 178.047 440.146 188.492 439.762 199.013C437.513 198.932 435.296 198.909 433.089 198.742C432.073 198.664 431.463 197.715 431.492 196.558C431.544 194.515 431.628 192.471 431.703 190.425C431.956 183.543 432.208 176.659 432.467 169.777C432.536 167.946 433.311 167.218 435.119 167.276C437.035 167.343 438.952 167.418 440.916 167.489Z" fill="white"/>
<g opacity="0.3">
<path opacity="0.3" d="M440.798 205.412C446.229 194.322 440.74 183.703 448.095 176.5C455.678 169.073 465.699 176.08 476.703 169.935C481.021 167.524 485.86 162.882 489.486 153.288C495.843 159.926 499.658 168.338 499.658 177.506C499.658 199.697 477.689 216.718 451.788 215.576C446.032 215.321 440.586 214.19 435.623 212.355C438.064 210.071 439.686 207.683 440.798 205.412Z" fill="url(#paint57_linear_97_1399)"/>
</g>
<path d="M522.587 0.0169301C536.686 0.44902 548.525 9.05534 550.834 19.9494C550.836 19.964 550.84 19.9787 550.842 19.9933C550.968 20.5903 551.064 21.1935 551.131 21.8009C551.135 21.8406 551.139 21.8803 551.143 21.922C551.172 22.2059 551.195 22.4919 551.212 22.7799C551.214 22.8321 551.216 22.8843 551.22 22.9365C551.235 23.2308 551.243 23.523 551.243 23.8195C551.243 36.4795 538.32 46.0731 522.589 45.2591C522.172 45.2382 521.754 45.2069 521.341 45.1714C521.301 45.1672 521.259 45.1651 521.22 45.1609C520.827 45.1255 520.439 45.0837 520.053 45.0357C519.992 45.0274 519.932 45.0211 519.871 45.0127C519.497 44.9647 519.124 44.9105 518.754 44.8499C518.685 44.8395 518.614 44.827 518.545 44.8165C518.182 44.756 517.821 44.6913 517.464 44.6182C517.391 44.6036 517.32 44.589 517.247 44.5744C516.89 44.5013 516.537 44.4241 516.184 44.3406C516.115 44.3239 516.048 44.3072 515.982 44.2905C515.633 44.2049 515.286 44.1152 514.942 44.0212C514.879 44.0045 514.819 43.9857 514.758 43.969C514.449 43.8814 514.142 43.7895 513.838 43.6935C513.76 43.6685 513.683 43.6455 513.606 43.6205C513.297 43.5203 512.99 43.4159 512.687 43.3094C512.623 43.2865 512.554 43.2656 512.489 43.2426L512.491 43.2405C502.034 39.4686 494.681 30.9813 494.681 21.4878C494.676 9.15762 507.082 -0.458995 522.587 0.0169301Z" fill="url(#paint58_linear_97_1399)"/>
<path d="M491.691 21.4878C491.691 33.8181 504.097 44.4575 519.602 45.2591C535.333 46.0731 548.256 36.4795 548.256 23.8195C548.256 11.1594 535.333 0.499118 519.602 0.0169301C504.097 -0.458995 491.691 9.15762 491.691 21.4878Z" fill="url(#paint59_linear_97_1399)"/>
<path d="M525.267 15.0026C525.267 19.3778 521.751 22.8094 517.534 22.6717C513.444 22.5381 510.219 19.0793 510.219 14.94C510.219 10.8028 513.444 7.36901 517.534 7.26881C521.751 7.16653 525.267 10.6274 525.267 15.0026Z" fill="white"/>
<path d="M506.362 34.2191C506.362 29.2595 511.248 24.7841 517.532 25.0451C524.125 25.3164 529.709 30.6455 529.709 36.0519L506.362 34.2191Z" fill="white"/>
<g opacity="0.2">
<path opacity="0.2" d="M512.759 39.1622C516.154 32.66 512.721 26.2767 517.314 22.1625C522.001 17.9648 528.12 22.2961 534.745 18.9709C537.317 17.6788 540.185 15.1238 542.321 9.70703C546.041 13.6898 548.256 18.591 548.256 23.8199C548.256 36.4799 535.333 46.0736 519.603 45.2595C516.03 45.0737 512.625 44.3682 509.5 43.2431C511.039 41.905 512.06 40.5002 512.759 39.1622Z" fill="url(#paint60_linear_97_1399)"/>
</g>
<defs>
<linearGradient id="paint0_linear_97_1399" x1="465.5" y1="244.5" x2="318.2" y2="100.052" gradientUnits="userSpaceOnUse">
<stop stop-color="#0C8B92"/>
<stop offset="0.9964" stop-color="#AA80F9"/>
</linearGradient>
<linearGradient id="paint1_linear_97_1399" x1="312.691" y1="338.195" x2="441.226" y2="214.903" gradientUnits="userSpaceOnUse">
<stop stop-color="#0C8B92"/>
<stop offset="0.9964" stop-color="#AA80F9"/>
</linearGradient>
<linearGradient id="paint2_linear_97_1399" x1="227.209" y1="264.75" x2="133.65" y2="274.958" gradientUnits="userSpaceOnUse">
<stop stop-color="#444B8C"/>
<stop offset="0.9964" stop-color="#26264F"/>
</linearGradient>
<linearGradient id="paint3_linear_97_1399" x1="222.953" y1="9.55605" x2="-48.8644" y2="745.843" gradientUnits="userSpaceOnUse">
<stop stop-color="#311944"/>
<stop offset="1" stop-color="#893976"/>
</linearGradient>
<linearGradient id="paint4_linear_97_1399" x1="275.016" y1="47.2969" x2="204.712" y2="147.408" gradientUnits="userSpaceOnUse">
<stop stop-color="#AA80F9"/>
<stop offset="0.9964" stop-color="#6165D7"/>
</linearGradient>
<linearGradient id="paint5_linear_97_1399" x1="385.303" y1="358.837" x2="339.64" y2="585.038" gradientUnits="userSpaceOnUse">
<stop stop-color="#44528E"/>
<stop offset="1" stop-color="#227783"/>
</linearGradient>
<linearGradient id="paint6_linear_97_1399" x1="115.919" y1="282.535" x2="368.755" y2="282.535" gradientUnits="userSpaceOnUse">
<stop stop-color="#AA80F9"/>
<stop offset="0.9964" stop-color="#6165D7"/>
</linearGradient>
<linearGradient id="paint7_linear_97_1399" x1="163.733" y1="298.463" x2="169.858" y2="298.463" gradientUnits="userSpaceOnUse">
<stop stop-color="#FFC444"/>
<stop offset="0.9964" stop-color="#F36F56"/>
</linearGradient>
<linearGradient id="paint8_linear_97_1399" x1="160.5" y1="335" x2="113.35" y2="337.723" gradientUnits="userSpaceOnUse">
<stop stop-color="#AA80F9"/>
<stop offset="1" stop-color="#6165D7"/>
</linearGradient>
<linearGradient id="paint9_linear_97_1399" x1="164.411" y1="205.302" x2="238.005" y2="141.681" gradientUnits="userSpaceOnUse">
<stop stop-color="#0C8B92"/>
<stop offset="0.9964" stop-color="#AA80F9"/>
</linearGradient>
<linearGradient id="paint10_linear_97_1399" x1="260.138" y1="206.832" x2="306.114" y2="582.915" gradientUnits="userSpaceOnUse">
<stop offset="0.003597" stop-color="#26264F"/>
<stop offset="1" stop-color="#444B8C"/>
</linearGradient>
<linearGradient id="paint11_linear_97_1399" x1="229.381" y1="211.96" x2="273.242" y2="570.729" gradientUnits="userSpaceOnUse">
<stop stop-color="#AA80F9"/>
<stop offset="0.9964" stop-color="#6165D7"/>
</linearGradient>
<linearGradient id="paint12_linear_97_1399" x1="132.892" y1="204.821" x2="206.104" y2="141.145" gradientUnits="userSpaceOnUse">
<stop stop-color="#0C8B92"/>
<stop offset="0.9964" stop-color="#AA80F9"/>
</linearGradient>
<linearGradient id="paint13_linear_97_1399" x1="160.15" y1="107.859" x2="384.242" y2="54.1625" gradientUnits="userSpaceOnUse">
<stop stop-color="#311944"/>
<stop offset="1" stop-color="#893976"/>
</linearGradient>
<linearGradient id="paint14_linear_97_1399" x1="162.354" y1="136.088" x2="373.22" y2="42.1901" gradientUnits="userSpaceOnUse">
<stop stop-color="#311944"/>
<stop offset="1" stop-color="#893976"/>
</linearGradient>
<linearGradient id="paint15_linear_97_1399" x1="269.048" y1="224.853" x2="423.579" y2="189.031" gradientUnits="userSpaceOnUse">
<stop stop-color="#311944"/>
<stop offset="1" stop-color="#893976"/>
</linearGradient>
<linearGradient id="paint16_linear_97_1399" x1="272.064" y1="243.3" x2="420.099" y2="185.914" gradientUnits="userSpaceOnUse">
<stop stop-color="#311944"/>
<stop offset="1" stop-color="#893976"/>
</linearGradient>
<linearGradient id="paint17_linear_97_1399" x1="208.78" y1="244.123" x2="185.336" y2="257.369" gradientUnits="userSpaceOnUse">
<stop stop-color="#FFC444"/>
<stop offset="0.9964" stop-color="#F36F56"/>
</linearGradient>
<linearGradient id="paint18_linear_97_1399" x1="86.7418" y1="519.03" x2="82.7571" y2="569.753" gradientUnits="userSpaceOnUse">
<stop stop-color="#311944"/>
<stop offset="1" stop-color="#A03976"/>
</linearGradient>
<linearGradient id="paint19_linear_97_1399" x1="76.4524" y1="547.269" x2="77.1769" y2="494.735" gradientUnits="userSpaceOnUse">
<stop stop-color="#FFC444"/>
<stop offset="0.9964" stop-color="#F36F56"/>
</linearGradient>
<linearGradient id="paint20_linear_97_1399" x1="11.4154" y1="513.112" x2="7.43061" y2="563.835" gradientUnits="userSpaceOnUse">
<stop stop-color="#311944"/>
<stop offset="1" stop-color="#A03976"/>
</linearGradient>
<linearGradient id="paint21_linear_97_1399" x1="7.41754" y1="546.317" x2="8.14201" y2="493.781" gradientUnits="userSpaceOnUse">
<stop stop-color="#FFC444"/>
<stop offset="0.9964" stop-color="#F36F56"/>
</linearGradient>
<linearGradient id="paint22_linear_97_1399" x1="63" y1="411" x2="121.071" y2="497.956" gradientUnits="userSpaceOnUse">
<stop stop-color="#311944"/>
<stop offset="1" stop-color="#893976"/>
</linearGradient>
<linearGradient id="paint23_linear_97_1399" x1="88.9925" y1="462.166" x2="50.1436" y2="462.166" gradientUnits="userSpaceOnUse">
<stop stop-color="#444B8C"/>
<stop offset="0.9964" stop-color="#3E4177"/>
</linearGradient>
<linearGradient id="paint24_linear_97_1399" x1="-91.9815" y1="462.714" x2="120.954" y2="443.146" gradientUnits="userSpaceOnUse">
<stop stop-color="#311944"/>
<stop offset="1" stop-color="#893976"/>
</linearGradient>
<linearGradient id="paint25_linear_97_1399" x1="86.4105" y1="258.185" x2="84.5518" y2="289.789" gradientUnits="userSpaceOnUse">
<stop stop-color="#FFC444"/>
<stop offset="0.9964" stop-color="#F36F56"/>
</linearGradient>
<linearGradient id="paint26_linear_97_1399" x1="85.4038" y1="277.274" x2="83.4461" y2="253.778" gradientUnits="userSpaceOnUse">
<stop offset="0.003597" stop-color="#26264F"/>
<stop offset="1" stop-color="#444B8C"/>
</linearGradient>
<linearGradient id="paint27_linear_97_1399" x1="84.6022" y1="274.002" x2="102.714" y2="293.095" gradientUnits="userSpaceOnUse">
<stop stop-color="#FFC444"/>
<stop offset="0.9964" stop-color="#F36F56"/>
</linearGradient>
<linearGradient id="paint28_linear_97_1399" x1="167.067" y1="296.272" x2="65.9843" y2="345.04" gradientUnits="userSpaceOnUse">
<stop stop-color="#AA80F9"/>
<stop offset="0.9964" stop-color="#6165D7"/>
</linearGradient>
<linearGradient id="paint29_linear_97_1399" x1="376" y1="325" x2="430.22" y2="295.749" gradientUnits="userSpaceOnUse">
<stop stop-color="#AA80F9"/>
<stop offset="0.9964" stop-color="#6165D7"/>
</linearGradient>
<linearGradient id="paint30_linear_97_1399" x1="571.375" y1="443.002" x2="609.907" y2="389.076" gradientUnits="userSpaceOnUse">
<stop stop-color="#AB316D"/>
<stop offset="1" stop-color="#792D3D"/>
</linearGradient>
<linearGradient id="paint31_linear_97_1399" x1="589.276" y1="412.876" x2="539.793" y2="487.3" gradientUnits="userSpaceOnUse">
<stop stop-color="#FFC444"/>
<stop offset="0.9964" stop-color="#F36F56"/>
</linearGradient>
<linearGradient id="paint32_linear_97_1399" x1="470.135" y1="526.944" x2="431.68" y2="580.927" gradientUnits="userSpaceOnUse">
<stop stop-color="#AB316D"/>
<stop offset="1" stop-color="#792D3D"/>
</linearGradient>
<linearGradient id="paint33_linear_97_1399" x1="459.016" y1="552.166" x2="439.976" y2="489.022" gradientUnits="userSpaceOnUse">
<stop stop-color="#FFC444"/>
<stop offset="0.9964" stop-color="#F36F56"/>
</linearGradient>
<linearGradient id="paint34_linear_97_1399" x1="434.806" y1="536.793" x2="464.636" y2="432.1" gradientUnits="userSpaceOnUse">
<stop stop-color="#444B8C"/>
<stop offset="0.9964" stop-color="#26264F"/>
</linearGradient>
<linearGradient id="paint35_linear_97_1399" x1="440.305" y1="538.361" x2="470.135" y2="433.668" gradientUnits="userSpaceOnUse">
<stop stop-color="#444B8C"/>
<stop offset="0.9964" stop-color="#26264F"/>
</linearGradient>
<linearGradient id="paint36_linear_97_1399" x1="490.656" y1="461.465" x2="531.448" y2="386.863" gradientUnits="userSpaceOnUse">
<stop stop-color="#444B8C"/>
<stop offset="0.9964" stop-color="#26264F"/>
</linearGradient>
<linearGradient id="paint37_linear_97_1399" x1="674.295" y1="357.373" x2="488.601" y2="242.309" gradientUnits="userSpaceOnUse">
<stop stop-color="#444B8C"/>
<stop offset="0.9964" stop-color="#26264F"/>
</linearGradient>
<linearGradient id="paint38_linear_97_1399" x1="487.5" y1="345" x2="444.653" y2="384.906" gradientUnits="userSpaceOnUse">
<stop stop-color="#AA80F9"/>
<stop offset="0.9964" stop-color="#6165D7"/>
</linearGradient>
<linearGradient id="paint39_linear_97_1399" x1="536.5" y1="323" x2="495.28" y2="349.646" gradientUnits="userSpaceOnUse">
<stop stop-color="#AA80F9"/>
<stop offset="0.9964" stop-color="#6165D7"/>
</linearGradient>
<linearGradient id="paint40_linear_97_1399" x1="477.13" y1="330.51" x2="457.114" y2="281.6" gradientUnits="userSpaceOnUse">
<stop stop-color="#FFC444"/>
<stop offset="0.9964" stop-color="#F36F56"/>
</linearGradient>
<linearGradient id="paint41_linear_97_1399" x1="470.602" y1="281.863" x2="429.628" y2="325.158" gradientUnits="userSpaceOnUse">
<stop stop-color="#FFC444"/>
<stop offset="0.9964" stop-color="#F36F56"/>
</linearGradient>
<linearGradient id="paint42_linear_97_1399" x1="572.356" y1="276.158" x2="576.081" y2="344.379" gradientUnits="userSpaceOnUse">
<stop stop-color="#FFC444"/>
<stop offset="0.9964" stop-color="#F36F56"/>
</linearGradient>
<linearGradient id="paint43_linear_97_1399" x1="404.715" y1="260.408" x2="423.82" y2="280.15" gradientUnits="userSpaceOnUse">
<stop stop-color="#AB316D"/>
<stop offset="1" stop-color="#792D3D"/>
</linearGradient>
<linearGradient id="paint44_linear_97_1399" x1="429.617" y1="290.595" x2="449.786" y2="311.437" gradientUnits="userSpaceOnUse">
<stop stop-color="#AB316D"/>
<stop offset="1" stop-color="#792D3D"/>
</linearGradient>
<linearGradient id="paint45_linear_97_1399" x1="438.278" y1="296.878" x2="433.266" y2="304.379" gradientUnits="userSpaceOnUse">
<stop stop-color="#FFC444"/>
<stop offset="0.9964" stop-color="#F36F56"/>
</linearGradient>
<linearGradient id="paint46_linear_97_1399" x1="426.034" y1="259.902" x2="430.903" y2="343.456" gradientUnits="userSpaceOnUse">
<stop stop-color="#444B8C"/>
<stop offset="0.9964" stop-color="#26264F"/>
</linearGradient>
<linearGradient id="paint47_linear_97_1399" x1="408.636" y1="264.841" x2="396.969" y2="257.843" gradientUnits="userSpaceOnUse">
<stop stop-color="#AB316D"/>
<stop offset="1" stop-color="#792D3D"/>
</linearGradient>
<linearGradient id="paint48_linear_97_1399" x1="494.051" y1="-110.442" x2="353.504" y2="240.982" gradientUnits="userSpaceOnUse">
<stop stop-color="#311944"/>
<stop offset="1" stop-color="#893976"/>
</linearGradient>
<linearGradient id="paint49_linear_97_1399" x1="405.74" y1="25.612" x2="470.409" y2="145.573" gradientUnits="userSpaceOnUse">
<stop stop-color="#FF9085"/>
<stop offset="1" stop-color="#FB6FBB"/>
</linearGradient>
<linearGradient id="paint50_linear_97_1399" x1="405.74" y1="25.612" x2="470.409" y2="145.573" gradientUnits="userSpaceOnUse">
<stop stop-color="#FF9085"/>
<stop offset="1" stop-color="#FB6FBB"/>
</linearGradient>
<linearGradient id="paint51_linear_97_1399" x1="457.97" y1="32.4606" x2="394.581" y2="159.686" gradientUnits="userSpaceOnUse">
<stop stop-color="#FF9085"/>
<stop offset="1" stop-color="#FB6FBB"/>
</linearGradient>
<linearGradient id="paint52_linear_97_1399" x1="490.5" y1="99" x2="532.124" y2="68.1424" gradientUnits="userSpaceOnUse">
<stop offset="0.9964" stop-color="#AA80F9"/>
</linearGradient>
<linearGradient id="paint53_linear_97_1399" x1="500.916" y1="80.5068" x2="553.902" y2="186.853" gradientUnits="userSpaceOnUse">
<stop stop-color="#FFC444"/>
<stop offset="0.9964" stop-color="#F36F56"/>
</linearGradient>
<linearGradient id="paint54_linear_97_1399" x1="482.729" y1="113.343" x2="345.461" y2="456.568" gradientUnits="userSpaceOnUse">
<stop stop-color="#444B8C"/>
<stop offset="0.9964" stop-color="#26264F"/>
</linearGradient>
<linearGradient id="paint55_linear_97_1399" x1="436.77" y1="145.509" x2="499.931" y2="262.671" gradientUnits="userSpaceOnUse">
<stop stop-color="#FF9085"/>
<stop offset="1" stop-color="#FB6FBB"/>
</linearGradient>
<linearGradient id="paint56_linear_97_1399" x1="436.77" y1="145.509" x2="499.931" y2="262.671" gradientUnits="userSpaceOnUse">
<stop stop-color="#AA80F9"/>
<stop offset="0.9964" stop-color="#6165D7"/>
</linearGradient>
<linearGradient id="paint57_linear_97_1399" x1="487.781" y1="152.198" x2="425.871" y2="276.455" gradientUnits="userSpaceOnUse">
<stop stop-color="#AA80F9"/>
<stop offset="0.9964" stop-color="#6165D7"/>
</linearGradient>
<linearGradient id="paint58_linear_97_1399" x1="494.229" y1="15.8667" x2="537.036" y2="25.9803" gradientUnits="userSpaceOnUse">
<stop stop-color="#311944"/>
<stop offset="1" stop-color="#893976"/>
</linearGradient>
<linearGradient id="paint59_linear_97_1399" x1="529.908" y1="4.2458" x2="493.217" y2="72.3074" gradientUnits="userSpaceOnUse">
<stop offset="0.00359712" stop-color="#E38DDD"/>
<stop offset="1" stop-color="#9571F6"/>
</linearGradient>
<linearGradient id="paint60_linear_97_1399" x1="540.665" y1="8.74276" x2="504.71" y2="80.9072" gradientUnits="userSpaceOnUse">
<stop offset="0.00359712" stop-color="#E38DDD"/>
<stop offset="1" stop-color="#9571F6"/>
</linearGradient>
</defs>
</svg>
