<svg width="500" height="500" viewBox="0 0 572 567" fill="none" xmlns="http://www.w3.org/2000/svg">
<path d="M186.011 222.742C183.609 219.501 181.237 210.329 181.604 207.684C184.05 190.079 186.491 156.818 200.77 144.602C203.209 142.515 215.284 150.766 218.794 150.173C227.77 153.563 230.672 155.297 240.789 154.331C270.657 151.476 272.914 90.2294 318.431 115.137C351.772 133.382 364.021 164.112 401.874 122.249C439.727 80.3884 544.608 41.3856 557.557 111.448C564.989 151.658 506.471 159.917 493.208 197.058C480.605 232.35 450.834 241.266 411.594 229.557C372.355 217.848 374.412 242.304 358.626 271.886C339.663 307.421 293.893 269.682 274.248 250.458C258.432 234.978 207.707 206.228 186.011 222.742Z" fill="url(#paint0_linear_97_158)"/>
<path d="M190.37 177.624L190.666 176.82C314.812 222.243 452.458 189.099 558.868 88.1603L559.46 88.7837C509.029 136.621 449.264 170.454 386.629 186.623C320.778 203.62 252.913 200.51 190.37 177.624Z" fill="#F2F2F2" fill-opacity="0.2"/>
<path d="M352.442 287.561C336.73 255.001 297.092 213.4 264.083 194.831L264.503 194.083C297.643 212.728 337.439 254.494 353.215 287.189L352.442 287.561Z" fill="#FCFDFE"/>
<path d="M214.841 186.262L214.902 185.406C234.541 186.783 254.124 178.179 273.102 159.834C287.019 146.383 300.294 128.104 312.557 105.505L313.31 105.915C301.004 128.591 287.678 146.94 273.698 160.451C254.538 178.974 234.735 187.657 214.841 186.262Z" fill="#FCFDFE"/>
<path d="M395.43 183.98L395.445 183.122C432.6 183.812 464.327 206.622 484.402 225.634L483.812 226.257C463.847 207.35 432.31 184.666 395.43 183.98Z" fill="#FCFDFE"/>
<path d="M474.129 151.695L473.58 151.037C505.757 124.259 515.595 81.4378 518.596 58.2961L519.448 58.4065C516.43 81.6725 506.53 124.731 474.129 151.695Z" fill="#F2F2F2" fill-opacity="0.2"/>
<path d="M124.032 461.961C103.84 449.212 83.889 435.977 64.1963 422.262C63.7051 422.423 77.4359 372.341 110.654 357.604C175.902 329.456 165.171 273.484 167.941 244.365C170.362 202.678 194.58 167.105 231.214 182.656C272.197 199.115 309.117 135.58 328.732 71.593C336.211 39.4625 380.103 15.9065 411.642 20.0567C444.156 23.5777 464.321 54.8029 446.851 117.713C429.727 191.927 361.542 211.043 327.868 237.132C294.768 262.723 324.996 308.697 277.733 323.424C237.351 337.226 192.817 340.275 191.266 379.405C190.244 418.317 175.071 443.776 124.032 461.961Z" fill="url(#paint1_linear_97_158)"/>
<path d="M92.8262 451.455C93.0057 451.035 157.436 361.393 235.682 281.003C247.492 267.623 259.792 254.291 271.686 241.398C337.932 169.598 400.502 101.779 410.587 0L412.003 0.14005C401.869 102.394 339.143 170.381 272.732 242.361C260.842 255.247 248.547 268.574 236.724 281.967C158.054 362.794 94.4439 451.481 94.1105 452.061L92.8262 451.455Z" fill="#F2F2F2" fill-opacity="0.2"/>
<path d="M332.606 174.652L332.026 173.354C367.955 157.28 413.859 132.142 438.519 118.638C458.479 107.708 458.532 107.738 459.147 108.138L458.763 108.736L458.816 109.432C457.898 109.647 449.648 114.164 439.202 119.884C414.524 133.398 368.589 158.554 332.606 174.652Z" fill="#F2F2F2" fill-opacity="0.2"/>
<path d="M355.83 140.918C364.396 108.215 360.766 82.5663 356.21 66.8078C351.249 49.6428 343.894 39.502 342.771 38.7426L343.081 38.285L342.927 37.4032C343.348 37.3303 343.677 37.5867 344.137 38.0877C350.73 45.2539 372.269 83.7715 357.205 141.277L355.83 140.918Z" fill="#F2F2F2" fill-opacity="0.2"/>
<path d="M187.868 335.161L186.645 334.435C220.964 276.63 204.755 201.32 196.191 171.624C195.731 170.028 195.583 169.511 195.558 169.263L196.972 169.109L196.266 169.186L196.972 169.105C196.998 169.281 197.258 170.184 197.56 171.229C203.735 192.645 207.485 213.943 208.705 234.528C211.042 274.075 204.033 307.932 187.868 335.161Z" fill="#0FB7C0"/>
<path d="M210.846 309.516L210.043 308.342C254.42 278.03 310.211 299.142 311.052 299.633C311.056 299.635 311.058 299.637 311.06 299.639L311.275 300.462L310.547 300.904L310.612 300.201L310.282 300.821C309.771 300.576 254.781 279.506 210.846 309.516ZM310.679 299.485L310.614 300.192L310.679 299.485Z" fill="#0FB7C0"/>
<path d="M103.588 436.912C109.534 424.731 114.46 401.649 104.178 360.868C103.594 358.555 103.594 358.555 103.791 358.241L104.996 358.998L104.395 358.62L105.101 358.612C105.119 358.778 105.324 359.586 105.559 360.523C115.948 401.722 110.917 425.143 104.868 437.539L103.588 436.912Z" fill="#0FB7C0"/>
<path d="M120.69 416.62L119.601 415.705C135.797 396.451 173.79 393.958 194.996 394.185C195.669 394.193 196.101 394.199 196.261 394.189L196.341 395.609C196.17 395.619 195.704 395.615 194.98 395.607C174.027 395.382 136.51 397.814 120.69 416.62Z" fill="#0FB7C0"/>
<path d="M37.8286 496.056C26.9327 496.693 18.0273 489.077 18.0273 479.078V118.689C18.0273 108.69 26.9327 100.877 37.8286 101.274L552.096 119.932C560.428 120.234 567.179 127.548 567.179 136.235V449.376C567.179 458.065 560.428 465.527 552.096 466.014L37.8286 496.056Z" fill="url(#paint2_linear_97_158)"/>
<path d="M373.11 535.946C364.889 533.086 358.746 525.768 357.013 516.773L345.05 454.658L242.71 458.471L230.115 523.18C228.352 532.242 235.412 541.335 243.544 544.673L286.361 562.246C294.325 565.515 302.885 566.817 311.392 566.053L401.879 557.932C404.525 557.696 406.646 555.514 406.953 552.715C407.261 549.916 409.114 546.774 406.592 545.896L373.11 535.946Z" fill="url(#paint3_linear_97_158)"/>
<path d="M374.123 532.169C365.912 529.344 359.774 522.119 358.042 513.237L346.091 451.903L246.246 455.671L233.663 519.567C231.902 528.516 236.563 537.489 244.688 540.785L287.462 558.137C295.419 561.364 303.969 562.651 312.47 561.897L402.867 553.879C405.508 553.644 407.629 551.49 407.937 548.727C408.245 545.963 406.654 543.355 404.135 542.489L374.123 532.169Z" fill="url(#paint4_linear_97_158)"/>
<path d="M41.8989 496.056C31.005 496.693 22.0977 489.077 22.0977 479.078V118.689C22.0977 108.69 31.003 100.877 41.8989 101.274L556.167 119.932C564.498 120.234 571.249 127.548 571.249 136.235V449.376C571.249 458.065 564.498 465.527 556.167 466.014L41.8989 496.056Z" fill="url(#paint5_linear_97_158)"/>
<path d="M556.168 127.297L41.9023 109.675C36.0766 109.475 31.3418 113.643 31.3418 118.985V399.376V478.581C31.3418 483.923 36.0766 487.986 41.9023 487.657L556.17 458.651C560.635 458.398 564.247 454.418 564.247 449.757V378.193V136.012C564.247 131.353 560.635 127.451 556.168 127.297Z" fill="url(#paint6_linear_97_158)"/>
<path d="M41.8995 457.016C39.6307 457.126 37.7842 455.526 37.7842 453.449V119.19C37.7842 117.113 39.6307 115.482 41.8995 115.557L556.168 132.453C557.91 132.511 559.324 134.037 559.324 135.854V428.335C559.324 430.154 557.908 431.702 556.168 431.787L41.8995 457.016Z" fill="#1B1B1B"/>
<path d="M538.655 413.768L64.459 434.588V165.513L538.655 175.465V413.768Z" fill="url(#paint7_linear_97_158)"/>
<path d="M538.655 167.324L64.459 156.321V133.341L538.655 146.971V167.324Z" fill="url(#paint8_linear_97_158)"/>
<path d="M502.637 156.213C502.637 157.666 501.493 158.814 500.08 158.779C498.666 158.743 497.52 157.534 497.52 156.078C497.52 154.623 498.666 153.475 500.08 153.512C501.493 153.55 502.637 154.759 502.637 156.213Z" fill="#2C3939"/>
<path d="M513.133 156.485C513.133 157.935 511.995 159.081 510.59 159.045C509.183 159.01 508.043 157.804 508.043 156.353C508.043 154.901 509.183 153.755 510.59 153.794C511.995 153.832 513.133 155.035 513.133 156.485Z" fill="#2C3939"/>
<path d="M523.565 156.757C523.565 158.203 522.433 159.345 521.036 159.31C519.637 159.274 518.505 158.073 518.505 156.625C518.505 155.177 519.639 154.035 521.036 154.072C522.435 154.11 523.565 155.311 523.565 156.757Z" fill="#2C3939"/>
<g opacity="0.68">
<path opacity="0.68" d="M442.682 370.822L74.8037 382.371V172.502L442.682 179.621V370.822Z" fill="#2C3939"/>
</g>
<path opacity="0.68" d="M533.591 235.205L449.114 234.808V179.745L533.591 181.38V235.205Z" fill="#2C3939"/>
<path d="M533.591 245.065L449.114 244.894V240.771L533.591 241.036V245.065Z" fill="#2C3939"/>
<path d="M502.158 252.022L449.114 252.017V247.892L502.158 247.957V252.022Z" fill="#2C3939"/>
<path opacity="0.68" d="M533.591 314.165L449.114 315.581V260.52L533.591 260.341V314.165Z" fill="#2C3939"/>
<path d="M533.591 324.026L449.114 325.669V321.546L533.591 319.996V324.026Z" fill="#2C3939"/>
<path d="M502.158 331.657L449.114 332.79V328.667L502.158 327.594V331.657Z" fill="#2C3939"/>
<path opacity="0.68" d="M533.591 393.125L449.114 396.356V341.293L533.591 339.301V393.125Z" fill="#2C3939"/>
<path d="M533.591 402.986L449.114 406.442V402.319L533.591 398.956V402.986Z" fill="#2C3939"/>
<path d="M502.158 411.292L449.114 413.565V409.442L502.158 407.229V411.292Z" fill="#2C3939"/>
<path d="M329.387 396.569L74.8037 406.016V392.22L329.387 383.622V396.569Z" fill="#2C3939"/>
<path d="M442.682 392.364L406.358 393.713V381.022L442.682 379.795V392.364Z" fill="#2C3939"/>
<path d="M400.749 393.92L363.61 395.299V382.466L400.749 381.211V393.92Z" fill="#2C3939"/>
<path d="M191.275 417.899L74.8037 422.69V415.792L191.275 411.194V417.899Z" fill="#2C3939"/>
<path d="M54.294 531.39L51.8931 528.875C48.0638 524.863 48.3696 518.551 52.5777 514.785L217.533 367.173L232.59 384.294L68.7686 531.81C64.5902 535.57 58.1095 535.388 54.294 531.39Z" fill="url(#paint9_linear_97_158)"/>
<path d="M383.492 224.882C341.885 173.677 268.108 165.41 218.791 208.199C168.569 251.772 164.518 329.961 209.594 380.986C253.611 430.814 327.058 434.641 373.817 391.281C419.768 348.668 424.152 274.923 383.492 224.882ZM223.936 368.11C186.395 325.322 189.824 259.972 231.695 223.44C272.935 187.461 334.874 194.101 369.972 237.017C404.398 279.109 400.737 341.327 361.876 377.179C322.441 413.563 260.737 410.054 223.936 368.11Z" fill="url(#paint10_linear_97_158)"/>
<path opacity="0.3" d="M217.531 367.171L196.499 385.991C198.442 394.581 197.251 400.572 195.227 404.822C187.612 420.816 165.903 417.295 148.433 440.008C139.668 451.408 143.645 454.226 134.758 463.466C120.064 478.739 107.387 472.902 94.4647 486.596C81.3948 500.445 86.238 515.028 76.9086 518.75C72.9175 520.344 66.5927 519.835 56.0242 511.694L52.5738 514.781C48.3657 518.547 48.0599 524.859 51.8892 528.871L54.2901 531.386C58.1075 535.384 64.5863 535.566 68.7647 531.804L232.586 384.288L217.531 367.171Z" fill="url(#paint11_linear_97_158)"/>
<path d="M389.52 228.133C347.914 176.928 274.136 168.661 224.819 211.449C174.597 255.022 170.547 333.212 215.622 384.237C259.64 434.065 333.086 437.892 379.846 394.532C425.797 351.917 430.18 278.172 389.52 228.133ZM229.966 371.36C192.425 328.572 195.854 263.222 237.725 226.691C278.965 190.712 340.904 197.352 376.003 240.268C410.428 282.36 406.767 344.577 367.906 380.43C328.471 416.813 266.765 413.304 229.966 371.36Z" fill="url(#paint12_linear_97_158)"/>
<path d="M384.749 232.417C345.436 184.147 275.847 176.468 229.395 216.85C182.14 257.93 178.308 331.565 220.704 379.675C262.163 426.719 331.457 430.446 375.634 389.555C419.088 349.329 423.215 279.65 384.749 232.417ZM229.967 371.36C192.426 328.572 195.855 263.222 237.726 226.691C278.966 190.712 340.905 197.352 376.003 240.268C410.429 282.36 406.767 344.577 367.907 380.43C328.472 416.813 266.766 413.304 229.967 371.36Z" fill="url(#paint13_linear_97_158)"/>
<path d="M238.897 144.932C245.462 148.264 253.709 145.202 257.315 138.095C260.923 130.988 258.524 122.526 251.961 119.194C251.621 119.021 251.274 118.877 250.925 118.739C252.144 114.805 253.062 110.843 253.679 106.878C254.056 106.876 254.433 106.87 254.817 106.836C262.306 106.168 268.248 99.2856 268.091 91.4645C267.933 83.6434 261.732 77.8461 254.243 78.5148C253.853 78.5503 253.468 78.6115 253.085 78.6805C252.302 74.8045 251.231 71.0192 249.877 67.3542C250.223 67.153 250.564 66.9439 250.899 66.7092C257.305 62.2197 259.353 53.3611 255.47 46.9228C251.588 40.4844 243.249 38.9044 236.841 43.3939C236.514 43.6247 236.204 43.8732 235.898 44.1237C233.367 41.3267 230.591 38.7348 227.586 36.3697C227.798 36.0225 228.005 35.6734 228.19 35.3045C231.798 28.1975 236.512 20.4336 229.897 17.2046C214.591 9.7366 208.026 16.1335 204.418 23.2405C204.23 23.6094 204.07 23.9822 203.915 24.357C200.231 23.3293 196.501 22.6192 192.748 22.2286C192.772 21.8341 192.79 21.4377 192.782 21.0372C192.624 13.2161 194.944 8.98309 187.426 8.8391C171.032 8.52349 165.504 15.6384 165.661 23.4595C165.669 23.8678 165.705 24.2682 165.744 24.6647C161.988 25.7358 158.299 27.1047 154.708 28.7617C154.537 28.4125 154.361 28.0654 154.158 27.73C150.275 21.2917 141.936 19.7117 135.529 24.2012C129.123 28.6907 127.075 37.5493 130.958 43.9876C131.157 44.317 131.374 44.6267 131.595 44.9305C128.758 47.769 126.1 50.8501 123.646 54.156C123.329 53.9568 123.007 53.7615 122.666 53.5899C116.1 50.2583 107.854 53.3197 104.247 60.4267C100.639 67.5337 103.038 75.9959 109.602 79.3275C109.941 79.5011 110.288 79.6451 110.637 79.7831C109.418 83.7164 108.499 87.6792 107.883 91.644C107.507 91.646 107.13 91.6519 106.747 91.6854C99.2582 92.3541 93.3141 99.2362 93.4739 107.057C93.6317 114.878 99.8323 120.676 107.321 120.007C107.712 119.971 108.096 119.91 108.479 119.843C109.262 123.719 110.336 127.505 111.687 131.17C111.342 131.371 111 131.58 110.665 131.815C104.259 136.304 102.211 145.163 106.094 151.601C109.977 158.039 122.824 161.03 129.229 156.54C129.557 156.309 125.359 154.653 125.664 154.4C128.196 157.197 130.971 159.789 133.976 162.154C133.765 162.499 133.558 162.85 133.372 163.219C129.764 170.326 132.163 178.788 138.727 182.12C145.292 185.452 153.538 182.39 157.145 175.283C157.332 174.914 157.492 174.542 157.648 174.167C161.331 175.194 165.062 175.905 168.814 176.295C168.79 176.69 168.773 177.086 168.781 177.487C168.938 185.308 175.139 191.105 182.628 190.436C190.117 189.768 196.061 182.885 195.901 175.064C195.893 174.656 195.858 174.256 195.818 173.859C199.574 172.788 203.264 171.419 206.854 169.762C207.026 170.111 207.201 170.458 207.404 170.794C211.287 177.232 219.626 178.812 226.034 174.323C232.44 169.833 234.487 160.974 230.607 154.536C230.408 154.207 230.191 153.899 229.97 153.593C232.807 150.755 235.464 147.674 237.918 144.368C238.234 144.565 238.555 144.758 238.897 144.932ZM157.066 145.985C133.23 133.89 124.526 103.166 137.624 77.3609C150.721 51.5562 180.663 40.441 204.499 52.5346C228.334 64.6302 237.038 95.3523 223.941 121.159C210.841 146.964 180.902 158.079 157.066 145.985Z" fill="#26264F"/>
<path d="M254.815 106.834C262.303 106.166 268.246 99.2836 268.088 91.4625C267.93 83.6414 261.729 77.8441 254.241 78.5128C253.85 78.5483 253.465 78.6095 253.083 78.6785C252.299 74.8025 251.228 71.0172 249.875 67.3523C250.22 67.1511 250.561 66.942 250.897 66.7072C257.302 62.2178 265.227 51.3708 260.707 45.3645C252.126 33.9652 243.248 38.9025 236.84 43.39C236.513 43.6207 236.203 43.8693 235.897 44.1198C233.366 41.3227 230.59 38.7308 227.586 36.3658C227.797 36.0206 228.004 35.6695 228.189 35.3006C230.152 31.4325 230.326 27.1679 229.028 23.5424C222.841 34.4347 216.737 45.3724 210.744 56.3692C229.76 70.2972 235.818 97.749 223.938 121.155C213.871 140.991 193.852 152.13 174.304 150.739C173.432 153 172.576 155.274 171.642 157.513C169.109 163.59 166.233 169.541 163.351 175.486C165.164 175.828 166.985 176.096 168.809 176.287C168.786 176.682 168.768 177.078 168.776 177.479C168.934 185.3 173.684 191.943 187.257 191.221C194.766 190.821 196.054 182.877 195.896 175.056C195.888 174.648 195.855 174.248 195.813 173.851C199.57 172.78 203.259 171.409 206.849 169.754C207.021 170.103 207.197 170.451 207.4 170.786C211.282 177.224 224.743 179.958 231.151 175.469C237.558 170.979 234.483 160.967 230.6 154.528C230.401 154.199 230.184 153.889 229.963 153.585C232.8 150.747 235.457 147.666 237.911 144.36C238.229 144.559 238.551 144.754 238.892 144.926C245.458 148.258 253.704 145.196 257.31 138.089C260.919 130.982 258.52 122.52 251.956 119.188C251.617 119.015 251.269 118.871 250.92 118.733C252.139 114.8 253.057 110.837 253.674 106.872C254.053 106.874 254.43 106.868 254.815 106.834Z" fill="#26264F"/>
<path d="M245.953 145.733C252.519 149.064 260.765 146.003 264.372 138.896C267.98 131.789 265.581 123.327 259.017 119.995C258.678 119.824 258.331 119.678 257.982 119.54C259.201 115.606 260.12 111.643 260.736 107.679C261.112 107.677 261.489 107.671 261.874 107.637C269.363 106.969 275.305 100.086 275.147 92.2653C274.989 84.4443 268.789 78.647 261.3 79.3157C260.909 79.3512 260.525 79.4123 260.142 79.4814C259.359 75.6053 258.285 71.8201 256.934 68.1551C257.279 67.9539 257.621 67.7448 257.956 67.5101C264.362 63.0206 266.409 54.162 262.527 47.7236C258.644 41.2853 250.305 39.7053 243.898 44.1948C243.57 44.4255 243.26 44.6741 242.955 44.9246C240.423 42.1275 237.648 39.5356 234.643 37.1706C234.854 36.8254 235.061 36.4743 235.249 36.1054C238.857 28.9984 236.458 20.5362 229.894 17.2046C223.329 13.873 215.082 16.9344 211.476 24.0414C211.289 24.4103 211.129 24.7831 210.973 25.1579C207.29 24.1302 203.559 23.4201 199.807 23.0295C199.831 22.635 199.848 22.2385 199.84 21.8381C199.683 14.017 193.482 8.21975 185.993 8.88843C178.504 9.55712 172.562 16.4393 172.72 24.2604C172.728 24.6687 172.763 25.0691 172.803 25.4656C169.047 26.5367 165.357 27.9076 161.767 29.5625C161.595 29.2134 161.42 28.8662 161.216 28.5309C157.336 22.0926 148.995 20.5126 142.587 25.002C136.181 29.4915 134.134 38.3502 138.016 44.7885C138.215 45.1179 138.432 45.4276 138.653 45.7314C135.816 48.5698 133.159 51.6509 130.705 54.9569C130.387 54.7577 130.066 54.5624 129.724 54.3908C123.159 51.0592 114.912 54.1205 111.306 61.2276C107.698 68.3346 110.097 76.7968 116.66 80.1284C117 80.3019 117.347 80.4459 117.696 80.584C116.477 84.5172 115.557 88.4801 114.942 92.4448C114.565 92.4468 114.188 92.4527 113.804 92.4863C106.315 93.155 100.373 100.037 100.53 107.858C100.688 115.679 106.889 121.477 114.378 120.808C114.768 120.772 115.153 120.711 115.536 120.644C116.319 124.52 117.392 128.305 118.744 131.97C118.398 132.172 118.057 132.381 117.722 132.615C111.316 137.105 109.268 145.964 113.151 152.402C117.033 158.84 125.372 160.42 131.778 155.931C132.105 155.7 132.415 155.451 132.721 155.201C135.252 157.998 138.028 160.59 141.033 162.955C140.821 163.302 140.614 163.651 140.429 164.02C136.821 171.127 139.219 179.589 145.783 182.921C152.349 186.252 160.595 183.191 164.201 176.084C164.389 175.715 164.549 175.342 164.704 174.968C168.388 175.995 172.118 176.705 175.871 177.096C175.847 177.49 175.829 177.887 175.837 178.287C175.995 186.108 182.195 191.906 189.684 191.237C197.173 190.568 203.115 183.686 202.957 175.865C202.95 175.457 202.916 175.056 202.875 174.66C206.631 173.589 210.32 172.22 213.911 170.563C214.082 170.912 214.26 171.259 214.461 171.595C218.344 178.033 226.683 179.613 233.088 175.123C239.496 170.634 241.542 161.775 237.661 155.337C237.462 155.008 237.245 154.698 237.024 154.394C239.861 151.556 242.519 148.475 244.973 145.169C245.292 145.366 245.614 145.559 245.953 145.733ZM164.124 146.786C140.289 134.691 131.585 103.968 144.682 78.1617C157.78 52.3571 187.721 41.2419 211.557 53.3355C235.393 65.431 244.097 96.1532 230.999 121.96C217.9 147.766 187.96 158.88 164.124 146.786Z" fill="url(#paint14_linear_97_158)"/>
<path d="M107.82 259.518C112.643 261.966 118.7 259.715 121.35 254.496C123.999 249.275 122.239 243.059 117.416 240.611C117.165 240.485 116.911 240.379 116.656 240.276C117.552 237.386 118.227 234.475 118.678 231.563C118.954 231.563 119.233 231.558 119.515 231.532C125.017 231.041 129.381 225.985 129.266 220.239C129.15 214.493 124.597 210.234 119.095 210.726C118.807 210.751 118.524 210.797 118.244 210.846C117.67 208 116.881 205.218 115.887 202.526C116.139 202.378 116.392 202.224 116.638 202.052C121.344 198.754 122.849 192.247 119.996 187.517C117.145 182.787 111.018 181.627 106.313 184.925C106.072 185.095 105.845 185.276 105.62 185.461C103.76 183.406 101.722 181.503 99.5143 179.765C99.6702 179.51 99.8221 179.252 99.9582 178.982C102.608 173.76 106.072 168.058 101.211 165.687C89.9678 160.201 85.1442 164.9 82.4948 170.121C82.3567 170.391 82.2383 170.666 82.1258 170.942C79.4211 170.186 76.6789 169.665 73.9228 169.377C73.9406 169.087 73.9524 168.796 73.9485 168.502C73.8321 162.758 75.5366 159.647 70.0147 159.54C57.9725 159.308 53.9105 164.535 54.0269 170.281C54.0328 170.581 54.0585 170.875 54.0881 171.167C51.3281 171.954 48.6194 172.96 45.9797 174.177C45.8535 173.92 45.7233 173.666 45.5753 173.419C42.7246 168.689 36.597 167.529 31.8898 170.827C27.1827 174.125 25.6794 180.633 28.5321 185.363C28.6781 185.605 28.8379 185.832 28.9997 186.055C26.9164 188.14 24.9633 190.403 23.1601 192.831C22.9273 192.685 22.6906 192.541 22.44 192.415C17.6184 189.967 11.5599 192.215 8.91039 197.437C6.26089 202.658 8.02065 208.873 12.8442 211.321C13.0947 211.448 13.3492 211.554 13.6057 211.657C12.71 214.546 12.0353 217.458 11.5836 220.369C11.3074 220.369 11.0292 220.375 10.7491 220.399C5.24685 220.89 0.880995 225.946 0.997392 231.692C1.11379 237.438 5.66707 241.696 11.1693 241.205C11.4573 241.18 11.7394 241.134 12.0196 241.085C12.5956 243.931 13.3828 246.712 14.3771 249.405C14.1246 249.553 13.872 249.707 13.6254 249.878C8.91828 253.176 7.41499 259.684 10.2677 264.414C13.1184 269.144 22.5564 271.34 27.2636 268.041C27.5043 267.872 24.4207 266.655 24.6456 266.469C26.506 268.525 28.5439 270.428 30.7515 272.166C30.5976 272.42 30.4438 272.677 30.3076 272.949C27.6581 278.17 29.4179 284.386 34.2414 286.834C39.065 289.282 45.1216 287.033 47.7711 281.812C47.9092 281.541 48.0275 281.267 48.14 280.991C50.8447 281.747 53.587 282.267 56.343 282.555C56.3252 282.845 56.3134 283.137 56.3193 283.431C56.4357 289.175 60.989 293.436 66.4912 292.945C71.9934 292.453 76.3593 287.398 76.2429 281.652C76.237 281.352 76.2113 281.058 76.1817 280.766C78.9417 279.979 81.6524 278.973 84.29 277.756C84.4163 278.013 84.5465 278.267 84.6944 278.514C87.5452 283.244 93.6728 284.404 98.378 281.106C103.085 277.807 104.588 271.3 101.736 266.57C101.59 266.327 101.43 266.1 101.266 265.878C103.349 263.793 105.303 261.53 107.106 259.102C107.335 259.25 107.571 259.392 107.82 259.518ZM47.7079 260.293C30.1991 251.409 23.8032 228.839 33.4247 209.881C43.0462 190.925 65.0412 182.759 82.55 191.645C100.061 200.53 106.455 223.099 96.8332 242.057C87.2118 261.011 65.2168 269.178 47.7079 260.293Z" fill="#26264F"/>
<path d="M119.513 231.532C125.015 231.041 129.379 225.985 129.264 220.239C129.148 214.493 124.595 210.235 119.092 210.726C118.804 210.751 118.522 210.797 118.242 210.846C117.668 208 116.879 205.218 115.885 202.526C116.137 202.378 116.39 202.224 116.636 202.052C121.341 198.754 127.163 190.787 123.843 186.375C117.538 178.001 111.018 181.627 106.311 184.925C106.07 185.095 105.843 185.276 105.618 185.461C103.758 183.406 101.72 181.503 99.5122 179.765C99.668 179.51 99.82 179.254 99.9561 178.982C101.398 176.139 101.524 173.007 100.572 170.344C96.0262 178.345 91.544 186.381 87.1406 194.458C101.11 204.69 105.561 224.855 96.8331 242.049C89.437 256.626 74.7315 264.811 60.3714 263.789C59.7302 265.45 59.1028 267.12 58.4163 268.765C56.5559 273.229 54.441 277.602 52.3262 281.97C53.6578 282.22 54.9954 282.417 56.3369 282.557C56.3192 282.847 56.3073 283.139 56.3132 283.433C56.4296 289.179 59.9196 294.059 69.8902 293.529C75.4062 293.235 76.3532 287.4 76.2368 281.654C76.2309 281.354 76.2052 281.06 76.1756 280.768C78.9356 279.981 81.6463 278.975 84.284 277.758C84.4102 278.015 84.5404 278.269 84.6884 278.516C87.5391 283.246 97.4289 285.254 102.136 281.956C106.843 278.658 104.584 271.302 101.732 266.572C101.586 266.329 101.426 266.103 101.262 265.88C103.345 263.795 105.298 261.532 107.102 259.104C107.334 259.25 107.571 259.394 107.822 259.52C112.645 261.968 118.702 259.719 121.351 254.498C124.001 249.277 122.241 243.061 117.418 240.613C117.167 240.487 116.912 240.381 116.656 240.278C117.552 237.388 118.226 234.477 118.678 231.565C118.954 231.561 119.231 231.558 119.513 231.532Z" fill="#26264F"/>
<path d="M113.007 260.108C117.831 262.556 123.888 260.307 126.537 255.086C129.187 249.865 127.427 243.649 122.603 241.201C122.353 241.075 122.098 240.969 121.842 240.866C122.737 237.976 123.412 235.065 123.864 232.153C124.14 232.153 124.418 232.147 124.7 232.122C130.203 231.631 134.566 226.575 134.452 220.829C134.336 215.083 129.782 210.824 124.28 211.316C123.992 211.341 123.71 211.387 123.43 211.436C122.854 208.589 122.067 205.808 121.072 203.116C121.325 202.968 121.577 202.814 121.824 202.642C126.529 199.344 128.034 192.837 125.182 188.107C122.331 183.377 116.203 182.217 111.496 185.515C111.256 185.684 111.029 185.866 110.804 186.051C108.943 183.996 106.905 182.092 104.698 180.355C104.854 180.1 105.006 179.842 105.142 179.572C107.791 174.35 106.031 168.135 101.208 165.687C96.3844 163.239 90.3278 165.488 87.6783 170.709C87.5402 170.979 87.4218 171.253 87.3094 171.53C84.6047 170.774 81.8624 170.253 79.1064 169.965C79.1241 169.675 79.136 169.383 79.1301 169.09C79.0137 163.344 74.4604 159.085 68.9582 159.576C63.456 160.067 59.0921 165.123 59.2065 170.869C59.2124 171.169 59.2381 171.462 59.2677 171.754C56.5077 172.541 53.799 173.547 51.1594 174.765C51.0331 174.508 50.9029 174.254 50.7549 174.007C47.9042 169.277 41.7766 168.117 37.0695 171.415C32.3623 174.713 30.859 181.221 33.7117 185.951C33.8577 186.193 34.0175 186.42 34.1812 186.643C32.0979 188.728 30.1448 190.991 28.3417 193.419C28.1089 193.273 27.8721 193.129 27.6216 193.003C22.798 190.555 16.7415 192.803 14.092 198.025C11.4425 203.246 13.2022 209.461 18.0258 211.909C18.2763 212.035 18.5308 212.142 18.7873 212.245C17.8916 215.134 17.2169 218.046 16.7652 220.957C16.489 220.957 16.2108 220.963 15.9287 220.987C10.4265 221.478 6.06258 226.534 6.177 232.28C6.2934 238.026 10.8467 242.284 16.3489 241.793C16.6369 241.767 16.919 241.722 17.1992 241.673C17.7752 244.519 18.5624 247.3 19.5567 249.993C19.3042 250.141 19.0517 250.295 18.8051 250.466C14.0979 253.764 12.5946 260.272 15.4473 265.002C18.298 269.732 24.4256 270.892 29.1308 267.594C29.3715 267.424 29.5984 267.243 29.8233 267.057C31.6836 269.113 33.7216 271.016 35.9292 272.754C35.7733 273.008 35.6214 273.267 35.4853 273.537C32.8358 278.758 34.5955 284.974 39.4191 287.422C44.2426 289.87 50.2992 287.621 52.9487 282.4C53.0868 282.129 53.2052 281.855 53.3176 281.579C56.0224 282.334 58.7646 282.855 61.5206 283.143C61.5029 283.433 61.491 283.725 61.495 284.019C61.6114 289.763 66.1647 294.024 71.6669 293.533C77.1691 293.041 81.5349 287.986 81.4185 282.24C81.4126 281.94 81.387 281.646 81.3574 281.354C84.1174 280.567 86.828 279.561 89.4657 278.344C89.5919 278.6 89.7222 278.855 89.8701 279.101C92.7208 283.832 98.8484 284.991 103.554 281.693C108.261 278.395 109.764 271.888 106.911 267.158C106.765 266.915 106.606 266.688 106.442 266.465C108.525 264.38 110.478 262.118 112.281 259.69C112.522 259.838 112.759 259.98 113.007 260.108ZM52.8955 260.881C35.3866 251.997 28.9907 229.427 38.6122 210.469C48.2337 191.513 70.2287 183.347 87.7375 192.233C105.248 201.118 111.642 223.687 102.021 242.645C92.3993 261.601 70.4062 269.765 52.8955 260.881Z" fill="url(#paint15_linear_97_158)"/>
<path d="M532.131 352.536L548.803 539.601C549.055 542.434 547.089 544.953 544.427 545.197L454.218 554.488C448.82 554.776 445.966 551.849 445.723 548.906L429.721 354.685C429.485 351.816 432.166 349.114 437.498 348.919L526.879 347.605C529.523 347.554 531.884 349.773 532.131 352.536Z" fill="url(#paint16_linear_97_158)"/>
<path d="M536.229 352.071L553.053 540.256C553.308 543.107 551.331 545.639 548.654 545.886L455.051 554.524C452.181 554.788 449.628 552.583 449.384 549.622L433.24 354.227C433.001 351.343 435.142 348.939 437.99 348.883L530.946 347.108C533.605 347.061 535.981 349.292 536.229 352.071Z" fill="url(#paint17_linear_97_158)"/>
<path d="M534.148 362.456L549.707 536.881C549.944 539.54 548.096 541.903 545.594 542.13L457.59 550.121C454.919 550.363 452.544 548.306 452.315 545.55L437.345 364.851C437.122 362.16 439.115 359.91 441.766 359.849L529.208 357.837C531.696 357.778 533.915 359.857 534.148 362.456Z" fill="#1B1B1B"/>
<path d="M534.149 362.456C533.916 359.858 531.696 357.779 529.209 357.837L441.769 359.849C439.118 359.91 437.125 362.16 437.348 364.851L439.491 390.713L536.461 388.369L534.149 362.456Z" fill="url(#paint18_linear_97_158)"/>
<path d="M487.463 353.663C487.548 354.643 486.844 355.456 485.889 355.477C484.934 355.499 484.092 354.718 484.007 353.736C483.922 352.753 484.628 351.941 485.583 351.923C486.536 351.901 487.379 352.68 487.463 353.663Z" fill="url(#paint19_linear_97_158)"/>
<path d="M499.561 459.994L455.807 462.154L449.769 400.325L493.765 399.202L499.561 459.994Z" fill="url(#paint20_linear_97_158)"/>
<path d="M532.009 458.39L506.308 459.661L500.547 399.031L526.391 398.37L532.009 458.39Z" fill="url(#paint21_linear_97_158)"/>
<path d="M536.54 506.765L460.677 511.974L456.595 470.198L532.742 466.202L536.54 506.765Z" fill="url(#paint22_linear_97_158)"/>
<path d="M538.905 532.015L463.216 537.978L461.389 519.265L537.202 513.842L538.905 532.015Z" fill="url(#paint23_linear_97_158)"/>
<g opacity="0.48">
<path opacity="0.48" d="M513.739 481.258C504.664 449.559 478.208 452.727 470.295 424.084C463.797 400.56 478.781 388.157 469.692 368.463C465.417 359.2 457.928 352.937 450.163 348.657L437.99 348.889C435.142 348.945 433.001 351.347 433.24 354.233L449.384 549.628C449.628 552.589 452.181 554.794 455.051 554.53L531.796 547.448C526.89 541.223 522.232 533.607 519.001 524.456C512.163 505.082 518.758 498.788 513.739 481.258Z" fill="#1B1B1B"/>
</g>
<defs>
<linearGradient id="paint0_linear_97_158" x1="545.791" y1="182.717" x2="-167.521" y2="165.528" gradientUnits="userSpaceOnUse">
<stop stop-color="#0FB7C0"/>
<stop offset="0.1125" stop-color="#5D47B4"/>
</linearGradient>
<linearGradient id="paint1_linear_97_158" x1="453" y1="95" x2="-186.965" y2="349.589" gradientUnits="userSpaceOnUse">
<stop stop-color="#0C8B92"/>
<stop offset="0.154167" stop-color="#AA80F9"/>
</linearGradient>
<linearGradient id="paint2_linear_97_158" x1="75.4066" y1="306.481" x2="166.605" y2="296.951" gradientUnits="userSpaceOnUse">
<stop offset="0.003597" stop-color="#26264F"/>
<stop offset="1" stop-color="#444B8C"/>
</linearGradient>
<linearGradient id="paint3_linear_97_158" x1="269.813" y1="585.055" x2="289.132" y2="557.378" gradientUnits="userSpaceOnUse">
<stop stop-color="#444B8C"/>
<stop offset="0.9964" stop-color="#26264F"/>
</linearGradient>
<linearGradient id="paint4_linear_97_158" x1="328.306" y1="577.961" x2="298.742" y2="417.448" gradientUnits="userSpaceOnUse">
<stop stop-color="#444B8C"/>
<stop offset="0.9964" stop-color="#26264F"/>
</linearGradient>
<linearGradient id="paint5_linear_97_158" x1="401.256" y1="134.86" x2="549.215" y2="-76.3426" gradientUnits="userSpaceOnUse">
<stop stop-color="#444B8C"/>
<stop offset="0.9964" stop-color="#26264F"/>
</linearGradient>
<linearGradient id="paint6_linear_97_158" x1="336.982" y1="159.935" x2="151.918" y2="747.81" gradientUnits="userSpaceOnUse">
<stop stop-color="#444B8C"/>
<stop offset="0.9964" stop-color="#26264F"/>
</linearGradient>
<linearGradient id="paint7_linear_97_158" x1="347.015" y1="195.92" x2="173.516" y2="553.725" gradientUnits="userSpaceOnUse">
<stop offset="0.00359712" stop-color="#19ADC3"/>
<stop offset="1" stop-color="#724ADF"/>
</linearGradient>
<linearGradient id="paint8_linear_97_158" x1="301.188" y1="153.383" x2="290.951" y2="238.137" gradientUnits="userSpaceOnUse">
<stop stop-color="#E4FEFF"/>
<stop offset="1" stop-color="#FB6FBB"/>
</linearGradient>
<linearGradient id="paint9_linear_97_158" x1="71.5" y1="516.5" x2="233" y2="390.5" gradientUnits="userSpaceOnUse">
<stop stop-color="#834A97"/>
<stop offset="0.9964" stop-color="#1D6476"/>
</linearGradient>
<linearGradient id="paint10_linear_97_158" x1="178.282" y1="300.977" x2="411.347" y2="300.977" gradientUnits="userSpaceOnUse">
<stop stop-color="#226278"/>
<stop offset="1" stop-color="#AE8AE3"/>
</linearGradient>
<linearGradient id="paint11_linear_97_158" x1="49.2095" y1="450.842" x2="232.59" y2="450.842" gradientUnits="userSpaceOnUse">
<stop stop-color="#AD8AE3"/>
<stop offset="0.9964" stop-color="#25B2C5"/>
</linearGradient>
<linearGradient id="paint12_linear_97_158" x1="378.307" y1="406.293" x2="272.164" y2="266.278" gradientUnits="userSpaceOnUse">
<stop stop-color="#0D6970"/>
<stop offset="0.9964" stop-color="#7A439B"/>
</linearGradient>
<linearGradient id="paint13_linear_97_158" x1="191.265" y1="304.304" x2="411.112" y2="304.304" gradientUnits="userSpaceOnUse">
<stop stop-color="#B089E3"/>
<stop offset="0.9964" stop-color="#1FB3C4"/>
</linearGradient>
<linearGradient id="paint14_linear_97_158" x1="100.529" y1="100.061" x2="275.15" y2="100.061" gradientUnits="userSpaceOnUse">
<stop stop-color="#0FB7C0"/>
<stop offset="0.9964" stop-color="#C582E7"/>
</linearGradient>
<linearGradient id="paint15_linear_97_158" x1="6.1791" y1="226.557" x2="134.455" y2="226.557" gradientUnits="userSpaceOnUse">
<stop stop-color="#0FB7C0"/>
<stop offset="0.9964" stop-color="#6165D7"/>
</linearGradient>
<linearGradient id="paint16_linear_97_158" x1="426.192" y1="448.675" x2="552.059" y2="453.361" gradientUnits="userSpaceOnUse">
<stop stop-color="#444B8C"/>
<stop offset="0.9964" stop-color="#26264F"/>
</linearGradient>
<linearGradient id="paint17_linear_97_158" x1="479.625" y1="480.869" x2="498.805" y2="433.254" gradientUnits="userSpaceOnUse">
<stop stop-color="#444B8C"/>
<stop offset="0.9964" stop-color="#26264F"/>
</linearGradient>
<linearGradient id="paint18_linear_97_158" x1="461.357" y1="412.719" x2="536.992" y2="353.49" gradientUnits="userSpaceOnUse">
<stop stop-color="#19ADC3"/>
<stop offset="1" stop-color="#0C3135"/>
</linearGradient>
<linearGradient id="paint19_linear_97_158" x1="488.66" y1="346.603" x2="371.068" y2="631.985" gradientUnits="userSpaceOnUse">
<stop stop-color="#FFC444"/>
<stop offset="0.9964" stop-color="#F36F56"/>
</linearGradient>
<linearGradient id="paint20_linear_97_158" x1="464.379" y1="412.142" x2="517.809" y2="523.333" gradientUnits="userSpaceOnUse">
<stop offset="0.00359712" stop-color="#19ADC3"/>
<stop offset="1" stop-color="#9571F6"/>
</linearGradient>
<linearGradient id="paint21_linear_97_158" x1="486.26" y1="375.423" x2="547.762" y2="503.412" gradientUnits="userSpaceOnUse">
<stop offset="0.00359712" stop-color="#645BDB"/>
<stop offset="1" stop-color="#536ED5"/>
</linearGradient>
<linearGradient id="paint22_linear_97_158" x1="470.162" y1="441.804" x2="512.73" y2="530.391" gradientUnits="userSpaceOnUse">
<stop stop-color="#19ADC3"/>
<stop offset="1" stop-color="#645BDB"/>
</linearGradient>
<linearGradient id="paint23_linear_97_158" x1="482.573" y1="494.498" x2="510.958" y2="553.569" gradientUnits="userSpaceOnUse">
<stop offset="0.00359712" stop-color="#645ADB"/>
<stop offset="1" stop-color="#19ADC3"/>
</linearGradient>
</defs>
</svg>
