
<svg width="500" height="500" viewBox="0 0 510 566" fill="none" xmlns="http://www.w3.org/2000/svg">
<path d="M483.482 295.058C429.644 396.404 311.429 443.682 259.617 463.682C257.758 464.4 255.857 465.124 253.916 465.852C253.594 465.974 253.27 466.096 252.943 466.216C252.927 466.222 252.914 466.228 252.898 466.234C252.324 466.448 251.748 466.663 251.166 466.879C246.226 468.711 241.032 470.571 235.585 472.438C235.274 472.546 234.964 472.653 234.651 472.759C234.515 472.804 234.382 472.851 234.246 472.897C233.88 473.021 233.513 473.146 233.145 473.27C229.089 474.646 224.897 476.023 220.573 477.395C219.885 477.611 219.196 477.83 218.502 478.046C218.152 478.156 217.802 478.266 217.45 478.375C217.1 478.485 216.748 478.595 216.395 478.703C216.043 478.813 215.689 478.924 215.333 479.032C214.625 479.25 213.911 479.469 213.195 479.687C212.48 479.906 211.76 480.124 211.036 480.34C209.806 480.712 208.563 481.082 207.31 481.452C207.31 481.452 207.31 481.452 207.308 481.452C206.726 481.623 206.141 481.796 205.553 481.966C205.183 482.074 204.811 482.182 204.44 482.29C204.009 482.416 203.579 482.54 203.146 482.664C201.713 483.077 200.265 483.489 198.804 483.898C198.435 484.002 198.065 484.107 197.695 484.209C197.302 484.319 196.909 484.429 196.514 484.537C188.993 486.621 181.867 486.145 175.646 483.857C175.001 483.621 174.368 483.365 173.745 483.089C155.166 474.912 145.649 450.276 159.997 431.101C160.097 430.969 160.199 430.835 160.299 430.701C160.612 430.294 160.923 429.885 161.233 429.472C161.312 429.367 161.393 429.261 161.471 429.155C161.786 428.738 162.099 428.317 162.409 427.895C163.679 426.182 164.934 424.442 166.173 422.671C166.405 422.343 166.635 422.012 166.863 421.679C167.331 421.009 167.795 420.33 168.257 419.649C168.566 419.194 168.872 418.74 169.177 418.281C170.937 415.648 172.659 412.957 174.344 410.204C174.568 409.836 174.793 409.47 175.015 409.1C175.465 408.356 175.911 407.607 176.356 406.853C176.58 406.477 176.8 406.099 177.02 405.719C177.243 405.34 177.461 404.96 177.681 404.578C188.794 385.24 195.24 367.743 199.514 349.863C199.699 349.101 199.878 348.34 200.051 347.576C208.003 312.813 208.193 276.257 218.901 221.681C219.002 221.167 219.104 220.652 219.206 220.134C222.631 202.894 227.111 183.86 233.208 162.534C240.172 138.174 246.572 116.079 253.47 96.577C253.916 95.3138 254.365 94.0643 254.817 92.8227V92.8207C270.25 50.3539 288.473 20.7224 321.066 7.48573C340.422 -0.375208 363.661 -1.97101 385.169 2.35005C385.702 2.45434 386.233 2.56453 386.762 2.68062C406.663 6.96036 424.949 16.3384 437.128 30.5274C455.144 51.5208 461.572 85.127 461.615 112.364C461.615 112.899 461.613 113.428 461.609 113.958C461.576 118.338 461.377 122.543 461.035 126.486C459.004 149.886 451.817 165.407 461.706 180.552C471.812 196.032 487.829 192.862 497.881 204.987C498.557 205.802 499.177 206.654 499.745 207.535C500.02 207.962 500.284 208.397 500.531 208.838C515.38 235.01 488.083 286.397 483.482 295.058Z" fill="url(#paint0_linear_97_598)"/>
<g opacity="0.5">
<path opacity="0.5" d="M386.762 2.68067C368.116 26.2812 353.774 51.5464 343.977 78.1004C330.903 113.537 329.802 140.075 328.41 173.671C327.655 191.829 326.831 211.685 324.035 235.917C323.903 237.067 323.765 238.227 323.624 239.396V239.398C322.493 248.727 321.068 258.701 319.243 269.465C314.09 299.86 309.791 325.209 303.429 347.667C303.289 348.161 303.147 348.654 303.006 349.144C298.808 363.674 293.707 376.997 286.904 389.706C267.444 426.062 234.508 455.63 188.83 477.812C187.628 478.396 186.417 478.975 185.196 479.549C182.07 481.019 178.886 482.456 175.646 483.857C175.001 483.621 174.368 483.365 173.745 483.089C178.607 481.009 183.34 478.853 187.943 476.623C189.091 476.067 190.232 475.506 191.362 474.941L191.364 474.939C235.115 453.076 266.762 424.251 285.62 389.018C292.402 376.35 297.483 363.048 301.669 348.523C301.895 347.738 302.119 346.95 302.339 346.157V346.155C308.513 324.041 312.747 299.071 317.806 269.225C319.609 258.587 321.023 248.721 322.145 239.489C322.216 238.912 322.285 238.34 322.352 237.769C325.333 212.663 326.18 192.24 326.953 173.612C328.353 139.886 329.458 113.247 342.61 77.5967C352.382 51.1115 366.647 25.9073 385.169 2.3501C385.702 2.45439 386.233 2.56458 386.762 2.68067Z" fill="white"/>
<path opacity="0.5" d="M461.617 112.364C461.617 112.899 461.615 113.428 461.611 113.958C457.344 115.845 452.912 117.938 448.349 120.26C426.124 131.565 405.17 145.978 386.068 163.101C362.227 184.468 341.221 210.135 323.625 239.396V239.398C323.596 239.447 323.566 239.497 323.537 239.546L323.114 240.252L322.465 239.745C322.45 239.733 322.341 239.648 322.147 239.489C319.282 237.155 297.736 219.011 279.658 187.368C268.317 167.518 260.531 146.311 256.515 124.335C254.85 115.213 253.835 105.951 253.472 96.5771C253.918 95.3139 254.366 94.0644 254.819 92.8228C255.033 103.393 256.077 113.822 257.949 124.074C261.932 145.888 269.664 166.94 280.921 186.646C297.807 216.201 317.699 233.861 322.353 237.769C322.489 237.883 322.611 237.985 322.721 238.076C323.158 237.354 323.594 236.636 324.036 235.917C341.371 207.648 361.912 182.788 385.13 161.983C404.336 144.776 425.404 130.29 447.751 118.93C452.529 116.502 457.163 114.32 461.617 112.364Z" fill="white"/>
<path opacity="0.5" d="M500.533 208.838C486.986 223.802 469.81 241.917 450.777 259.998C424.136 285.305 399.118 305.599 376.418 320.32C348.235 338.594 323.541 348.29 303.008 349.144C302.819 349.154 302.63 349.162 302.441 349.168L301.912 349.186L301.732 348.688C301.726 348.674 301.706 348.619 301.671 348.523C300.56 345.492 284.507 302.284 260.183 261.974C251.079 246.885 235.314 233.113 218.903 221.681C219.004 221.168 219.106 220.652 219.208 220.135C235.953 231.742 252.121 245.791 261.429 261.22C283.55 297.88 298.847 336.923 302.341 346.155V346.157C302.597 346.832 302.789 347.346 302.917 347.69C303.088 347.682 303.259 347.677 303.43 347.667C323.602 346.693 347.883 337.084 375.619 319.102C398.243 304.431 423.189 284.193 449.763 258.951C468.908 240.764 486.174 222.541 499.747 207.535C500.022 207.962 500.285 208.397 500.533 208.838Z" fill="white"/>
<path opacity="0.5" d="M188.829 477.812C188.219 478.483 187.598 479.148 186.967 479.811C189.849 480.144 196.94 480.882 207.308 481.452C206.726 481.623 206.14 481.797 205.552 481.966C205.182 482.074 204.811 482.182 204.439 482.29C204.008 482.416 203.578 482.54 203.145 482.664C191.938 481.944 185.488 481.102 185.329 481.08L183.892 480.887L184.906 479.849C185.003 479.748 185.101 479.65 185.195 479.549C186.135 478.583 187.049 477.607 187.942 476.624C202.811 460.229 211.435 441.406 213.59 420.607C215.43 402.845 212.589 383.597 205.141 363.402C203.411 358.711 201.509 354.184 199.513 349.863C199.698 349.101 199.877 348.34 200.05 347.576C202.343 352.421 204.527 357.535 206.494 362.861C214.026 383.272 216.901 402.744 215.041 420.737C212.97 440.741 205.017 458.94 191.363 474.939L191.361 474.941C190.538 475.907 189.696 476.862 188.829 477.812Z" fill="white"/>
</g>
<path d="M509.886 375.974C509.781 404.931 481.489 429.352 470.916 438.478C450.548 456.061 434.382 458.487 429.11 478.985C425.636 492.489 430.428 500.092 431.008 508.906C431.039 509.392 431.057 509.881 431.061 510.375C431.078 512.398 430.844 514.506 430.219 516.774C420.134 553.328 332.17 544.643 317.931 543.236C262.136 537.726 213.13 515.922 177.029 494.76C177.566 494.587 178.103 494.413 178.636 494.24C179.878 493.837 181.111 493.428 182.332 493.016C182.332 493.016 182.332 493.016 182.334 493.016C230.572 476.759 262.246 455.067 282.69 437.553C305.217 418.254 311.456 406.306 332.272 385.096C333.366 383.982 334.5 382.843 335.678 381.676C340.489 376.909 346.05 371.674 352.658 365.809C371.312 349.255 386.806 335.652 400.985 326.233C401.954 325.589 402.918 324.965 403.875 324.359C421.977 312.935 438.096 308.635 456.221 314.123C463.797 316.418 471.383 320.318 478.361 325.268C478.764 325.554 479.165 325.843 479.562 326.134C492.842 335.88 503.747 349.392 507.89 362.718C509.06 366.482 509.681 370.199 509.844 373.849C509.874 374.559 509.889 375.267 509.886 375.974Z" fill="url(#paint1_linear_97_598)"/>
<g opacity="0.5">
<path opacity="0.5" d="M479.562 326.134C471.599 342.828 461.593 357.387 449.622 369.661C433.306 386.391 411.516 406.446 385.066 425.607C384.339 426.136 383.605 426.664 382.87 427.191H382.868C360.844 442.95 335.67 458.025 307.801 470.047C307.295 470.268 306.786 470.486 306.277 470.701C306.057 470.797 305.836 470.889 305.614 470.984C268.084 486.879 231.278 494.844 195.583 494.844C189.904 494.844 184.255 494.643 178.636 494.24C179.878 493.837 181.111 493.427 182.332 493.016C182.332 493.016 182.332 493.016 182.334 493.016C221.954 495.242 263.037 487.436 305.046 469.642C305.266 469.549 305.486 469.455 305.705 469.363C306.218 469.144 306.727 468.926 307.238 468.703C334.892 456.773 359.888 441.821 381.773 426.183C382.221 425.863 382.667 425.544 383.114 425.221C409.979 405.877 432.085 385.556 448.58 368.644C460.495 356.427 470.447 341.921 478.361 325.268C478.764 325.554 479.165 325.843 479.562 326.134Z" fill="white"/>
<path opacity="0.5" d="M509.887 375.974C489.43 398.366 451.391 423.631 382.871 427.191H382.869C382.777 427.197 382.684 427.203 382.592 427.207L381.937 427.24L381.835 426.593C381.833 426.577 381.811 426.439 381.774 426.183C381.375 423.328 379.188 405.897 381.886 383.788C383.874 367.503 388.882 346.159 400.986 326.232C401.955 325.589 402.919 324.965 403.877 324.359C390.705 344.808 385.388 367.117 383.331 383.963C380.83 404.454 382.557 420.859 383.115 425.221C383.139 425.408 383.16 425.574 383.18 425.715C383.811 425.682 384.44 425.646 385.067 425.607C452.856 421.571 490.077 396.042 509.845 373.849C509.875 374.559 509.891 375.267 509.887 375.974Z" fill="white"/>
<path opacity="0.5" d="M431.06 510.375C425.297 511.436 418.444 512.199 410.656 512.199H410.294C386.735 512.127 349.588 504.86 306.276 470.701C306.164 470.612 306.05 470.524 305.936 470.433L305.631 470.191L305.662 469.803C305.664 469.778 305.678 469.628 305.704 469.363C306.146 464.949 310.375 428.348 332.272 385.096C333.365 383.982 334.499 382.843 335.677 381.676C313.099 424.48 308.032 461.604 307.237 468.703C307.198 469.056 307.168 469.335 307.149 469.536C307.365 469.705 307.581 469.876 307.8 470.047C331.617 488.707 368.425 510.582 410.204 510.741H410.656C418.448 510.741 425.283 509.97 431.007 508.905C431.038 509.391 431.056 509.881 431.06 510.375Z" fill="white"/>
</g>
<path d="M275.326 51.869V534.385C275.326 541.6 269.16 543.385 262.162 543.877L17.8555 565.695L14.0862 565.961C6.34902 566.508 0 560.724 0 553.107V43.7582C0 36.1412 6.34902 30.1122 14.0882 30.3621L19.2024 30.5254L264.339 49.2402C271.334 49.4605 275.326 44.6535 275.326 51.869Z" fill="url(#paint2_linear_97_598)"/>
<path d="M282.423 51.8552V534.113C282.423 541.319 276.898 547.628 269.908 548.118L183.544 554.231L21.885 565.662C14.1537 566.209 7.95215 560.431 7.95215 552.816V43.7523C7.95215 36.1393 14.1989 30.1142 21.9302 30.3621L117.889 33.4435L269.931 38.3392C276.919 38.5576 282.423 44.6417 282.423 51.8552Z" fill="url(#paint3_linear_97_598)"/>
<path d="M274.906 78.3955V525.404C274.906 532.142 269.568 538.019 263.03 538.468L29.601 554.487C22.4124 554.981 16.5176 549.585 16.5176 542.498V72.1776C16.5176 65.09 22.4124 59.4466 29.601 59.6375L263.03 65.8338C269.568 66.005 274.906 71.6582 274.906 78.3955Z" fill="url(#paint4_linear_97_598)"/>
<path opacity="0.9" d="M153.599 49.5353C153.599 52.1012 151.539 54.122 148.992 54.0492C146.444 53.9764 144.377 51.8356 144.377 49.2658C144.377 46.696 146.444 44.6751 148.992 44.7519C151.539 44.8286 153.599 46.9695 153.599 49.5353Z" fill="white"/>
<path opacity="0.5" d="M183.635 554.229L21.9302 565.66C14.1989 566.207 7.95215 560.429 7.95215 552.814V43.7523C7.95215 36.1393 14.1989 30.1142 21.9302 30.3621L117.889 33.4435C103.701 98.222 84.2367 238.684 158.06 318.448C233.479 399.925 239.592 489.947 183.635 554.229Z" fill="white" fill-opacity="0.3"/>
<g opacity="0.5">
<path opacity="0.9" d="M256.216 205.19L36.8892 206.378V87.4232L256.216 90.6817V205.19Z" fill="url(#paint5_linear_97_598)"/>
<path opacity="0.9" d="M139.215 409.043L36.8892 413.204V321.478L139.215 318.917V409.043Z" fill="url(#paint6_linear_97_598)"/>
<path opacity="0.9" d="M256.217 404.285L158.038 408.277V318.446L256.217 315.989V404.285Z" fill="url(#paint7_linear_97_598)"/>
<path opacity="0.9" d="M139.215 519.82L36.8892 525.948V434.222L139.215 429.694V519.82Z" fill="url(#paint8_linear_97_598)"/>
<path opacity="0.9" d="M256.217 512.813L158.038 518.693V428.862L256.217 424.517V512.813Z" fill="url(#paint9_linear_97_598)"/>
<g opacity="0.9">
<path opacity="0.9" d="M103.188 262.918C103.188 280.484 88.4761 295.027 70.2274 295.405C51.8626 295.784 36.8896 281.694 36.8896 263.927C36.8896 246.161 51.8626 231.614 70.2274 231.435C88.4761 231.258 103.188 245.354 103.188 262.918Z" fill="url(#paint10_linear_97_598)"/>
<path opacity="0.9" d="M180.724 261.739C180.724 279.069 166.404 293.415 148.641 293.783C130.768 294.153 116.196 280.247 116.196 262.721C116.196 245.195 130.768 230.847 148.641 230.671C166.404 230.498 180.724 244.408 180.724 261.739Z" fill="url(#paint11_linear_97_598)"/>
<path opacity="0.9" d="M256.217 260.588C256.217 277.689 242.273 291.843 224.977 292.201C207.576 292.561 193.39 278.837 193.39 261.544C193.39 244.252 207.574 230.097 224.977 229.928C242.273 229.758 256.217 243.487 256.217 260.588Z" fill="url(#paint12_linear_97_598)"/>
</g>
</g>
<path opacity="0.5" d="M230.161 189.994C239.981 180.167 239.981 164.233 230.161 154.406C220.341 144.579 204.42 144.579 194.599 154.406C184.779 164.233 184.779 180.167 194.599 189.994C204.42 199.821 220.341 199.821 230.161 189.994Z" fill="white"/>
<path d="M224.475 175.075C226.051 168.393 221.917 161.697 215.24 160.12C208.563 158.542 201.872 162.68 200.295 169.361C198.719 176.043 202.853 182.739 209.53 184.317C216.207 185.895 222.898 181.757 224.475 175.075Z" fill="white"/>
<path d="M221.174 188.283C221.174 188.283 223.358 180.086 221.811 177.992C220.264 175.897 210.8 167.518 211.71 170.251C212.621 172.985 213.985 174.805 213.985 174.805C213.985 174.805 208.889 177.172 212.165 180.723C215.44 184.275 216.534 185.096 216.716 188.283C216.899 191.471 218.989 192.565 221.174 188.283Z" fill="url(#paint13_linear_97_598)"/>
<path d="M312.086 542.071C312.086 542.071 313.244 549.158 313.097 551.681C312.949 554.204 284.976 555.494 284.692 553.603C284.409 551.713 289.317 548.708 292.77 547.647C296.222 546.587 306.331 543.755 306.331 543.755L312.086 542.071Z" fill="url(#paint14_linear_97_598)"/>
<path d="M305.293 535.003L306.186 543.816C306.186 543.816 309.436 545.965 312.299 544.306L313.732 534.712L305.293 535.003Z" fill="url(#paint15_linear_97_598)"/>
<path d="M361.996 553.562C361.996 553.562 363.154 560.65 363.007 563.175C362.859 565.699 334.884 566.988 334.603 565.097C334.319 563.208 339.227 560.201 342.68 559.141C346.133 558.08 356.241 555.249 356.241 555.249L361.996 553.562Z" fill="url(#paint16_linear_97_598)"/>
<path d="M355.209 546.494L356.102 555.308C356.102 555.308 359.352 557.456 362.215 555.798L363.648 546.203L355.209 546.494Z" fill="url(#paint17_linear_97_598)"/>
<path d="M310.37 304.899C307.136 311.459 303.903 318.019 300.669 324.58C298.067 362.019 296.776 402.731 297.605 446.268C298.223 478.66 299.953 509.344 302.438 538.149C306.823 537.949 311.206 537.746 315.591 537.545C321.93 524.954 329.413 505.877 330.103 482.328C330.821 457.765 323.381 454.503 323.853 430.985C324.464 400.501 337.237 392.369 344.042 355.703C346.646 341.681 348.397 323.366 346.313 301.144C334.333 302.396 322.353 303.649 310.37 304.899Z" fill="url(#paint18_linear_97_598)"/>
<path opacity="0.3" d="M346.317 301.146C339.846 301.821 333.375 302.496 326.904 303.173C315.256 323.458 312.004 344.571 314.049 353.91C316.942 367.123 324.59 371.356 324.169 384.622C323.753 397.748 316.025 401.152 311.123 416.622C307.73 427.335 308.626 437.183 310.555 456.443C314.442 495.24 323.806 507.103 315.962 519.824C313.735 523.439 309.719 527.742 301.854 531.028C302.047 533.407 302.236 535.794 302.44 538.147C306.825 537.947 311.208 537.744 315.593 537.543C321.932 524.95 329.417 505.875 330.106 482.326C330.823 457.763 323.383 454.501 323.855 430.983C324.466 400.499 337.239 392.369 344.044 355.701C346.648 341.681 348.4 323.366 346.317 301.146Z" fill="url(#paint19_linear_97_598)"/>
<path d="M327.77 316.709C333.839 349.833 339.201 385.283 343.384 422.88C348.435 468.274 351.131 511.072 352.19 550.805C357.002 550.943 361.815 551.077 366.627 551.215C385.589 513.675 386.747 488.223 384.014 471.651C382.96 465.266 380.099 452.745 379.446 434.033C378.992 420.989 379.822 411.062 380.862 399.128C383.139 372.963 385.904 367.251 386.301 347.24C386.674 328.458 386.751 318.954 381.393 313.407C367.275 298.795 330.554 315.416 327.77 316.709Z" fill="url(#paint20_linear_97_598)"/>
<path d="M223.693 187.02C220.492 186.796 217.293 186.574 214.092 186.349C206.542 216.88 211.957 246.496 228.998 257.387C255.621 274.404 305.096 242.344 315.818 207.433C320.523 192.111 319.454 169.998 310.047 165.7C307.436 164.508 303.386 164.323 294.608 169.254C268.396 183.982 267.706 211.817 254.381 214.174C248.454 215.225 238.887 211.445 223.693 187.02Z" fill="url(#paint21_linear_97_598)"/>
<path d="M296.988 331.297C292.377 323.641 298.167 316.258 299.487 301.752C300.981 285.312 294.652 282.575 288.393 255.333C284.231 237.214 280.235 219.82 285.005 199.458C287.29 189.7 291.168 173.148 304.855 165.155C311.917 161.029 321.562 161.442 340.562 162.438C364.058 163.668 375.805 164.281 384.566 168.9C385.848 169.576 412.503 184.084 414.337 207.734C416.205 231.805 390.011 235.04 386.517 267.139C384.948 281.548 387.744 303.71 389.557 318.084C391.297 331.886 392.496 335.42 389.773 339.599C383.214 349.672 363.13 346.801 322.964 341.061C307.21 338.804 300.429 337.01 296.988 331.297Z" fill="url(#paint22_linear_97_598)"/>
<path opacity="0.3" d="M358.102 261.972C359.801 268.227 365.908 272.9 370.161 288.118C371.079 291.404 377.617 314.8 369.137 320.56C364.237 323.885 359.84 317.584 347.95 316.762C327.346 315.335 317.532 332.665 304.073 327.933C301.738 327.11 298.656 325.361 295.577 321.337C294.964 324.961 295.07 328.11 296.989 331.297C300.43 337.01 307.212 338.804 322.967 341.057C363.134 346.797 383.217 349.668 389.776 339.595C392.498 335.416 391.3 331.882 389.56 318.08C387.747 303.706 384.951 281.544 386.52 267.135C390.014 235.036 416.209 231.801 414.341 207.73C413.841 201.296 411.476 195.566 408.314 190.578C375.083 204.035 352.764 242.312 358.102 261.972Z" fill="url(#paint23_linear_97_598)"/>
<path d="M400.071 309.318L393.423 313.566C392.23 312.187 389.465 309.405 385.151 308.454C380.288 307.386 374.708 308.919 374.579 310.471C374.474 311.715 377.872 312.97 378.397 313.163C382.638 314.729 385.786 313.429 387.501 315.135C388.106 315.739 388.863 316.86 390.602 317.901C391.058 318.175 391.535 318.415 391.789 318.515C394.621 319.617 399.477 314.684 399.894 314.253L400.071 309.318Z" fill="url(#paint24_linear_97_598)"/>
<path d="M380.431 222.059C375.621 210.532 372.289 192.884 379.886 166.674C429.939 186.412 455.465 233.2 445.498 270.291C437.281 300.867 407.388 315.76 400.721 318.895C399.169 315.361 397.618 311.827 396.066 308.293C403.794 299.68 412.502 286.947 411.271 272.416C409.563 252.271 390.168 245.396 380.431 222.059Z" fill="url(#paint25_linear_97_598)"/>
<path d="M341.793 138.721C341.793 138.721 342.188 147.483 344.905 154.045C347.361 159.976 360.279 163.705 362.898 165.027C365.517 166.351 357.993 170.22 350.436 170.981C342.88 171.741 321.298 170.025 317.409 167.158C313.518 164.291 320.536 164.508 325.929 162.526C331.322 160.545 334.441 149.988 333.489 145.197C332.537 140.403 341.793 138.721 341.793 138.721Z" fill="url(#paint26_linear_97_598)"/>
<path d="M329.842 135.545C325.921 131.69 325.372 131.24 324.946 129.908C323.231 124.56 327.378 117.234 332.814 115.431C333.098 115.339 336.743 114.17 338.135 115.752C339.317 117.096 337.579 118.954 338.405 121.545C339.179 123.971 341.281 124.152 345.174 127.334C348.383 129.953 350.377 131.582 350.837 133.873C351.785 138.595 346.073 145.441 341.014 145.254C339.197 145.187 338.701 144.256 329.842 135.545Z" fill="url(#paint27_linear_97_598)"/>
<path d="M340.519 145.984C340.519 145.984 336.35 150.706 330.001 149.146C324.317 147.749 325.768 134.691 329.927 132.605C331.315 131.911 333.835 131.968 335.733 132.881C336.854 133.422 337.164 133.983 339.013 134.831C340.717 135.612 341.256 135.504 341.714 136.055C342.288 136.744 342.534 138.223 340.737 141.797C342.033 140.88 343.425 140.687 344.28 141.295C344.416 141.391 344.764 141.732 344.913 142.178C345.456 143.792 343.777 145.437 340.519 145.984Z" fill="url(#paint28_linear_97_598)"/>
<defs>
<linearGradient id="paint0_linear_97_598" x1="153.055" y1="242.933" x2="504.911" y2="242.933" gradientUnits="userSpaceOnUse">
<stop stop-color="#0C8B92"/>
<stop offset="0.9964" stop-color="#AA80F9"/>
</linearGradient>
<linearGradient id="paint1_linear_97_598" x1="399.739" y1="288.431" x2="320.019" y2="502.258" gradientUnits="userSpaceOnUse">
<stop offset="0.00359712" stop-color="#4887B9"/>
<stop offset="1" stop-color="#9482EB"/>
</linearGradient>
<linearGradient id="paint2_linear_97_598" x1="327.891" y1="466.449" x2="95.2117" y2="268.108" gradientUnits="userSpaceOnUse">
<stop stop-color="#444B8C"/>
<stop offset="0.9964" stop-color="#26264F"/>
</linearGradient>
<linearGradient id="paint3_linear_97_598" x1="14.7228" y1="297.158" x2="487.634" y2="314.737" gradientUnits="userSpaceOnUse">
<stop stop-color="#444B8C"/>
<stop offset="0.9964" stop-color="#26264F"/>
</linearGradient>
<linearGradient id="paint4_linear_97_598" x1="217.485" y1="202.309" x2="-74.2834" y2="594.323" gradientUnits="userSpaceOnUse">
<stop stop-color="#645BDB"/>
<stop offset="1" stop-color="#19ADC3"/>
</linearGradient>
<linearGradient id="paint5_linear_97_598" x1="256.499" y1="86.7659" x2="226.898" y2="258.403" gradientUnits="userSpaceOnUse">
<stop stop-color="#44528E"/>
<stop offset="1" stop-color="#227783"/>
</linearGradient>
<linearGradient id="paint6_linear_97_598" x1="139.347" y1="318.395" x2="101.544" y2="447.411" gradientUnits="userSpaceOnUse">
<stop stop-color="#44528E"/>
<stop offset="1" stop-color="#227783"/>
</linearGradient>
<linearGradient id="paint7_linear_97_598" x1="256.343" y1="315.479" x2="218.718" y2="441.354" gradientUnits="userSpaceOnUse">
<stop stop-color="#44528E"/>
<stop offset="1" stop-color="#227783"/>
</linearGradient>
<linearGradient id="paint8_linear_97_598" x1="139.347" y1="429.162" x2="100.082" y2="560.43" gradientUnits="userSpaceOnUse">
<stop stop-color="#44528E"/>
<stop offset="1" stop-color="#227783"/>
</linearGradient>
<linearGradient id="paint9_linear_97_598" x1="256.343" y1="423.996" x2="217.296" y2="552.012" gradientUnits="userSpaceOnUse">
<stop stop-color="#44528E"/>
<stop offset="1" stop-color="#227783"/>
</linearGradient>
<linearGradient id="paint10_linear_97_598" x1="103.273" y1="231.08" x2="76.6135" y2="317.958" gradientUnits="userSpaceOnUse">
<stop stop-color="#7B439C"/>
<stop offset="1" stop-color="#1A6575"/>
</linearGradient>
<linearGradient id="paint11_linear_97_598" x1="148" y1="237" x2="176.018" y2="268.277" gradientUnits="userSpaceOnUse">
<stop stop-color="#7B439C"/>
<stop offset="1" stop-color="#1A6575"/>
</linearGradient>
<linearGradient id="paint12_linear_97_598" x1="256.298" y1="229.582" x2="229.765" y2="313.756" gradientUnits="userSpaceOnUse">
<stop stop-color="#7B439C"/>
<stop offset="1" stop-color="#1A6575"/>
</linearGradient>
<linearGradient id="paint13_linear_97_598" x1="205.97" y1="170.343" x2="243.457" y2="208.471" gradientUnits="userSpaceOnUse">
<stop stop-color="#FFC444"/>
<stop offset="0.9964" stop-color="#F36F56"/>
</linearGradient>
<linearGradient id="paint14_linear_97_598" x1="282.567" y1="465.658" x2="308.145" y2="598.316" gradientUnits="userSpaceOnUse">
<stop stop-color="#311944"/>
<stop offset="1" stop-color="#893976"/>
</linearGradient>
<linearGradient id="paint15_linear_97_598" x1="307.199" y1="559.981" x2="311.233" y2="516.242" gradientUnits="userSpaceOnUse">
<stop stop-color="#FFC444"/>
<stop offset="0.9964" stop-color="#F36F56"/>
</linearGradient>
<linearGradient id="paint16_linear_97_598" x1="328.557" y1="456.788" x2="354.136" y2="589.448" gradientUnits="userSpaceOnUse">
<stop stop-color="#311944"/>
<stop offset="1" stop-color="#893976"/>
</linearGradient>
<linearGradient id="paint17_linear_97_598" x1="357.743" y1="564.641" x2="361.777" y2="520.901" gradientUnits="userSpaceOnUse">
<stop stop-color="#FFC444"/>
<stop offset="0.9964" stop-color="#F36F56"/>
</linearGradient>
<linearGradient id="paint18_linear_97_598" x1="308.728" y1="339.585" x2="339.776" y2="498.201" gradientUnits="userSpaceOnUse">
<stop stop-color="#311944"/>
<stop offset="1" stop-color="#893976"/>
</linearGradient>
<linearGradient id="paint19_linear_97_598" x1="293.258" y1="417.151" x2="339.838" y2="420.882" gradientUnits="userSpaceOnUse">
<stop stop-color="#311944"/>
<stop offset="1" stop-color="#893976"/>
</linearGradient>
<linearGradient id="paint20_linear_97_598" x1="319.021" y1="425.919" x2="389.735" y2="431.583" gradientUnits="userSpaceOnUse">
<stop stop-color="#311944"/>
<stop offset="1" stop-color="#893976"/>
</linearGradient>
<linearGradient id="paint21_linear_97_598" x1="300.5" y1="206" x2="217" y2="214" gradientUnits="userSpaceOnUse">
<stop stop-color="#4675A7"/>
<stop offset="0.9964" stop-color="#BF84E6"/>
</linearGradient>
<linearGradient id="paint22_linear_97_598" x1="349" y1="199" x2="359.022" y2="399.999" gradientUnits="userSpaceOnUse">
<stop stop-color="#BF84E6"/>
<stop offset="0.9964" stop-color="#11B5C1"/>
</linearGradient>
<linearGradient id="paint23_linear_97_598" x1="460.463" y1="445.718" x2="320.655" y2="206.415" gradientUnits="userSpaceOnUse">
<stop stop-color="#5BA1D1"/>
<stop offset="0.9964" stop-color="#F9F1FF"/>
</linearGradient>
<linearGradient id="paint24_linear_97_598" x1="410.957" y1="280.197" x2="381.475" y2="319.994" gradientUnits="userSpaceOnUse">
<stop stop-color="#FFC444"/>
<stop offset="0.9964" stop-color="#F36F56"/>
</linearGradient>
<linearGradient id="paint25_linear_97_598" x1="348.5" y1="167" x2="416.21" y2="278.79" gradientUnits="userSpaceOnUse">
<stop stop-color="#4675A7"/>
<stop offset="0.9964" stop-color="#BF84E6"/>
</linearGradient>
<linearGradient id="paint26_linear_97_598" x1="327.314" y1="180.976" x2="355.695" y2="145.691" gradientUnits="userSpaceOnUse">
<stop stop-color="#FFC444"/>
<stop offset="0.9964" stop-color="#F36F56"/>
</linearGradient>
<linearGradient id="paint27_linear_97_598" x1="348.875" y1="168.008" x2="333.826" y2="118.538" gradientUnits="userSpaceOnUse">
<stop stop-color="#444B8C"/>
<stop offset="0.9964" stop-color="#3E4177"/>
</linearGradient>
<linearGradient id="paint28_linear_97_598" x1="310.546" y1="150.743" x2="352.829" y2="131.937" gradientUnits="userSpaceOnUse">
<stop stop-color="#FFC444"/>
<stop offset="0.9964" stop-color="#F36F56"/>
</linearGradient>
</defs>
</svg>
