<svg width="500" height="500" viewBox="0 0 536 566" fill="none" xmlns="http://www.w3.org/2000/svg">
<path d="M438.737 168.993L422.998 169.021C421.913 158.63 419.415 148.656 415.696 139.286L429.003 131.574C432.639 129.467 433.884 124.711 431.787 120.944L426.197 110.894C424.089 107.103 419.405 105.71 415.729 107.795L402.588 115.25C396.473 106.684 389.172 98.9591 380.906 92.3168L388.464 79.3396C390.634 75.6163 389.346 70.7164 385.583 68.3827L375.524 62.1444C371.722 59.787 366.841 60.9007 364.633 64.6456L357.056 77.4908C347.323 72.9594 336.804 69.6895 325.71 67.9372V52.7052C325.71 48.2112 322.012 44.4012 317.435 44.1923L305.187 43.6345C300.553 43.4236 296.782 46.934 296.782 51.4772V66.8768C285.347 67.8288 274.321 70.399 263.958 74.3746L255.782 60.4532C253.381 56.3614 248.044 54.7767 243.856 56.9231L232.655 62.6647C228.419 64.8368 226.966 69.9457 229.415 74.0632L237.887 88.3058C228.614 94.8574 220.326 102.7 213.306 111.593L197.983 102.929C193.639 100.473 188.064 101.746 185.54 105.787L178.804 116.57C176.262 120.638 177.77 125.919 182.166 128.349L198.021 137.118C193.625 147.237 190.655 158.086 189.364 169.427L170.346 169.461C165.226 169.468 161.063 173.347 161.063 178.121V190.819C161.063 195.592 165.226 199.412 170.346 199.347L189.868 199.105C191.517 210.182 194.773 220.727 199.399 230.517L182.168 240.291C177.774 242.785 176.266 248.085 178.806 252.117L185.542 262.804C188.066 266.809 193.641 268.004 197.985 265.487L215.414 255.383C222.377 263.616 230.478 270.85 239.464 276.869L229.415 293.907C226.966 298.06 228.419 303.149 232.655 305.26L243.856 310.844C248.044 312.931 253.381 311.27 255.782 307.144L265.749 290.034C275.589 293.503 286.003 295.705 296.784 296.465V315.539C296.784 320.082 300.553 323.539 305.189 323.261L317.437 322.53C322.014 322.256 325.712 318.393 325.712 313.899V295.032C336.175 293.245 346.124 290.117 355.386 285.861L364.633 301.407C366.841 305.12 371.72 306.167 375.524 303.754L385.583 297.374C389.346 294.987 390.632 290.069 388.464 286.376L379.488 271.092C387.522 264.738 394.674 257.386 400.76 249.255L415.729 257.536C419.405 259.568 424.089 258.109 426.197 254.289L431.787 244.16C433.884 240.362 432.639 235.626 429.003 233.57L414.526 225.384C418.447 216.192 421.19 206.405 422.574 196.213L438.735 196.012C442.901 195.961 446.268 192.443 446.268 188.156V176.753C446.27 172.457 442.901 168.988 438.737 168.993ZM311.326 262.861C264.757 264.588 225.786 228.465 225.786 182.12C225.786 135.776 264.757 99.1543 311.326 100.288C356.311 101.382 391.673 137.53 391.673 181.062C391.673 224.592 356.311 261.192 311.326 262.861Z" fill="#97A6B7"/>
<path d="M259.217 56.3221L248.009 55.9358L244.144 65.9801L259.217 56.3221Z" fill="#97A6B7"/>
<path d="M370.363 60.9578L383.29 61.0859V70.6158L370.363 60.9578Z" fill="#97A6B7"/>
<path d="M419.622 106.926L432.507 107.446L429.285 114.656L419.622 106.926Z" fill="#97A6B7"/>
<path d="M439.851 169.129L452.862 170.158L448.61 176.469L439.851 169.129Z" fill="#97A6B7"/>
<path d="M418.204 258.369L430.831 260.173L432.377 249.87L418.204 258.369Z" fill="#97A6B7"/>
<path d="M369.89 304.858L381.229 306.918L382.13 298.547L369.89 304.858Z" fill="#97A6B7"/>
<path d="M313.201 324.947L303.023 323.143L311.783 310.138L313.201 324.947Z" fill="#97A6B7"/>
<path d="M258.058 314.002L246.204 311.554L255.352 300.479L258.058 314.002Z" fill="#97A6B7"/>
<path d="M191.448 101.78L203.817 102.166L198.922 111.18L191.448 101.78Z" fill="#97A6B7"/>
<path d="M166.84 198.746L178.179 200.421L177.276 191.15L166.84 198.746Z" fill="#97A6B7"/>
<path d="M191.191 266.612L202.27 268.414L203.173 261.074L191.191 266.612Z" fill="#97A6B7"/>
<path d="M451.452 170.015L435.583 170.042C434.491 159.566 431.971 149.512 428.22 140.065L441.637 132.289C445.303 130.164 446.557 125.371 444.443 121.573L438.806 111.44C436.68 107.618 431.957 106.215 428.251 108.316L415.002 115.831C408.835 107.196 401.476 99.4086 393.138 92.7111L400.76 79.6294C402.947 75.8766 401.649 70.9353 397.855 68.5838L387.713 62.2943C383.879 59.9172 378.959 61.0407 376.731 64.8172L369.093 77.7668C359.279 73.198 348.673 69.9024 337.488 68.1344V52.7782C337.488 48.2488 333.759 44.4053 329.145 44.1964L316.796 43.6327C312.122 43.4198 308.322 46.9597 308.322 51.5384V67.0622C296.792 68.0221 285.676 70.612 275.226 74.6211L266.983 60.5854C264.562 56.462 259.18 54.8616 254.958 57.0258L243.664 62.8146C239.393 65.0044 237.928 70.1547 240.397 74.3077L248.938 88.6666C239.588 95.2715 231.233 103.179 224.154 112.143L208.705 103.408C204.325 100.932 198.705 102.215 196.159 106.289L189.367 117.16C186.806 121.261 188.326 126.583 192.757 129.033L208.744 137.873C204.311 148.075 201.318 159.01 200.014 170.444L180.839 170.478C175.678 170.486 171.479 174.396 171.479 179.209V192.009C171.479 196.822 175.678 200.672 180.839 200.609L200.523 200.364C202.185 211.53 205.467 222.162 210.133 232.031L192.757 241.886C188.326 244.399 186.806 249.742 189.367 253.809L196.159 264.584C198.705 268.623 204.325 269.827 208.705 267.288L226.279 257.104C233.302 265.404 241.468 272.697 250.529 278.766L240.397 295.941C237.926 300.128 239.393 305.258 243.664 307.387L254.958 313.016C259.18 315.121 264.562 313.446 266.983 309.287L277.031 292.037C286.952 295.533 297.453 297.753 308.322 298.519V317.749C308.322 322.329 312.122 325.814 316.796 325.534L329.145 324.797C333.759 324.521 337.488 320.626 337.488 316.097V297.077C348.038 295.275 358.07 292.121 367.409 287.83L376.733 303.502C378.961 307.247 383.879 308.302 387.715 305.869L397.857 299.436C401.651 297.029 402.947 292.072 400.762 288.349L391.712 272.941C399.813 266.536 407.025 259.123 413.16 250.925L428.253 259.272C431.959 261.322 436.682 259.852 438.807 255.998L444.445 245.787C446.559 241.959 445.305 237.183 441.639 235.11L427.043 226.857C430.996 217.589 433.761 207.724 435.157 197.447L451.452 197.244C455.652 197.191 459.048 193.645 459.048 189.323V177.828C459.046 173.507 455.652 170.009 451.452 170.015ZM322.984 264.647C276.029 266.388 236.737 229.971 236.737 183.248C236.737 136.527 276.031 99.6057 322.984 100.747C368.342 101.849 403.998 138.293 403.998 182.18C403.998 226.067 368.344 262.964 322.984 264.647Z" fill="#D8DEE8"/>
<path d="M490.374 386.433L481.908 384.86C482.375 379.162 482.038 373.546 480.985 368.132L488.92 365.327C491.089 364.56 492.237 362.13 491.492 359.891L489.5 353.921C488.749 351.67 486.37 350.448 484.183 351.199L476.363 353.881C473.939 348.658 470.794 343.766 467.017 339.361L472.393 333.144C473.935 331.36 473.738 328.595 471.951 326.961L467.171 322.591C465.365 320.94 462.628 321.046 461.062 322.838L455.69 328.981C450.914 325.562 445.588 322.743 439.798 320.679L441.336 312.488C441.789 310.071 440.186 307.649 437.747 307.073L431.216 305.538C428.745 304.957 426.363 306.464 425.903 308.906L424.347 317.189C418.1 316.546 411.912 316.816 405.937 317.908L402.945 309.596C402.066 307.154 399.356 305.763 396.887 306.494L390.283 308.451C387.786 309.192 386.487 311.792 387.388 314.254L390.506 322.769C384.858 325.357 379.608 328.739 374.935 332.813L367.569 326.606C365.481 324.846 362.355 324.968 360.588 326.888L355.877 332.007C354.101 333.938 354.379 336.93 356.495 338.681L364.136 344.996C360.75 349.994 358.056 355.529 356.217 361.497L345.986 359.595C343.233 359.083 340.602 360.748 340.119 363.317L338.837 370.144C338.354 372.712 340.208 375.186 342.967 375.667L353.491 377.506C353.259 383.63 353.945 389.628 355.444 395.359L345.189 398.878C342.574 399.775 341.227 402.473 342.188 404.899L344.732 411.327C345.684 413.735 348.561 414.942 351.152 414.025L361.547 410.351C364.46 415.482 368.086 420.188 372.31 424.334L365.185 432.482C363.448 434.468 363.716 437.352 365.781 438.915L371.241 443.048C373.282 444.594 376.321 444.239 378.029 442.262L385.116 434.066C390.058 436.924 395.436 439.16 401.156 440.658L399.23 450.915C398.77 453.357 400.448 455.598 402.969 455.917L409.63 456.759C412.119 457.074 414.497 455.369 414.953 452.953L416.857 442.806C422.665 442.901 428.333 442.223 433.744 440.868L437.145 450.162C437.958 452.383 440.476 453.438 442.766 452.523L448.82 450.107C451.083 449.204 452.273 446.687 451.48 444.483L448.196 435.357C453.16 432.75 457.749 429.519 461.843 425.761L469.056 431.725C470.827 433.189 473.493 432.878 475.014 431.035L479.044 426.151C480.555 424.32 480.366 421.647 478.617 420.175L471.657 414.311C474.694 409.762 477.159 404.777 478.932 399.436L487.644 400.959C489.89 401.351 492.056 399.8 492.49 397.494L493.641 391.362C494.075 389.054 492.616 386.849 490.374 386.433ZM412.371 424.056C387.153 420.285 369.843 396.924 374.525 372.001C379.206 347.077 403.864 331.315 428.794 336.623C452.876 341.752 468.242 364.759 463.844 388.171C459.447 411.583 436.733 427.698 412.371 424.056Z" fill="#97A6B7"/>
<path d="M405.211 307.722L399.222 306.384L396.13 311.394L405.211 307.722Z" fill="#97A6B7"/>
<path d="M464.517 321.43L471.456 322.804L470.494 327.929L464.517 321.43Z" fill="#97A6B7"/>
<path d="M486.364 351.124L493.241 352.703L490.78 356.256L486.364 351.124Z" fill="#97A6B7"/>
<path d="M490.959 386.616L497.853 388.484L494.929 391.449L490.959 386.616Z" fill="#97A6B7"/>
<path d="M470.305 432.426L476.913 434.67L478.784 429.285L470.305 432.426Z" fill="#97A6B7"/>
<path d="M439.624 452.551L445.514 454.803L446.845 450.392L439.624 452.551Z" fill="#97A6B7"/>
<path d="M407.107 457.634L401.816 455.637L407.841 449.527L407.107 457.634Z" fill="#97A6B7"/>
<path d="M378.56 446.182L372.431 443.671L378.469 438.639L378.56 446.182Z" fill="#97A6B7"/>
<path d="M364.174 325.329L370.786 326.786L367.242 331.14L364.174 325.329Z" fill="#97A6B7"/>
<path d="M341.145 374.995L347.072 377.039L347.524 371.961L341.145 374.995Z" fill="#97A6B7"/>
<path d="M347.384 413.95L353.162 416.037L354.388 412.18L347.384 413.95Z" fill="#97A6B7"/>
<path d="M497.11 388.264L488.573 386.677C489.044 380.933 488.703 375.271 487.642 369.813L495.643 366.985C497.83 366.212 498.987 363.76 498.234 361.505L496.224 355.488C495.467 353.217 493.069 351.987 490.864 352.742L482.98 355.446C480.537 350.18 477.364 345.25 473.558 340.805L478.977 334.54C480.533 332.742 480.334 329.953 478.532 328.305L473.712 323.9C471.89 322.234 469.131 322.343 467.551 324.148L462.136 330.341C457.319 326.894 451.949 324.052 446.112 321.972L447.664 313.714C448.121 311.278 446.504 308.835 444.043 308.256L437.459 306.707C434.966 306.121 432.566 307.641 432.103 310.103L430.535 318.452C424.237 317.806 417.997 318.076 411.973 319.177L408.958 310.799C408.072 308.337 405.339 306.933 402.85 307.671L396.193 309.644C393.675 310.391 392.365 313.012 393.274 315.494L396.418 324.077C390.722 326.687 385.43 330.095 380.717 334.202L373.29 327.946C371.184 326.173 368.033 326.297 366.252 328.23L361.501 333.39C359.709 335.338 359.989 338.353 362.125 340.118L369.829 346.486C366.416 351.526 363.7 357.104 361.844 363.121L351.529 361.204C348.752 360.687 346.1 362.366 345.615 364.954L344.321 371.839C343.834 374.427 345.704 376.922 348.486 377.407L359.097 379.262C358.863 385.435 359.555 391.484 361.066 397.261L350.726 400.807C348.09 401.712 346.731 404.432 347.699 406.876L350.263 413.357C351.223 415.785 354.126 417.001 356.737 416.077L367.216 412.373C370.154 417.545 373.809 422.291 378.07 426.47L370.886 434.685C369.135 436.688 369.405 439.595 371.488 441.17L376.993 445.337C379.052 446.894 382.115 446.537 383.838 444.544L390.985 436.282C395.968 439.163 401.391 441.416 407.159 442.926L405.217 453.268C404.753 455.732 406.445 457.989 408.987 458.31L415.704 459.159C418.212 459.477 420.612 457.758 421.07 455.322L422.99 445.092C428.845 445.187 434.56 444.503 440.016 443.139L443.448 452.509C444.268 454.748 446.806 455.811 449.115 454.89L455.221 452.454C457.504 451.543 458.703 449.007 457.903 446.785L454.592 437.587C459.594 434.959 464.223 431.701 468.35 427.911L475.625 433.922C477.411 435.399 480.099 435.083 481.632 433.227L485.696 428.303C487.22 426.458 487.027 423.764 485.264 422.278L478.248 416.367C481.31 411.782 483.795 406.756 485.583 401.369L494.367 402.904C496.631 403.301 498.816 401.736 499.251 399.412L500.413 393.229C500.841 390.909 499.37 388.684 497.11 388.264ZM418.461 426.192C393.034 422.39 375.579 398.84 380.298 373.712C385.017 348.585 409.88 332.695 435.015 338.046C459.299 343.216 474.791 366.413 470.358 390.016C465.927 413.619 443.024 429.866 418.461 426.192Z" fill="#D8DEE8"/>
<path d="M128.345 441.521C123.76 449.117 115.771 459.429 107.122 471.389L251.476 492.28C235.33 448.342 212.565 402.201 246.564 325.906C262.52 290.103 304.923 227.156 287.469 185.179C267.586 137.354 228.246 158.007 218.264 120.979C202.664 63.108 153.377 22.8499 100.431 51.611C48.1753 79.9957 49.9284 183.711 118.785 297.169C158.956 384.16 152.285 401.856 128.345 441.521Z" fill="url(#paint0_linear_97_1029)"/>
<path d="M182.962 473.83C184.006 454.88 184.027 436.956 184.051 417.979L184.061 411.652C183.509 402.512 183.213 393.487 182.927 384.757C182.28 365.047 181.669 346.431 178.332 326.665C178.267 325.51 178.261 324.389 178.255 323.202C178.234 318.963 178.21 314.577 175.747 310.385L175.69 310.211C165.767 205.676 134.106 101.437 81.584 0.390262L82.3353 0C134.891 101.113 166.581 205.428 176.522 310.038C179.052 314.404 179.078 319.073 179.097 323.198C179.103 324.375 179.109 325.487 179.168 326.573C182.509 346.346 183.122 364.99 183.769 384.73C184.055 393.453 184.351 402.473 184.903 411.626L184.895 417.979C184.871 436.968 184.85 454.904 183.806 473.875L182.962 473.83Z" fill="#FCFDFE" fill-opacity="0.21"/>
<path d="M181.99 381.135C181.063 331.699 207.151 272.975 229.197 232.417C253.074 188.495 277.488 155.823 277.732 155.498L278.409 156.004C278.166 156.33 253.782 188.96 229.935 232.829C207.937 273.294 181.911 331.869 182.836 381.117L181.99 381.135Z" fill="#FCFDFE" fill-opacity="0.21"/>
<path d="M148.77 166.283C144.861 113.88 152.901 57.9775 155.543 39.6076C156.048 36.0933 156.382 33.7734 156.368 33.322L157.214 33.2944C157.231 33.799 156.971 35.6321 156.382 39.7298C153.743 58.0761 145.713 113.909 149.616 166.222L148.77 166.283Z" fill="#FCFDFE" fill-opacity="0.21"/>
<path d="M167.628 250.081C149.935 204.933 57.4366 164.904 56.5059 164.506L56.8391 163.729C57.7739 164.129 150.596 204.301 168.417 249.774L167.628 250.081Z" fill="#FCFDFE" fill-opacity="0.21"/>
<path d="M129.299 282.045C130.084 349.025 162.407 326.953 192.21 333.564C226.607 383.307 229.847 429.458 178.49 469.314L121.267 460.754C100.034 459.768 75.1202 453.284 76.5263 425.025C78.1157 393.065 85.6783 372.768 49.5868 357.072C13.4953 341.377 -2.00854 312.738 12.6079 280.161C27.9875 245.881 -8.08624 199.67 18.2774 176.702C64.2131 136.683 128.481 212.301 129.299 282.045Z" fill="url(#paint1_linear_97_1029)"/>
<path d="M143.506 401.909C119.616 375.785 98.9155 346.754 81.982 315.624C64.9025 284.225 51.8853 251.106 43.2914 217.189C38.3633 197.739 34.8828 177.924 32.9502 158.293L33.812 158.208C35.7406 177.796 39.2133 197.567 44.1314 216.976C52.7076 250.824 65.6992 283.874 82.7451 315.21C99.6451 346.279 120.304 375.253 144.147 401.324L143.506 401.909Z" fill="#FCFDFE" fill-opacity="0.2"/>
<path d="M81.9149 438.696L81.5225 437.926C92.1515 432.513 104.688 428.293 118.785 425.382C125.504 423.995 132.177 423.08 138.62 422.66L138.677 423.523C132.274 423.939 125.64 424.85 118.961 426.23C104.938 429.125 92.473 433.319 81.9149 438.696Z" fill="#FCFDFE" fill-opacity="0.2"/>
<path d="M93.1217 334.735C63.5713 306.165 0.670479 308.774 0.041412 308.808L0 307.945C0.636955 307.917 63.9046 305.282 93.7231 334.112L93.1217 334.735Z" fill="#FCFDFE" fill-opacity="0.2"/>
<path d="M56.685 260.171C47.8406 214.593 82.0173 161.922 82.3624 161.395L83.0861 161.87C82.741 162.395 48.7576 214.776 57.5349 260.007L56.685 260.171Z" fill="#FCFDFE" fill-opacity="0.2"/>
<path d="M527.195 481.751L15.6963 477.258V490.554C15.6963 494.163 17.9266 497.232 20.9497 497.778L165.586 523.959C167.302 524.27 169.043 524.351 170.774 524.205L521.636 494.354C524.768 494.088 527.195 491.009 527.195 487.302V481.751Z" fill="url(#paint2_linear_97_1029)"/>
<path d="M341.575 460.198L20.9872 484.521C15.2507 484.956 10.5869 480.33 10.5869 474.191V228.144C10.5869 222.002 15.2507 217.023 20.9872 217.023H341.575C346.302 217.023 350.122 221.523 350.122 227.076V449.498C350.122 455.05 346.302 459.84 341.575 460.198Z" fill="url(#paint3_linear_97_1029)"/>
<path d="M346.686 460.199L26.0986 484.521C20.362 484.957 15.6982 480.331 15.6982 474.191V228.144C15.6982 222.002 20.362 217.024 26.0986 217.024H346.686C351.413 217.024 355.233 221.524 355.233 227.076V449.498C355.235 455.05 351.413 459.84 346.686 460.199Z" fill="url(#paint4_linear_97_1029)"/>
<path d="M336.7 444.517L38.1064 465.644C33.4387 465.976 29.6445 462.179 29.6445 457.165V241.752C29.6445 236.738 33.4387 232.658 38.1064 232.636L336.7 231.31C340.599 231.292 343.752 234.98 343.752 239.547V435.75C343.752 440.317 340.599 444.241 336.7 444.517Z" fill="url(#paint5_linear_97_1029)"/>
<path d="M197.716 223.752C197.716 226.039 196.066 227.898 194.029 227.903C191.988 227.909 190.333 226.059 190.333 223.766C190.333 221.474 191.989 219.615 194.029 219.615C196.066 219.615 197.716 221.466 197.716 223.752Z" fill="white"/>
<path opacity="0.48" d="M269.445 392.716C244.73 378.44 225.298 396.53 206.544 378.681C195.174 367.86 200.757 359.79 186.765 343.62C171.269 325.71 161.181 331.731 145.608 315.612C125.917 295.23 135.765 279.373 118.804 264.74C98.2284 246.987 76.0375 263.419 56.4496 246.394C48.0016 239.052 43.3654 228.375 40.9458 217.021H21.7799C18.4216 217.021 15.6943 219.945 15.6943 223.55V478.598C15.6943 482.203 18.4216 484.917 21.7799 484.661L348.512 459.763C350.116 459.641 351.538 458.635 352.451 457.179C328.532 456.242 313.839 447.635 304.446 438.736C286.073 421.328 289.262 404.162 269.445 392.716Z" fill="white"/>
<path d="M359.465 459.095L15.6982 484.698L165.588 511.831C167.303 512.143 169.045 512.223 170.776 512.078L527.197 481.753L364.935 459.272C363.119 459.018 361.289 458.959 359.465 459.095Z" fill="url(#paint6_linear_97_1029)"/>
<path opacity="0.3" d="M65.8574 485.341L352.054 463.709L440.63 475.882L156.899 499.006L65.8574 485.341Z" fill="url(#paint7_linear_97_1029)"/>
<g opacity="0.75">
<path opacity="0.75" d="M90.5627 249.551L57.6836 249.665V239.03H90.5627V249.551Z" fill="white"/>
<path opacity="0.75" d="M262.84 248.95L111.448 249.478V239.03H262.84V248.95Z" fill="white"/>
<path opacity="0.75" d="M143.184 267.024L111.448 267.324V256.875L143.184 256.686V267.024Z" fill="white"/>
<path opacity="0.75" d="M309.668 265.451L163.35 266.833V256.566L309.668 255.695V265.451Z" fill="white"/>
<path opacity="0.75" d="M143.184 284.68L111.448 285.169V274.723L143.184 274.344V284.68Z" fill="white"/>
<path opacity="0.75" d="M309.668 282.114L163.35 284.371V274.104L309.668 272.36V282.114Z" fill="white"/>
<path opacity="0.75" d="M90.5627 303.462L57.6836 304.166V293.53L90.5627 292.943V303.462Z" fill="white"/>
<path opacity="0.75" d="M262.84 299.781L111.448 303.017V292.569L262.84 289.86V299.781Z" fill="white"/>
<path opacity="0.75" d="M143.184 319.995L111.448 320.863V310.414L143.184 309.657V319.995Z" fill="white"/>
<path opacity="0.75" d="M309.668 315.444L163.35 319.443V309.178L309.668 305.69V315.444Z" fill="white"/>
<path opacity="0.75" d="M143.184 337.652L111.448 338.708V328.262L143.184 327.316V337.652Z" fill="white"/>
<path opacity="0.75" d="M309.668 332.109L163.35 336.982V326.715L309.668 322.353V332.109Z" fill="white"/>
<path opacity="0.75" d="M143.184 355.31L111.448 356.556V346.107L143.184 344.972V355.31Z" fill="white"/>
<path opacity="0.75" d="M309.668 348.774L163.35 354.518V344.251L309.668 339.018V348.774Z" fill="white"/>
<path opacity="0.75" d="M194.475 370.647L163.834 372.032V361.767L194.475 360.49V370.647Z" fill="white"/>
<path opacity="0.75" d="M332.01 364.428L213.95 369.768V359.676L332.01 354.75V364.428Z" fill="white"/>
<path opacity="0.75" d="M90.5627 393.317L57.6836 394.999V384.365L90.5627 382.796V393.317Z" fill="white"/>
<path opacity="0.75" d="M262.84 384.501L111.448 392.247V381.801L262.84 374.581V384.501Z" fill="white"/>
<path opacity="0.75" d="M143.184 408.281L111.448 410.095V399.646L143.184 397.943V408.281Z" fill="white"/>
<path opacity="0.75" d="M309.668 398.769L163.35 407.128V396.861L309.668 389.013V398.769Z" fill="white"/>
<path opacity="0.75" d="M143.184 425.938L111.448 427.94V417.492L143.184 415.602V425.938Z" fill="white"/>
<path opacity="0.75" d="M309.668 415.432L163.35 424.665V414.399L309.668 405.678V415.432Z" fill="white"/>
<path opacity="0.75" d="M90.5627 447.229L57.6836 449.499V438.864L90.5627 436.709V447.229Z" fill="white"/>
<path opacity="0.75" d="M262.84 435.332L111.448 445.786V435.34L262.84 425.412V435.332Z" fill="white"/>
</g>
<path d="M468.046 334.019C449.373 370.856 423.98 374.768 416.492 375.141V375.17C416.492 375.17 416.711 375.188 416.151 375.176C415.593 375.188 415.81 375.17 415.81 375.17V375.141C409.003 374.835 391.33 372.109 374.571 350.434C371.036 345.861 367.527 340.441 364.274 334.021C342.58 291.232 358.354 269.194 358.354 269.194L415.81 269.056V269.05L416.151 269.056L416.492 269.05V269.056L440.973 269.115L474.045 269.194C474.043 269.192 489.738 291.23 468.046 334.019Z" fill="url(#paint8_linear_97_1029)"/>
<path d="M416.24 277.471C448.458 277.471 474.576 274.164 474.576 270.085C474.576 266.006 448.458 262.7 416.24 262.7C384.022 262.7 357.904 266.006 357.904 270.085C357.904 274.164 384.022 277.471 416.24 277.471Z" fill="url(#paint9_linear_97_1029)"/>
<path opacity="0.3" d="M468.047 334.019C449.374 370.856 423.981 374.768 416.493 375.141V375.17C416.493 375.17 416.712 375.188 416.152 375.176C415.594 375.188 415.811 375.17 415.811 375.17V375.141C409.003 374.835 391.33 372.109 374.572 350.434C374.669 330.473 421.003 316.911 435.479 307.657C453.793 295.955 439.059 270.089 439.059 270.089C439.767 269.752 440.457 269.429 441.149 269.117L474.133 269.196C474.133 269.192 489.739 291.23 468.047 334.019Z" fill="url(#paint10_linear_97_1029)"/>
<path d="M327.485 205.207C344.285 205.207 357.905 187.789 357.905 166.303C357.905 144.817 344.285 127.399 327.485 127.399C310.684 127.399 297.064 144.817 297.064 166.303C297.064 187.789 310.684 205.207 327.485 205.207Z" fill="url(#paint11_linear_97_1029)"/>
<path d="M519.601 175.068C519.601 223.469 471.693 262.7 412.598 262.7C403.519 262.7 394.712 261.775 386.294 260.029C339.916 250.432 305.596 216.034 305.596 175.068C305.596 126.674 353.503 87.4365 412.598 87.4365C429.201 87.4365 444.919 90.533 458.946 96.0597C494.833 110.206 519.601 140.272 519.601 175.068Z" fill="url(#paint12_linear_97_1029)"/>
<path d="M341.142 215.07L423.645 222.266C441.884 223.857 457.617 209.596 458.253 190.213L458.934 169.531C459.226 160.634 452.41 153.213 443.826 152.993L326.214 149.961C319.383 149.786 313.913 155.991 313.913 163.794V181.949C313.915 198.982 325.928 213.743 341.142 215.07Z" fill="#F4F7FA"/>
<path d="M339.163 203.242L427.441 209.736C440.478 210.696 451.618 200.396 452.05 186.632L452.338 177.498C452.616 168.672 445.876 161.279 437.396 161.019L332.154 157.804C325.254 157.593 319.717 163.792 319.707 171.621L319.697 179.728C319.682 191.95 328.305 202.444 339.163 203.242Z" fill="url(#paint13_linear_97_1029)"/>
<path d="M390.918 195.338C390.088 193.974 389.585 192.466 389.612 190.872C389.701 185.706 394.882 181.768 401.245 182.089C407.684 182.414 412.862 186.963 412.742 192.236C412.705 193.862 412.121 195.334 411.206 196.615L390.918 195.338Z" fill="#D8DEE8"/>
<path d="M336.597 191.918C335.832 190.621 335.36 189.189 335.366 187.673C335.39 182.759 340.024 178.998 345.772 179.29C351.584 179.584 356.303 183.894 356.254 188.905C356.238 190.45 355.729 191.851 354.917 193.071L336.597 191.918Z" fill="#D8DEE8"/>
<path opacity="0.3" d="M519.6 175.068C519.6 223.468 471.693 262.7 412.598 262.7C403.519 262.7 394.712 261.775 386.293 260.029C377.972 233.773 425.004 204.978 452.052 186.632C485.189 164.156 458.944 96.0596 458.944 96.0596C494.832 110.206 519.6 140.272 519.6 175.068Z" fill="url(#paint14_linear_97_1029)" fill-opacity="0.4"/>
<path d="M504.998 220.465C521.799 220.465 535.418 203.047 535.418 181.561C535.418 160.075 521.799 142.657 504.998 142.657C488.198 142.657 474.578 160.075 474.578 181.561C474.578 203.047 488.198 220.465 504.998 220.465Z" fill="url(#paint15_linear_97_1029)"/>
<path d="M209.809 406.945C217.021 402.95 214.911 380.277 205.126 364.343C191.233 341.722 160.783 330.921 154.542 337.66C148.153 344.554 166.544 370.438 169.531 374.644C180.365 389.896 201.278 411.67 209.809 406.945Z" fill="url(#paint16_linear_97_1029)"/>
<path d="M275.039 551.455C273.692 552.941 273.385 555.679 274.556 557.027C275.708 558.353 277.439 557.358 282.347 557.504C287.607 557.661 288.979 558.901 292.552 557.918C293.996 557.519 296.546 556.552 296.498 555.521C296.465 554.795 295.165 554.423 290.831 552.97C284.676 550.911 284.704 550.796 283.396 550.581C280.113 550.037 276.818 549.491 275.039 551.455Z" fill="url(#paint17_linear_97_1029)"/>
<path d="M278.409 542.883L281.046 551.652C280.847 552.123 278.165 553.692 275.864 552.696L271.947 544.185L278.409 542.883Z" fill="url(#paint18_linear_97_1029)"/>
<path d="M241.688 559.161C240.342 560.647 240.034 563.385 241.205 564.733C242.357 566.06 244.086 565.064 248.997 565.21C254.256 565.368 255.629 566.608 259.202 565.624C260.645 565.226 263.195 564.258 263.148 563.227C263.114 562.504 261.815 562.13 257.48 560.677C251.326 558.617 251.353 558.503 250.046 558.288C246.764 557.744 243.467 557.198 241.688 559.161Z" fill="url(#paint19_linear_97_1029)"/>
<path d="M245.059 550.589L247.695 559.359C247.496 559.83 244.814 561.399 242.513 560.403L238.597 551.892L245.059 550.589Z" fill="url(#paint20_linear_97_1029)"/>
<path d="M96.6954 339.126C105.063 336.276 117.851 332.965 133.601 332.967C151.334 332.969 165.575 332.971 175.41 341.348C199.275 361.679 172.564 410.377 186.248 446.441C187.746 450.39 192.109 462.912 188.314 476.42C187.614 478.909 186.175 481.067 183.714 484.718C169.259 506.155 128.652 507.911 110.052 489.326C100.221 479.503 91.3828 481.302 91.1461 470.095C90.2114 425.849 97.0779 381.72 96.6954 339.126Z" fill="url(#paint21_linear_97_1029)"/>
<path opacity="0.4" d="M106.989 392.375C103.609 383.125 107.112 372.535 99.5746 367.913C96.8118 366.22 93.3805 365.5 89.6416 365.583C90.0892 398.099 90.7301 430.585 91.5209 464.52C91.7832 475.728 93.1853 476.284 104.055 486.105C116.65 497.486 138.354 501.201 156.972 497.478C132.59 482.492 115.195 466.966 117.685 453.66C120.586 438.164 148.979 433.587 147.837 422.569C146.624 410.893 114.378 412.598 106.989 392.375Z" fill="url(#paint22_linear_97_1029)"/>
<path d="M104.449 340.125C96.2518 334.595 76.5042 348.544 65.5557 360.821C60.4679 366.527 42.7515 386.395 47.153 413.083C47.8708 417.433 51.1719 437.766 68.5886 447.727C84.1812 456.646 105.238 454.352 122.107 441.722C124.412 439.678 126.717 437.632 129.022 435.588C131.29 433.138 133.56 430.688 135.828 428.236C132.262 425.272 126.204 420.994 117.697 418.251C104.733 414.07 96.2104 420.273 93.1084 416.189C89.2906 411.161 100.912 401.795 103.962 380.482C104.787 374.733 113.605 346.305 104.449 340.125Z" fill="url(#paint23_linear_97_1029)"/>
<path d="M117.895 479.285C112.478 496.904 122.507 489.742 142.931 479.684C164.442 469.091 211.466 453.879 231.726 473.804C246.816 488.644 236.142 512.109 259.488 537.937C263.6 542.486 267.498 545.664 269.934 547.508C274.142 545.768 278.348 544.028 282.557 542.287C284.207 532.651 289.407 495.507 266.017 462.238C260.362 454.194 249.604 438.753 231.196 432.219C181.431 414.559 122.89 463.036 117.895 479.285Z" fill="url(#paint24_linear_97_1029)"/>
<path d="M98.0368 462.847C94.5306 472.966 97.6858 484.597 103.416 491.823C116.136 507.863 144.69 506.176 162.525 500.253C184.227 493.045 189.074 479.92 197.607 483.147C210.869 488.159 201.433 520.799 225.369 547.28C229.48 551.829 233.379 555.006 235.814 556.851C240.023 555.111 244.229 553.37 248.437 551.63C251.614 529.192 249.293 511.214 246.873 499.731C244.099 486.563 241.612 474.766 232.33 463.389C220.796 449.253 205.726 444.29 197.078 441.564C160.492 430.032 107.147 436.554 98.0368 462.847Z" fill="url(#paint25_linear_97_1029)"/>
<path d="M216.662 435.488L117.895 434.013L144.16 446.683L216.914 441.923L216.662 435.488Z" fill="url(#paint26_linear_97_1029)"/>
<path d="M114.41 436.637C114.41 438.485 115.568 440.135 117.303 440.766L148.863 453.132L149.007 444.558L117.897 434.013C116.149 433.513 114.41 434.821 114.41 436.637Z" fill="url(#paint27_linear_97_1029)"/>
<path d="M128.509 432.675C127.904 432.539 131.463 425.451 134.258 426.269C137.052 427.087 150.716 435.002 151.958 438.263C153.201 441.523 153.201 441.523 153.201 441.523C153.201 441.523 147.239 441.988 143.542 440.746C139.846 439.504 133.439 433.773 128.509 432.675Z" fill="url(#paint28_linear_97_1029)"/>
<path d="M151.625 384.406L144.664 447.763C144.423 449.949 147.486 453.207 149.682 453.102L251.812 446.837C253.49 446.758 254.889 445.522 255.173 443.868L267.991 382.678C268.373 380.451 264.368 378.15 262.108 378.213L155.082 381.221C153.297 381.27 151.82 382.63 151.625 384.406Z" fill="url(#paint29_linear_97_1029)"/>
<path d="M153.96 386.253L146.997 449.61C146.756 451.796 148.527 453.68 150.726 453.575L254.147 448.681C255.825 448.603 257.221 447.367 257.507 445.713L268.073 384.241C268.456 382.014 266.705 379.993 264.443 380.056L157.417 383.064C155.632 383.117 154.155 384.477 153.96 386.253Z" fill="url(#paint30_linear_97_1029)"/>
<path opacity="0.3" d="M214.689 433.838C205.659 430.012 208.846 422.717 198.181 413.627C184.113 401.635 169.775 406.835 164.754 397.539C163.19 394.644 162.445 390.14 165.166 382.849L157.416 383.066C155.63 383.115 154.153 384.477 153.957 386.253L146.994 449.61C146.756 451.796 148.526 453.68 150.723 453.576L254.145 448.681C255.823 448.603 257.219 447.367 257.505 445.713L258.962 437.23C255.825 435.484 252.074 433.897 247.7 433.01C232.53 429.935 225.085 438.241 214.689 433.838Z" fill="url(#paint31_linear_97_1029)"/>
<path d="M135.256 308.749C135.312 315.32 134.578 320.532 133.884 324.099C133.089 328.189 132.517 329.243 131.786 330.101C130.685 331.392 129.019 332.474 119.597 334.808C114.47 336.077 113.811 336.043 113.696 336.552C113.144 339.034 127.124 347.487 141.565 345.449C150.403 344.202 158.445 339.162 157.952 336.515C157.455 333.852 148.627 335.281 145.994 330.462C144.164 327.109 146.215 322.351 148.64 318.409C146.296 314.011 137.605 313.148 135.256 308.749Z" fill="url(#paint32_linear_97_1029)"/>
<path d="M153.805 317.104C156.522 314.95 157.865 310.302 156.309 306.74C154.97 303.673 151.916 302.491 150.088 301.783C144.787 299.729 137.299 300.216 133.59 304.618C131.393 307.227 132.854 314.216 133.046 315.454C133.262 316.854 134.138 317.543 134.805 318.732C135.727 320.382 137.165 322.995 139.488 327.347C140.009 326.378 140.726 325.195 141.695 323.965C142.067 323.492 143.552 321.647 145.424 320.285C149.178 317.555 151.229 319.148 153.805 317.104Z" fill="url(#paint33_linear_97_1029)"/>
<path d="M135.639 323.194C135.639 323.194 137.695 330.02 144.97 331.417C151.482 332.667 156.161 318.559 152.864 314.447C151.764 313.075 149.141 311.942 146.757 311.987C145.349 312.013 144.761 312.442 142.46 312.44C140.336 312.439 139.831 312.072 139.099 312.421C138.184 312.856 137.23 314.262 137.392 318.785C136.493 317.23 135.15 316.375 133.982 316.595C133.797 316.631 133.278 316.814 132.913 317.204C131.59 318.608 132.543 321.091 135.639 323.194Z" fill="url(#paint34_linear_97_1029)"/>
<path d="M139.034 311.487C139.283 311.796 138.039 312.703 137.544 314.315C136.581 317.443 138.796 322.075 141.981 323.248C143.864 323.941 144.698 322.915 147.981 323.409C150.013 323.715 151.594 324.395 152.572 324.891C152.673 328.623 150.825 331.837 148.088 332.839C145.14 333.917 142.221 332.036 141 331.252C140.184 330.726 137.567 329.048 136.755 326.037C135.909 322.899 137.867 321.651 136.562 319.337C135.903 318.17 134.824 317.459 134.142 315.354C133.956 314.782 133.86 314.293 133.809 313.968C135.919 312.649 138.674 311.035 139.034 311.487Z" fill="url(#paint35_linear_97_1029)"/>
<path d="M149.912 325.571C149.912 325.571 148.34 325.934 145.985 325.177C145.871 325.14 145.733 325.142 145.703 325.197C145.589 325.41 146.857 326.825 148.374 326.795C149.45 326.774 150.478 326.029 150.407 325.753C150.375 325.636 150.146 325.591 149.912 325.571Z" fill="url(#paint36_linear_97_1029)"/>
<defs>
<linearGradient id="paint0_linear_97_1029" x1="87" y1="235" x2="239.5" y2="150.5" gradientUnits="userSpaceOnUse">
<stop stop-color="#0C8B92"/>
<stop offset="0.9964" stop-color="#AA80F9"/>
</linearGradient>
<linearGradient id="paint1_linear_97_1029" x1="4.00001" y1="284" x2="67.8335" y2="180.182" gradientUnits="userSpaceOnUse">
<stop stop-color="#0C8B92"/>
<stop offset="0.9964" stop-color="#AA80F9"/>
</linearGradient>
<linearGradient id="paint2_linear_97_1029" x1="231.742" y1="501.443" x2="195.812" y2="516.541" gradientUnits="userSpaceOnUse">
<stop stop-color="#40447E"/>
<stop offset="0.9964" stop-color="#3C3B6B"/>
</linearGradient>
<linearGradient id="paint3_linear_97_1029" x1="173.274" y1="341.77" x2="136.021" y2="357.424" gradientUnits="userSpaceOnUse">
<stop stop-color="#40447E"/>
<stop offset="0.9964" stop-color="#3C3B6B"/>
</linearGradient>
<linearGradient id="paint4_linear_97_1029" x1="15.6974" y1="350.787" x2="355.234" y2="350.787" gradientUnits="userSpaceOnUse">
<stop stop-color="#40447E"/>
<stop offset="0.9964" stop-color="#3C3B6B"/>
</linearGradient>
<linearGradient id="paint5_linear_97_1029" x1="344.157" y1="230.015" x2="265.95" y2="559.662" gradientUnits="userSpaceOnUse">
<stop stop-color="#44528E"/>
<stop offset="1" stop-color="#227783"/>
</linearGradient>
<linearGradient id="paint6_linear_97_1029" x1="15.6974" y1="485.585" x2="527.196" y2="485.585" gradientUnits="userSpaceOnUse">
<stop stop-color="#40447E"/>
<stop offset="0.9964" stop-color="#3C3B6B"/>
</linearGradient>
<linearGradient id="paint7_linear_97_1029" x1="65.8578" y1="481.358" x2="440.629" y2="481.358" gradientUnits="userSpaceOnUse">
<stop stop-color="#40447E"/>
<stop offset="0.9964" stop-color="#3C3B6B"/>
</linearGradient>
<linearGradient id="paint8_linear_97_1029" x1="414.674" y1="-58.7736" x2="417.549" y2="614.211" gradientUnits="userSpaceOnUse">
<stop stop-color="#AA80F9"/>
<stop offset="0.9964" stop-color="#6165D7"/>
</linearGradient>
<linearGradient id="paint9_linear_97_1029" x1="416.014" y1="217.106" x2="416.414" y2="310.727" gradientUnits="userSpaceOnUse">
<stop stop-color="#444B8C"/>
<stop offset="0.9964" stop-color="#26264F"/>
</linearGradient>
<linearGradient id="paint10_linear_97_1029" x1="425.449" y1="-57.693" x2="428.317" y2="613.545" gradientUnits="userSpaceOnUse">
<stop stop-color="#AA80F9"/>
<stop offset="0.9964" stop-color="#6165D7"/>
</linearGradient>
<linearGradient id="paint11_linear_97_1029" x1="297.065" y1="166.304" x2="357.905" y2="166.304" gradientUnits="userSpaceOnUse">
<stop stop-color="#444B8C"/>
<stop offset="0.9964" stop-color="#26264F"/>
</linearGradient>
<linearGradient id="paint12_linear_97_1029" x1="305.595" y1="175.068" x2="519.6" y2="175.068" gradientUnits="userSpaceOnUse">
<stop stop-color="#AA80F9"/>
<stop offset="0.9964" stop-color="#6165D7"/>
</linearGradient>
<linearGradient id="paint13_linear_97_1029" x1="452.347" y1="183.799" x2="319.697" y2="183.799" gradientUnits="userSpaceOnUse">
<stop stop-color="#444B8C"/>
<stop offset="0.9964" stop-color="#26264F"/>
</linearGradient>
<linearGradient id="paint14_linear_97_1029" x1="449.758" y1="-417.355" x2="454.263" y2="637.026" gradientUnits="userSpaceOnUse">
<stop stop-color="#AA80F9"/>
<stop offset="0.9964" stop-color="#6165D7"/>
</linearGradient>
<linearGradient id="paint15_linear_97_1029" x1="474.578" y1="181.561" x2="535.417" y2="181.561" gradientUnits="userSpaceOnUse">
<stop stop-color="#444B8C"/>
<stop offset="0.9964" stop-color="#26264F"/>
</linearGradient>
<linearGradient id="paint16_linear_97_1029" x1="185.378" y1="338.326" x2="176.653" y2="491.323" gradientUnits="userSpaceOnUse">
<stop stop-color="#AA80F9"/>
<stop offset="0.9964" stop-color="#6165D7"/>
</linearGradient>
<linearGradient id="paint17_linear_97_1029" x1="295.327" y1="551.21" x2="274.278" y2="557" gradientUnits="userSpaceOnUse">
<stop stop-color="#444B8C"/>
<stop offset="0.9964" stop-color="#26264F"/>
</linearGradient>
<linearGradient id="paint18_linear_97_1029" x1="282.287" y1="554.571" x2="269.5" y2="537.718" gradientUnits="userSpaceOnUse">
<stop stop-color="#FFC444"/>
<stop offset="0.9964" stop-color="#F36F56"/>
</linearGradient>
<linearGradient id="paint19_linear_97_1029" x1="261.976" y1="558.916" x2="240.928" y2="564.706" gradientUnits="userSpaceOnUse">
<stop stop-color="#444B8C"/>
<stop offset="0.9964" stop-color="#26264F"/>
</linearGradient>
<linearGradient id="paint20_linear_97_1029" x1="248.937" y1="562.278" x2="236.15" y2="545.424" gradientUnits="userSpaceOnUse">
<stop stop-color="#FFC444"/>
<stop offset="0.9964" stop-color="#F36F56"/>
</linearGradient>
<linearGradient id="paint21_linear_97_1029" x1="147.064" y1="336.141" x2="138.338" y2="489.138" gradientUnits="userSpaceOnUse">
<stop stop-color="#AA80F9"/>
<stop offset="0.9964" stop-color="#6165D7"/>
</linearGradient>
<linearGradient id="paint22_linear_97_1029" x1="102.862" y1="457.403" x2="155.513" y2="390.702" gradientUnits="userSpaceOnUse">
<stop stop-color="#AA80F9"/>
<stop offset="0.9964" stop-color="#6165D7"/>
</linearGradient>
<linearGradient id="paint23_linear_97_1029" x1="95.8519" y1="333.22" x2="87.1266" y2="486.218" gradientUnits="userSpaceOnUse">
<stop stop-color="#AA80F9"/>
<stop offset="0.9964" stop-color="#6165D7"/>
</linearGradient>
<linearGradient id="paint24_linear_97_1029" x1="278" y1="492.5" x2="235.606" y2="507.824" gradientUnits="userSpaceOnUse">
<stop stop-color="#44528E"/>
<stop offset="1" stop-color="#227783"/>
</linearGradient>
<linearGradient id="paint25_linear_97_1029" x1="230" y1="459.5" x2="185.302" y2="535.44" gradientUnits="userSpaceOnUse">
<stop stop-color="#44528E"/>
<stop offset="1" stop-color="#227783"/>
</linearGradient>
<linearGradient id="paint26_linear_97_1029" x1="181.95" y1="476.3" x2="170.013" y2="442.461" gradientUnits="userSpaceOnUse">
<stop stop-color="#311944"/>
<stop offset="1" stop-color="#893976"/>
</linearGradient>
<linearGradient id="paint27_linear_97_1029" x1="129.756" y1="427.278" x2="134.133" y2="457.531" gradientUnits="userSpaceOnUse">
<stop stop-color="#311944"/>
<stop offset="1" stop-color="#893976"/>
</linearGradient>
<linearGradient id="paint28_linear_97_1029" x1="128.442" y1="433.905" x2="153.201" y2="433.905" gradientUnits="userSpaceOnUse">
<stop stop-color="#FFC444"/>
<stop offset="0.9964" stop-color="#F36F56"/>
</linearGradient>
<linearGradient id="paint29_linear_97_1029" x1="216.559" y1="429.927" x2="193.281" y2="396.856" gradientUnits="userSpaceOnUse">
<stop stop-color="#444B8C"/>
<stop offset="0.9964" stop-color="#26264F"/>
</linearGradient>
<linearGradient id="paint30_linear_97_1029" x1="171.878" y1="484.642" x2="222.814" y2="381.126" gradientUnits="userSpaceOnUse">
<stop stop-color="#311944"/>
<stop offset="1" stop-color="#893976"/>
</linearGradient>
<linearGradient id="paint31_linear_97_1029" x1="146.975" y1="418.215" x2="258.965" y2="418.215" gradientUnits="userSpaceOnUse">
<stop stop-color="#311944"/>
<stop offset="1" stop-color="#893976"/>
</linearGradient>
<linearGradient id="paint32_linear_97_1029" x1="124.725" y1="359.964" x2="153.161" y2="300.727" gradientUnits="userSpaceOnUse">
<stop stop-color="#FFC444"/>
<stop offset="0.9964" stop-color="#F36F56"/>
</linearGradient>
<linearGradient id="paint33_linear_97_1029" x1="122.246" y1="340.721" x2="148.979" y2="303.743" gradientUnits="userSpaceOnUse">
<stop stop-color="#311944"/>
<stop offset="1" stop-color="#6B3976"/>
</linearGradient>
<linearGradient id="paint34_linear_97_1029" x1="144.063" y1="314.698" x2="131.628" y2="375.368" gradientUnits="userSpaceOnUse">
<stop stop-color="#FFC444"/>
<stop offset="0.9964" stop-color="#F36F56"/>
</linearGradient>
<linearGradient id="paint35_linear_97_1029" x1="126.689" y1="343.958" x2="153.448" y2="306.944" gradientUnits="userSpaceOnUse">
<stop stop-color="#311944"/>
<stop offset="1" stop-color="#6B3976"/>
</linearGradient>
<linearGradient id="paint36_linear_97_1029" x1="148.922" y1="323.227" x2="146.153" y2="330.525" gradientUnits="userSpaceOnUse">
<stop stop-color="#FFC444"/>
<stop offset="1" stop-color="#F36F56"/>
</linearGradient>
</defs>
</svg>
