<svg width="500" height="500" viewBox="0 0 546 566" fill="none" xmlns="http://www.w3.org/2000/svg">
<path d="M488.944 518.95L16.8462 514.87V526.941C16.8462 530.217 18.9062 533.003 21.6948 533.5L155.189 557.27C156.774 557.553 158.381 557.627 159.979 557.494L483.814 530.392C486.705 530.151 488.944 527.355 488.944 523.99V518.95Z" fill="#BFC8D6"/>
<path d="M315.211 499.605L15.1554 521.688C9.78641 522.083 5.4209 517.886 5.4209 512.31V288.92C5.4209 283.344 9.78641 278.824 15.1554 278.824H315.213C319.637 278.824 323.213 282.91 323.213 287.952V489.893C323.211 494.93 319.635 499.279 315.211 499.605Z" fill="#BFC8D6"/>
<path d="M319.997 499.605L19.9391 521.688C14.5701 522.083 10.2046 517.886 10.2046 512.31V288.92C10.2046 283.344 14.5701 278.824 19.9391 278.824H319.995C324.419 278.824 327.995 282.91 327.995 287.952V489.893C327.995 494.93 324.419 499.279 319.997 499.605Z" fill="white"/>
<path d="M310.649 485.367L31.1783 504.549C26.8088 504.849 23.2583 501.402 23.2583 496.851V301.273C23.2583 296.722 26.8088 293.015 31.1783 292.998L310.649 291.792C314.298 291.776 317.25 295.124 317.25 299.27V477.406C317.25 481.555 314.298 485.118 310.649 485.367Z" fill="#D8DEE8"/>
<path d="M180.566 284.934C180.566 287.009 179.022 288.698 177.114 288.704C175.205 288.709 173.655 287.029 173.655 284.948C173.655 282.867 175.205 281.18 177.114 281.178C179.02 281.176 180.566 282.857 180.566 284.934Z" fill="white"/>
<path opacity="0.48" d="M19.9391 521.688L318.477 499.717L319.997 499.605C322.027 499.456 323.871 498.453 325.281 496.931C303.797 495.755 290.455 488.133 281.846 480.259C264.561 464.442 267.558 448.845 248.917 438.448C225.668 425.478 207.385 441.913 189.742 425.696C179.045 415.866 184.297 408.535 171.135 393.843C156.558 377.571 147.067 383.041 132.417 368.397C113.893 349.879 123.158 335.472 107.202 322.178C87.8451 306.05 66.97 320.977 48.5437 305.51C40.5962 298.838 36.2346 289.139 33.9586 278.824H19.9391C14.5701 278.824 10.2046 283.344 10.2046 288.92V512.31C10.2046 517.884 14.5701 522.083 19.9391 521.688Z" fill="white"/>
<path d="M334.134 498.38L16.8462 521.624L155.189 546.257C156.774 546.54 158.381 546.615 159.979 546.481L488.946 518.95L339.181 498.537C337.506 498.309 335.817 498.256 334.134 498.38Z" fill="url(#paint0_linear_97_1263)"/>
<path d="M63.1426 521.824L327.294 502.185L409.047 513.237L147.171 534.232L63.1426 521.824Z" fill="#D8DEE8"/>
<path d="M174.633 253.133L186.704 253.069C186.704 253.069 199.728 214.967 235.161 214.788L236.971 112.583C162.133 112.831 96.0828 154.646 66.0034 216.449L174.633 253.133Z" fill="url(#paint1_linear_97_1263)"/>
<path d="M319.007 298.427C312.872 332.007 282.023 358.41 244.229 359.574C234.925 359.861 224.079 354.332 224.079 354.332C224.079 354.332 214.128 354.874 212.424 354.216L153.432 444.792C180.852 457.067 211.827 463.08 244.229 461.235C338.456 455.867 412.538 385.525 420.766 300.844L319.007 298.427Z" fill="url(#paint2_linear_97_1263)"/>
<path d="M134.968 435.264L146.771 435.669L194.503 344.422C176.695 331.346 165.25 311 165.25 287.923C165.25 282.347 165.925 276.911 167.194 271.677L69.9745 235.292L58.1506 235.43C52.2945 252.456 49.1309 270.571 49.1309 289.337C49.1289 351.478 83.511 404.98 134.968 435.264Z" fill="url(#paint3_linear_97_1263)"/>
<path d="M255.786 215.23C290.202 220.309 316.664 246.756 319.808 279.442L486.212 284.222C486.212 284.187 486.212 284.152 486.212 284.118C486.212 284.118 486.212 284.065 486.212 284.014C486.212 283.891 511.297 280.015 511.297 279.999C511.289 278.869 283.978 41.9158 283.978 41.9158L258.767 46.025C258.767 46.025 256.78 158.829 255.786 215.23Z" fill="url(#paint4_linear_97_1263)"/>
<path d="M186.539 253.133C198.591 232.224 221.013 217.459 247.067 214.785L248.877 112.581C174.039 112.828 107.989 154.643 77.9097 216.446L186.539 253.133Z" fill="url(#paint5_linear_97_1263)"/>
<path d="M330.913 298.427C324.778 332.007 293.928 358.41 256.135 359.574C244.867 359.922 234.1 357.992 224.33 354.216L165.337 444.792C192.758 457.067 223.733 463.08 256.135 461.235C350.362 455.867 424.444 385.525 432.672 300.844L330.913 298.427Z" fill="url(#paint6_linear_97_1263)"/>
<path d="M146.874 435.264L206.406 344.421C188.599 331.346 177.154 311 177.154 287.923C177.154 282.347 177.829 276.911 179.098 271.676L70.0544 235.428C64.1983 252.454 61.0347 270.569 61.0347 289.335C61.0366 351.477 95.4187 404.98 146.874 435.264Z" fill="url(#paint7_linear_97_1263)"/>
<path d="M280.873 210.92C315.288 215.999 341.751 242.447 344.895 275.132L511.298 279.913C511.298 279.842 511.3 279.773 511.3 279.703C511.3 158.647 414.036 55.0482 283.856 41.7114L280.873 210.92Z" fill="url(#paint8_linear_97_1263)"/>
<path d="M288.743 409.095L271.147 408.718V382.41L288.743 383.061V409.095Z" fill="white"/>
<path d="M312.937 409.598L295.342 409.243V370.604L312.937 371.354V409.598Z" fill="white"/>
<path d="M336.396 410.108L319.535 409.747V360.689L336.396 361.545V410.108Z" fill="white"/>
<path d="M339.33 420.995L267.48 419.951V414.033L339.33 415.323V420.995Z" fill="white"/>
<path d="M214.161 180.485L211.025 180.665C210.648 177.722 209.843 174.917 208.673 172.307L211.389 170.536C212.94 169.523 213.464 167.458 212.551 165.919L212.15 165.243C211.231 163.698 209.221 163.282 207.667 164.315L204.936 166.129C203.121 163.824 200.971 161.802 198.561 160.135L200.081 157.166C200.951 155.468 200.364 153.41 198.767 152.574L198.068 152.209C196.47 151.373 194.478 152.087 193.624 153.797L192.13 156.791C189.425 155.79 186.543 155.187 183.554 155.04L183.404 151.716C183.32 149.818 181.792 148.384 179.997 148.522L179.212 148.583C177.423 148.72 176.058 150.369 176.162 152.26L176.343 155.576C173.425 156.159 170.675 157.172 168.154 158.543L166.428 155.831C165.442 154.284 163.464 153.874 162.017 154.918L161.385 155.374C159.947 156.41 159.59 158.492 160.575 160.019L162.311 162.707C160.183 164.652 158.347 166.898 156.858 169.366L154.13 167.965C152.581 167.169 150.749 167.825 150.042 169.425L149.733 170.122C149.032 171.711 149.71 173.627 151.245 174.412L153.95 175.796C153.109 178.449 152.632 181.244 152.565 184.119L149.645 184.288C147.993 184.384 146.79 185.837 146.955 187.529L147.027 188.267C147.19 189.948 148.649 191.232 150.285 191.143L153.186 190.986C153.759 193.747 154.704 196.348 155.961 198.738L153.608 200.3C152.278 201.184 151.964 203.004 152.901 204.364L153.309 204.959C154.24 206.316 156.067 206.711 157.394 205.845L159.755 204.305C161.526 206.353 163.57 208.146 165.823 209.628L164.58 212.119C163.879 213.523 164.489 215.249 165.939 215.979L166.573 216.299C168.022 217.03 169.772 216.494 170.487 215.1L171.755 212.622C174.234 213.533 176.867 214.112 179.601 214.313L179.752 217.102C179.838 218.675 181.221 219.896 182.847 219.835L183.56 219.81C185.19 219.749 186.456 218.426 186.386 216.847L186.26 214.04C188.991 213.614 191.597 212.809 194.027 211.68L195.57 214.069C196.444 215.422 198.298 215.824 199.72 214.968L200.344 214.593C201.774 213.733 202.231 211.927 201.359 210.559L199.812 208.13C201.992 206.418 203.934 204.402 205.572 202.14L208.203 203.487C209.696 204.251 211.589 203.671 212.437 202.189L212.81 201.537C213.665 200.043 213.14 198.2 211.636 197.426L208.977 196.06C210.051 193.474 210.776 190.702 211.09 187.8L214.187 187.633C215.948 187.539 217.38 186.043 217.38 184.286V183.514C217.386 181.737 215.941 180.381 214.161 180.485ZM182.544 207.046C171.072 207.551 161.153 198.779 160.232 187.123C159.279 175.078 168.222 164.346 180.386 163.516C192.717 162.673 203.04 172.335 203.282 184.719C203.514 196.692 194.166 206.534 182.544 207.046Z" fill="white"/>
<path d="M379.847 129.57C381.239 129.701 382.368 130.956 382.368 132.369V137.197C385.153 137.507 387.944 137.992 390.736 138.648C392.796 139.131 394.842 139.708 396.873 140.376C398.091 140.776 398.921 142.005 398.796 143.274L398.202 149.327C398.045 150.933 396.457 151.875 394.962 151.209C393.623 150.613 392.252 150.102 390.844 149.676C388.389 148.934 385.801 148.449 383.077 148.225L382.365 148.166V161.992C389.632 164.024 394.968 166.759 398.418 170.199C401.851 173.621 403.562 177.887 403.562 183.009C403.562 188.548 401.671 192.983 397.875 196.326C394.057 199.69 388.708 201.58 381.787 201.989V207.317C381.787 208.733 380.658 209.834 379.264 209.779L379.219 209.777C377.822 209.722 376.687 208.525 376.687 207.105V201.849L375.564 201.798C372.32 201.651 369.213 201.321 366.244 200.805C364.044 200.422 361.898 199.929 359.803 199.324C358.536 198.959 357.666 197.752 357.782 196.456L358.479 188.675C358.63 186.993 360.319 186.015 361.92 186.645C363.785 187.382 365.672 188 367.583 188.505C370.562 189.29 373.581 189.795 376.64 190.016L376.685 174.638C369.71 172.912 364.486 170.356 361.055 166.971C357.609 163.569 355.879 159.216 355.879 153.923C355.879 148.445 357.754 144.218 361.491 141.25C365.209 138.297 370.495 136.828 377.314 136.832V131.896C377.318 130.481 378.453 129.438 379.847 129.57ZM377.318 148.025C375.161 148.182 373.48 148.773 372.277 149.802C371.071 150.831 370.468 152.215 370.468 153.952C370.468 155.597 371.026 156.972 372.141 158.077C373.255 159.179 374.981 160.06 377.318 160.718V148.025ZM381.789 175.873V189.975C384.132 189.979 385.931 189.42 387.184 188.298C388.437 187.179 389.061 185.597 389.061 183.551C389.061 181.686 388.48 180.139 387.315 178.91C386.151 177.677 384.311 176.666 381.789 175.873Z" fill="white"/>
<path d="M379.723 224.643C349.404 224.643 324.737 199.982 324.737 169.671C324.737 139.359 349.404 114.698 379.723 114.698C410.042 114.698 434.71 139.359 434.71 169.671C434.71 199.982 410.042 224.643 379.723 224.643ZM379.723 119.096C351.83 119.096 329.136 141.784 329.136 169.671C329.136 197.558 351.83 220.246 379.723 220.246C407.617 220.246 430.311 197.558 430.311 169.671C430.311 141.784 407.617 119.096 379.723 119.096Z" fill="white"/>
<path d="M131.651 366.699C110.436 366.699 91.5972 349.585 91.5972 327.502C91.5972 304.174 112.323 287.778 135.458 291.771C156.367 295.38 170.408 314.483 168.594 333.816C166.861 352.279 150.99 366.699 131.651 366.699ZM135.292 295.04C114.173 291.555 95.3323 306.561 95.24 327.8C95.1516 348.001 112.282 363.829 131.788 363.953C149.698 364.065 164.44 350.732 165.992 333.604C167.614 315.728 154.541 298.217 135.292 295.04Z" fill="white"/>
<path d="M146.617 322.511C146.158 329.469 140.211 334.607 133.124 334.077C125.799 333.529 119.88 327.158 120.133 319.744C120.391 312.198 126.91 306.832 134.451 307.851C141.739 308.834 147.084 315.435 146.617 322.511Z" fill="white"/>
<path d="M159.991 364.272C158.021 352.496 147.403 342.226 132.938 341.386C117.445 340.489 103.418 350.612 99.4019 363.913L159.991 364.272Z" fill="white"/>
<path d="M41.0079 393.495C47.0642 396.402 53.1422 399.053 59.2221 401.452C51.0095 383.036 44.798 364.092 40.5818 344.948C25.7257 362.459 12.1284 381.538 0 402.006C6.42553 398.815 12.8295 395.59 19.2157 392.33C20.0778 428.53 37.748 460.634 60.9227 482.767C84.2211 505.249 113.024 517.757 138.852 522.824C192.334 533.061 228.992 514.223 228.705 514.686C186.733 521.098 149.827 512.485 121.989 499.215C93.8967 485.776 74.8715 467.683 62.7903 451.31C38.9714 417.451 41.2337 393.208 41.0079 393.495Z" fill="#A67FF7"/>
<path d="M504.746 142.54C498.682 139.652 492.596 137.019 486.506 134.639C494.774 153.03 501.046 171.954 505.321 191.085C520.124 173.529 533.663 154.408 545.728 133.901C539.312 137.111 532.918 140.356 526.542 143.635C525.57 107.439 507.8 75.3882 484.558 53.3264C461.189 30.9172 432.349 18.4952 406.505 13.5104C352.992 3.43858 316.393 22.3885 316.677 21.9252C358.63 15.3854 395.561 23.8846 423.441 37.0682C451.572 50.4207 470.654 68.4558 482.785 84.7906C506.71 118.577 504.522 142.826 504.746 142.54Z" fill="url(#paint9_linear_97_1263)"/>
<path d="M506.473 219.833C506.473 219.833 500.853 217.898 499.219 215.999C497.585 214.099 499.837 208.643 497.381 201.804C495.596 196.835 501.524 204.565 502.086 206.294C502.648 208.024 502.923 212.661 507.233 215.787L506.473 219.833Z" fill="url(#paint10_linear_97_1263)"/>
<path d="M509.529 213.604C507.359 215.667 505.191 217.731 503.021 219.794C509.458 226.817 516.844 237.168 514.694 247.552C511.445 263.241 489.475 264.293 485.036 280.117C480.541 296.15 496.136 319.874 509.289 319.861C526.056 319.843 548.384 281.252 538.868 249.01C532.815 228.494 515.872 217.344 509.529 213.604Z" fill="url(#paint11_linear_97_1263)"/>
<path d="M478.003 245.078C475.969 241.072 475.13 241.096 474.631 238.981C473.492 234.163 476.432 228.046 478.924 227.961C480.531 227.906 480.664 230.404 484.066 234.297C488.233 239.066 490.762 238.44 493.213 242.578C493.786 243.546 496.369 247.905 494.78 251.156C492.753 255.306 484.767 255.964 481.426 252.762C479.843 251.244 480.509 250.011 478.003 245.078Z" fill="url(#paint12_linear_97_1263)"/>
<path d="M483.991 249.399C483.991 249.399 482.566 257.011 483.581 263.199C484.498 268.792 494.863 274.604 496.85 276.269C498.836 277.936 491.581 279.744 484.926 278.872C478.271 278.002 460.049 272.171 457.28 268.922C454.511 265.673 460.504 267.275 465.545 266.658C470.586 266.044 475.398 257.598 475.545 253.286C475.688 248.979 483.991 249.399 483.991 249.399Z" fill="url(#paint13_linear_97_1263)"/>
<path d="M481.821 255.081C481.821 255.081 476.727 257.317 472.214 253.71C468.175 250.481 474.182 240.556 478.292 240.431C479.663 240.387 481.664 241.371 482.846 242.808C483.543 243.656 483.587 244.222 484.753 245.586C485.829 246.845 486.303 246.959 486.468 247.569C486.672 248.333 486.32 249.611 483.553 251.808C484.932 251.555 486.12 251.918 486.581 252.721C486.654 252.849 486.807 253.249 486.762 253.663C486.595 255.157 484.637 255.85 481.821 255.081Z" fill="url(#paint14_linear_97_1263)"/>
<path d="M333.365 233.353C333.365 233.353 330.309 233.964 329.276 228.083C328.467 223.474 327.416 222.195 326.656 223.328C325.896 224.461 326.631 227.031 326.631 227.031C326.631 227.031 321.758 225.138 318.748 221.481C315.737 217.823 315.977 221.705 316.378 223.917C316.778 226.132 321.592 231.761 323.451 232.473C325.311 233.188 329.278 237.81 329.278 237.81L333.365 233.353Z" fill="url(#paint15_linear_97_1263)"/>
<path d="M432.808 559.658C434.397 562.895 433.951 564.287 433.555 564.898C432.396 566.694 429.607 564.998 422.324 565.86C421.469 565.962 419.84 566.182 417.805 565.703C416.063 565.293 414.009 564.366 414.095 563.899C414.127 563.728 414.437 563.661 414.555 563.636C416.576 563.206 429.226 559.324 429.226 559.324L432.808 559.658Z" fill="url(#paint16_linear_97_1263)"/>
<path d="M435.55 553.181L433.406 558.888C433.078 559.764 432.271 560.372 431.338 560.443C430.392 560.514 429.361 560.243 429.225 558.78C429.038 556.782 430.105 551.722 430.105 551.722L435.55 553.181Z" fill="url(#paint17_linear_97_1263)"/>
<path d="M520.494 543.644L523.546 551.976L527.982 551.269L526.953 543.553L520.494 543.644Z" fill="url(#paint18_linear_97_1263)"/>
<path d="M524.927 556.566C527.073 554.019 528.992 554.249 529.378 552.5C529.683 551.123 528.84 549.437 527.57 548.797C525.783 547.896 523.619 549.303 523.13 549.62C519.809 551.777 520.712 555.154 517.582 556.617C516.952 556.911 515.954 557.223 514.899 558.209C514.452 558.627 513.346 559.666 513.605 560.38C513.906 561.207 515.879 561.177 517.757 561.15C520.009 561.117 521.134 561.103 522.218 560.426C523.719 559.489 523.271 558.531 524.927 556.566Z" fill="url(#paint19_linear_97_1263)"/>
<path d="M513.511 369.672C516.099 386.325 516.635 400.887 516.309 412.914C515.96 425.852 514.819 428.285 515.577 437.049C517.228 456.117 523.76 457.691 528.758 478.671C534.274 501.837 531.464 521.568 530.321 529.107C529.321 535.698 528.002 541.115 526.955 544.9C525.152 547.164 521.741 547.046 518.155 546.977C512.989 525.995 507.737 506.323 502.569 485.341C492.604 454.179 482.64 423.019 472.676 391.857C486.289 384.462 499.9 377.068 513.511 369.672Z" fill="url(#paint20_linear_97_1263)"/>
<path opacity="0.3" d="M518.155 546.977C512.989 525.995 507.737 506.323 502.569 485.341C492.604 454.179 482.64 423.019 472.676 391.857C486.287 384.462 499.898 377.068 513.509 369.672C513.68 370.775 513.819 371.843 513.974 372.929C496.895 394.294 495.481 408.997 497.429 418.492C499.792 430.007 507.166 434.577 509.006 451.566C510.322 463.711 507.105 466.483 509.092 477.297C511.649 491.221 519.064 497.955 523.454 505.467C527.693 512.727 530.718 523.559 528.157 540.223C527.741 541.973 527.33 543.543 526.957 544.898C525.154 547.162 521.743 547.046 518.155 546.977Z" fill="url(#paint21_linear_97_1263)"/>
<path d="M489.798 389.924C489.47 397.912 488.14 410 482.948 423.508C475.987 441.616 468.357 445.955 465.197 461.088C461.898 476.891 467.941 483.077 468.249 497.627C468.536 511.255 463.762 530.738 440.14 555.036C436.31 554.689 432.483 554.341 428.653 553.992C431.725 542.214 435.803 523.847 437.856 500.865C438.883 489.352 439.022 480.939 439.095 477.79C439.533 458.687 442.251 426.202 452.382 367.595C464.854 375.036 477.326 382.479 489.798 389.924Z" fill="url(#paint22_linear_97_1263)"/>
<path d="M326.328 235.607C328.765 234.215 331.2 232.823 333.637 231.431C360.61 257.937 384.115 265.247 400.648 266.996C425.619 269.639 443.06 259.486 476.368 266.401C486.86 268.579 505.147 272.637 515.288 287.58C517.953 291.508 518.902 294.481 523.328 322.66C528.986 358.679 529.188 364.966 528.389 372.721C526.93 386.914 526.044 395.515 519.499 403.129C502.117 423.345 465.172 412.922 460.542 411.549C451.985 409.015 438.687 405.076 433.402 393.773C429.484 385.392 433.691 380.458 435.001 364.141C435.66 355.923 437.726 330.223 425.519 314.942C416.749 303.961 404.554 303.298 392.618 299.566C373.73 293.66 349.389 278.16 326.328 235.607Z" fill="url(#paint23_linear_97_1263)"/>
<g opacity="0.3">
<path opacity="0.3" d="M503.877 393.501C493.722 384.342 487.724 387.153 481.537 379.881C467.23 363.069 488.518 335.4 475.965 322.13C465.915 311.507 446.717 323.373 435.745 310.78C428.469 302.428 435.022 295.036 428.561 286.396C418.336 272.721 395.401 282.516 365.396 273.939C358.332 271.918 352.076 269.215 346.612 266.292C363.089 286.353 379.225 295.378 392.618 299.566C404.554 303.298 416.749 303.96 425.519 314.943C437.724 330.225 435.66 355.923 435.001 364.141C433.691 380.456 429.484 385.392 433.402 393.774C438.687 405.078 451.985 409.017 460.542 411.55C464.776 412.804 496.004 421.606 514.615 407.668C512.091 402.734 508.649 397.804 503.877 393.501Z" fill="url(#paint24_linear_97_1263)"/>
</g>
<path d="M267.779 93.3722L70.801 93.3329L67.6668 93.2563C62.3861 93.1248 58.0913 89.3945 58.0913 84.922V7.60074C58.0913 3.12831 62.3861 -0.266265 67.6668 0.0164527L70.6537 0.175481L263.07 13.1609C267.718 13.4102 272.08 14.331 272.08 18.5089V82.4247L267.779 93.3722Z" fill="url(#paint25_linear_97_1263)"/>
<path opacity="0.67" d="M241.486 36.813L92.4302 30.1789V20.967L241.486 28.0271V36.813Z" fill="url(#paint26_linear_97_1263)"/>
<path opacity="0.67" d="M241.486 54.3845L92.4302 48.6045V39.3926L241.486 45.5986V54.3845Z" fill="url(#paint27_linear_97_1263)"/>
<path opacity="0.67" d="M241.486 71.9581L92.4302 67.0302V57.8184L241.486 63.1723V71.9581Z" fill="url(#paint28_linear_97_1263)"/>
<path d="M296.128 98.7929L72.1438 93.2563C66.8632 93.1248 62.5684 89.3945 62.5684 84.922V7.60075C62.5684 3.12831 66.8632 -0.266265 72.1438 0.0164527L268.152 10.4966C272.8 10.746 276.557 14.333 276.557 18.5109V82.4267L296.128 98.7929Z" fill="#9F7CF4"/>
<path opacity="0.67" d="M245.961 36.813L96.9072 30.1789V20.967L245.961 28.0271V36.813Z" fill="white"/>
<path opacity="0.67" d="M245.961 54.3845L96.9072 48.6045V39.3926L245.961 45.5986V54.3845Z" fill="white"/>
<path opacity="0.67" d="M245.961 71.9581L96.9072 67.0302V57.8184L245.961 63.1723V71.9581Z" fill="white"/>
<defs>
<linearGradient id="paint0_linear_97_1263" x1="16.8463" y1="522.431" x2="488.945" y2="522.431" gradientUnits="userSpaceOnUse">
<stop offset="0.494" stop-color="#EBEFF2"/>
<stop offset="1" stop-color="white"/>
</linearGradient>
<linearGradient id="paint1_linear_97_1263" x1="143.977" y1="96.6454" x2="180.791" y2="429.516" gradientUnits="userSpaceOnUse">
<stop stop-color="#311944"/>
<stop offset="1" stop-color="#893976"/>
</linearGradient>
<linearGradient id="paint2_linear_97_1263" x1="280.471" y1="359.432" x2="424.139" y2="649.684" gradientUnits="userSpaceOnUse">
<stop stop-color="#311944"/>
<stop offset="1" stop-color="#893976"/>
</linearGradient>
<linearGradient id="paint3_linear_97_1263" x1="52.5765" y1="237.3" x2="263.636" y2="508.728" gradientUnits="userSpaceOnUse">
<stop stop-color="#311944"/>
<stop offset="1" stop-color="#893976"/>
</linearGradient>
<linearGradient id="paint4_linear_97_1263" x1="466.46" y1="49.4896" x2="326.319" y2="244.963" gradientUnits="userSpaceOnUse">
<stop stop-color="#311944"/>
<stop offset="1" stop-color="#893976"/>
</linearGradient>
<linearGradient id="paint5_linear_97_1263" x1="51.5" y1="234" x2="115.786" y2="58.7996" gradientUnits="userSpaceOnUse">
<stop stop-color="#0C8B92"/>
<stop offset="0.9964" stop-color="#AA80F9"/>
</linearGradient>
<linearGradient id="paint6_linear_97_1263" x1="124" y1="451" x2="193.997" y2="273.53" gradientUnits="userSpaceOnUse">
<stop stop-color="#0C8B92"/>
<stop offset="0.9964" stop-color="#AA80F9"/>
</linearGradient>
<linearGradient id="paint7_linear_97_1263" x1="64.5252" y1="237.354" x2="268.071" y2="499.12" gradientUnits="userSpaceOnUse">
<stop stop-color="#AA80F9"/>
<stop offset="0.9964" stop-color="#6165D7"/>
</linearGradient>
<linearGradient id="paint8_linear_97_1263" x1="459.5" y1="270" x2="286.5" y2="58" gradientUnits="userSpaceOnUse">
<stop stop-color="#0FB7C0"/>
<stop offset="0.9964" stop-color="#C582E7"/>
</linearGradient>
<linearGradient id="paint9_linear_97_1263" x1="348.504" y1="135.408" x2="599.987" y2="19.0437" gradientUnits="userSpaceOnUse">
<stop stop-color="#AA80F9"/>
<stop offset="0.9964" stop-color="#6165D7"/>
</linearGradient>
<linearGradient id="paint10_linear_97_1263" x1="520.953" y1="251.729" x2="500.732" y2="210.908" gradientUnits="userSpaceOnUse">
<stop offset="0.003597" stop-color="#F36F56"/>
<stop offset="1" stop-color="#FFC444"/>
</linearGradient>
<linearGradient id="paint11_linear_97_1263" x1="528" y1="240.5" x2="502.999" y2="285.999" gradientUnits="userSpaceOnUse">
<stop stop-color="#AA80F9"/>
<stop offset="0.9964" stop-color="#6165D7"/>
</linearGradient>
<linearGradient id="paint12_linear_97_1263" x1="485.032" y1="249.514" x2="484.165" y2="220.058" gradientUnits="userSpaceOnUse">
<stop stop-color="#AB316D"/>
<stop offset="1" stop-color="#792D3D"/>
</linearGradient>
<linearGradient id="paint13_linear_97_1263" x1="478.654" y1="205.813" x2="476.343" y2="292.359" gradientUnits="userSpaceOnUse">
<stop offset="0.003597" stop-color="#F36F56"/>
<stop offset="1" stop-color="#FFC444"/>
</linearGradient>
<linearGradient id="paint14_linear_97_1263" x1="501.219" y1="235.697" x2="472.634" y2="253.239" gradientUnits="userSpaceOnUse">
<stop offset="0.003597" stop-color="#F36F56"/>
<stop offset="1" stop-color="#FFC444"/>
</linearGradient>
<linearGradient id="paint15_linear_97_1263" x1="340.281" y1="253.165" x2="326.016" y2="230.196" gradientUnits="userSpaceOnUse">
<stop offset="0.003597" stop-color="#F36F56"/>
<stop offset="1" stop-color="#FFC444"/>
</linearGradient>
<linearGradient id="paint16_linear_97_1263" x1="418.035" y1="584.647" x2="432.833" y2="533.3" gradientUnits="userSpaceOnUse">
<stop stop-color="#444B8C"/>
<stop offset="0.9964" stop-color="#26264F"/>
</linearGradient>
<linearGradient id="paint17_linear_97_1263" x1="428.631" y1="574.179" x2="444.195" y2="493.516" gradientUnits="userSpaceOnUse">
<stop stop-color="#FFC444"/>
<stop offset="0.9964" stop-color="#F36F56"/>
</linearGradient>
<linearGradient id="paint18_linear_97_1263" x1="524.444" y1="562.443" x2="523.311" y2="480.296" gradientUnits="userSpaceOnUse">
<stop stop-color="#FFC444"/>
<stop offset="0.9964" stop-color="#F36F56"/>
</linearGradient>
<linearGradient id="paint19_linear_97_1263" x1="518.775" y1="565.627" x2="533.573" y2="514.28" gradientUnits="userSpaceOnUse">
<stop stop-color="#444B8C"/>
<stop offset="0.9964" stop-color="#26264F"/>
</linearGradient>
<linearGradient id="paint20_linear_97_1263" x1="495.931" y1="391.383" x2="539.788" y2="555.551" gradientUnits="userSpaceOnUse">
<stop stop-color="#311944"/>
<stop offset="1" stop-color="#893976"/>
</linearGradient>
<linearGradient id="paint21_linear_97_1263" x1="495.931" y1="391.383" x2="539.788" y2="555.551" gradientUnits="userSpaceOnUse">
<stop stop-color="#AA80F9"/>
<stop offset="0.9964" stop-color="#6165D7"/>
</linearGradient>
<linearGradient id="paint22_linear_97_1263" x1="356.74" y1="466.621" x2="524.036" y2="456.699" gradientUnits="userSpaceOnUse">
<stop stop-color="#311944"/>
<stop offset="1" stop-color="#893976"/>
</linearGradient>
<linearGradient id="paint23_linear_97_1263" x1="510" y1="277.5" x2="427.997" y2="301.991" gradientUnits="userSpaceOnUse">
<stop stop-color="#AA80F9"/>
<stop offset="0.9964" stop-color="#6165D7"/>
</linearGradient>
<linearGradient id="paint24_linear_97_1263" x1="400.333" y1="277.343" x2="496.362" y2="423.508" gradientUnits="userSpaceOnUse">
<stop stop-color="#AA80F9"/>
<stop offset="0.9964" stop-color="#6165D7"/>
</linearGradient>
<linearGradient id="paint25_linear_97_1263" x1="142.538" y1="138.297" x2="152.571" y2="96.5866" gradientUnits="userSpaceOnUse">
<stop stop-color="#311944"/>
<stop offset="1" stop-color="#893976"/>
</linearGradient>
<linearGradient id="paint26_linear_97_1263" x1="140.614" y1="138.354" x2="150.842" y2="95.8334" gradientUnits="userSpaceOnUse">
<stop stop-color="#311944"/>
<stop offset="1" stop-color="#893976"/>
</linearGradient>
<linearGradient id="paint27_linear_97_1263" x1="144.708" y1="139.339" x2="154.936" y2="96.8184" gradientUnits="userSpaceOnUse">
<stop stop-color="#311944"/>
<stop offset="1" stop-color="#893976"/>
</linearGradient>
<linearGradient id="paint28_linear_97_1263" x1="148.803" y1="140.324" x2="159.031" y2="97.8035" gradientUnits="userSpaceOnUse">
<stop stop-color="#311944"/>
<stop offset="1" stop-color="#893976"/>
</linearGradient>
</defs>
</svg>
