<svg xmlns="http://www.w3.org/2000/svg" xmlns:xlink="http://www.w3.org/1999/xlink" width="100" height="100" x="0" y="0" viewBox="0 0 64 64" style="enable-background:new 0 0 512 512" xml:space="preserve" class=""><g transform="matrix(1,0,0,1,0,0)"><linearGradient xmlns="http://www.w3.org/2000/svg" id="New_Gradient_Swatch_1" gradientUnits="userSpaceOnUse" x1="32" x2="32" y1="-.816" y2="64.982"><stop stop-opacity="1" stop-color="#1998ff" offset="0"></stop><stop stop-opacity="1" stop-color="#1998ff" offset="0.014"></stop><stop stop-opacity="1" stop-color="#1998ff" offset="0.02702702702702703"></stop><stop stop-opacity="1" stop-color="#1998ff" offset="0.042"></stop><stop stop-opacity="1" stop-color="#1998ff" offset="0.07"></stop><stop stop-opacity="1" stop-color="#1998ff" offset="0.1"></stop><stop stop-opacity="1" stop-color="#3a42ce" offset="0.4"></stop><stop stop-opacity="1" stop-color="#3a42ce" offset="0.8"></stop><stop stop-opacity="1" stop-color="#3a42ce" offset="1"></stop></linearGradient><linearGradient xmlns="http://www.w3.org/2000/svg" xmlns:xlink="http://www.w3.org/1999/xlink" id="New_Gradient_Swatch_1-3" x1="4" x2="4" xlink:href="#New_Gradient_Swatch_1" y1="-.816" y2="64.982"></linearGradient><linearGradient xmlns="http://www.w3.org/2000/svg" xmlns:xlink="http://www.w3.org/1999/xlink" id="New_Gradient_Swatch_1-4" x1="15" x2="15" xlink:href="#New_Gradient_Swatch_1" y1="-.816" y2="64.982"></linearGradient><linearGradient xmlns="http://www.w3.org/2000/svg" xmlns:xlink="http://www.w3.org/1999/xlink" id="New_Gradient_Swatch_1-5" x1="60" x2="60" xlink:href="#New_Gradient_Swatch_1" y1="-.816" y2="64.982"></linearGradient><linearGradient xmlns="http://www.w3.org/2000/svg" xmlns:xlink="http://www.w3.org/1999/xlink" id="New_Gradient_Swatch_1-6" x1="49" x2="49" xlink:href="#New_Gradient_Swatch_1" y1="-.816" y2="64.982"></linearGradient><g xmlns="http://www.w3.org/2000/svg" id="Vector-3" data-name="Vector"><path d="m39.368 44.346 5.551-12.952a1 1 0 0 0 -.087-.949l-12-18a1.039 1.039 0 0 0 -1.664 0l-12 18a1 1 0 0 0 -.087.949l5.551 12.952a2.979 2.979 0 0 0 .368 5.47v11.184a1 1 0 0 0 1 1h12a1 1 0 0 0 1-1v-11.184a2.979 2.979 0 0 0 .368-5.47zm-7.368-16.346a3 3 0 1 1 -3 3 3 3 0 0 1 3-3zm-1-11.7v9.8a5 5 0 1 0 2 0v-9.8l9.868 14.8-5.527 12.9h-10.682l-5.527-12.9zm-4 43.7v-10h10v10zm11-12h-12a1 1 0 0 1 0-2h12a1 1 0 0 1 0 2z" fill="url(#New_Gradient_Swatch_1)" data-original="url(#New_Gradient_Swatch_1)" style=""></path><path d="m59.979 30.178a26.692 26.692 0 0 0 -17.22-24.178h13.425a3 3 0 1 0 0-2h-48.368a3 3 0 1 0 0 2h13.425a26.692 26.692 0 0 0 -17.22 24.178 3 3 0 1 0 2 .013c.431-13.629 11.679-24.191 25.979-24.191s25.548 10.562 25.979 24.191a3 3 0 1 0 2-.013zm-.979-26.178a1 1 0 1 1 -1 1 1 1 0 0 1 1-1zm-54 2a1 1 0 1 1 1-1 1 1 0 0 1 -1 1zm0 28a1 1 0 1 1 1-1 1 1 0 0 1 -1 1zm54 0a1 1 0 1 1 1-1 1 1 0 0 1 -1 1z" fill="url(#New_Gradient_Swatch_1)" data-original="url(#New_Gradient_Swatch_1)" style=""></path><path d="m2 60h4v2h-4z" fill="url(#New_Gradient_Swatch_1-3)" data-original="url(#New_Gradient_Swatch_1-3)" style=""></path><path d="m8 60h14v2h-14z" fill="url(#New_Gradient_Swatch_1-4)" data-original="url(#New_Gradient_Swatch_1-4)" style=""></path><path d="m58 60h4v2h-4z" fill="url(#New_Gradient_Swatch_1-5)" data-original="url(#New_Gradient_Swatch_1-5)" style=""></path><path d="m42 60h14v2h-14z" fill="url(#New_Gradient_Swatch_1-6)" data-original="url(#New_Gradient_Swatch_1-6)" style=""></path></g></g></svg>