<svg xmlns="http://www.w3.org/2000/svg" xmlns:xlink="http://www.w3.org/1999/xlink" width="100" height="100" x="0" y="0" viewBox="0 0 64 64" style="enable-background:new 0 0 512 512" xml:space="preserve" class=""><g><linearGradient xmlns="http://www.w3.org/2000/svg" id="New_Gradient_Swatch_1" gradientUnits="userSpaceOnUse" x1="32" x2="32" y1=".088" y2="67.655"><stop stop-opacity="1" stop-color="#1998ff" offset="0"></stop><stop stop-opacity="1" stop-color="#1998ff" offset="0.014"></stop><stop stop-opacity="1" stop-color="#1998ff" offset="0.042"></stop><stop stop-opacity="1" stop-color="#1998ff" offset="0.07"></stop><stop stop-opacity="1" stop-color="#1998ff" offset="0.1"></stop><stop stop-opacity="1" stop-color="#3a42ce" offset="0.4"></stop><stop stop-opacity="1" stop-color="#3a42ce" offset="0.8"></stop><stop stop-opacity="1" stop-color="#3a42ce" offset="1"></stop></linearGradient><linearGradient xmlns="http://www.w3.org/2000/svg" xmlns:xlink="http://www.w3.org/1999/xlink" id="New_Gradient_Swatch_1-4" x1="15" x2="15" xlink:href="#New_Gradient_Swatch_1" y1=".088" y2="67.655"></linearGradient><linearGradient xmlns="http://www.w3.org/2000/svg" xmlns:xlink="http://www.w3.org/1999/xlink" id="New_Gradient_Swatch_1-6" x1="49" x2="49" xlink:href="#New_Gradient_Swatch_1" y1=".088" y2="67.655"></linearGradient><linearGradient xmlns="http://www.w3.org/2000/svg" xmlns:xlink="http://www.w3.org/1999/xlink" id="New_Gradient_Swatch_1-8" x1="26" x2="26" xlink:href="#New_Gradient_Swatch_1" y1=".088" y2="67.655"></linearGradient><linearGradient xmlns="http://www.w3.org/2000/svg" xmlns:xlink="http://www.w3.org/1999/xlink" id="New_Gradient_Swatch_1-10" x1="38" x2="38" xlink:href="#New_Gradient_Swatch_1" y1=".088" y2="67.655"></linearGradient><g xmlns="http://www.w3.org/2000/svg" fill="url(#New_Gradient_Swatch_1)"><path d="m59 2h-54a3 3 0 0 0 -3 3v42a3 3 0 0 0 3 3h21.719l-1.5 6h-1.219a3 3 0 0 0 -3 3v2a1 1 0 0 0 1 1h20a1 1 0 0 0 1-1v-2a3 3 0 0 0 -3-3h-1.219l-1.5-6h21.719a3 3 0 0 0 3-3v-42a3 3 0 0 0 -3-3zm-54 2h54a1 1 0 0 1 1 1v35h-56v-35a1 1 0 0 1 1-1zm36 55v1h-18v-1a1 1 0 0 1 1-1h16a1 1 0 0 1 1 1zm-4.281-3h-9.438l1.5-6h6.438zm22.281-8h-54a1 1 0 0 1 -1-1v-5h56v5a1 1 0 0 1 -1 1z" fill=""></path><path d="m31 12h2v2h-2z" fill=""></path><path d="m24 22h5v2a1.006 1.006 0 0 0 .168.555l2 3a1 1 0 0 0 1.664 0l2-3a1.006 1.006 0 0 0 .168-.555v-2h5a1 1 0 0 0 .9-1.447l-3.9-7.789v-1.764a3.014 3.014 0 0 0 -1.2-2.4l-3.2-2.4a1 1 0 0 0 -1.2 0l-3.2 2.4a3.016 3.016 0 0 0 -1.2 2.4v1.764l-3.895 7.789a1 1 0 0 0 .895 1.447zm9 1.7-1 1.5-1-1.5v-1.7h2zm5.382-3.7h-1.382v-2.764zm-9.382-9a1 1 0 0 1 .4-.8l2.6-1.95 2.6 1.95a1 1 0 0 1 .4.8v9h-2v-3h-2v3h-2zm-2 6.236v2.764h-1.382z" fill=""></path></g><path xmlns="http://www.w3.org/2000/svg" d="m14 22h2v2h-2z" fill="url(#New_Gradient_Swatch_1-4)" data-original="url(#New_Gradient_Swatch_1-4)" style=""></path><path xmlns="http://www.w3.org/2000/svg" d="m7 32h5v2a1.006 1.006 0 0 0 .168.555l2 3a1 1 0 0 0 1.664 0l2-3a1.006 1.006 0 0 0 .168-.555v-2h5a1 1 0 0 0 .895-1.447l-3.895-7.789v-1.764a3.014 3.014 0 0 0 -1.2-2.4l-3.2-2.4a1 1 0 0 0 -1.2 0l-3.2 2.4a3.016 3.016 0 0 0 -1.2 2.4v1.764l-3.895 7.789a1 1 0 0 0 .895 1.447zm9 1.7-1 1.5-1-1.5v-1.7h2zm5.382-3.7h-1.382v-2.764zm-9.382-9a1 1 0 0 1 .4-.8l2.6-1.95 2.6 1.95a1 1 0 0 1 .4.8v9h-2v-3h-2v3h-2zm-2 6.236v2.764h-1.382z" fill="url(#New_Gradient_Swatch_1-4)" data-original="url(#New_Gradient_Swatch_1-4)" style=""></path><path xmlns="http://www.w3.org/2000/svg" d="m48 22h2v2h-2z" fill="url(#New_Gradient_Swatch_1-6)" data-original="url(#New_Gradient_Swatch_1-6)" style=""></path><path xmlns="http://www.w3.org/2000/svg" d="m40.1 30.553a1 1 0 0 0 .9 1.447h5v2a1.006 1.006 0 0 0 .168.555l2 3a1 1 0 0 0 1.664 0l2-3a1.006 1.006 0 0 0 .168-.555v-2h5a1 1 0 0 0 .9-1.447l-3.9-7.789v-1.764a3.014 3.014 0 0 0 -1.2-2.4l-3.2-2.4a1 1 0 0 0 -1.2 0l-3.2 2.4a3.016 3.016 0 0 0 -1.2 2.4v1.764zm3.9-3.317v2.764h-1.382zm6 6.464-1 1.5-1-1.5v-1.7h2zm5.382-3.7h-1.382v-2.764zm-9.382-9a1 1 0 0 1 .4-.8l2.6-1.95 2.6 1.95a1 1 0 0 1 .4.8v9h-2v-3h-2v3h-2z" fill="url(#New_Gradient_Swatch_1-6)" data-original="url(#New_Gradient_Swatch_1-6)" style=""></path><path xmlns="http://www.w3.org/2000/svg" d="m25 23h2v2h-2z" fill="url(#New_Gradient_Swatch_1-8)" data-original="url(#New_Gradient_Swatch_1-8)" style=""></path><path xmlns="http://www.w3.org/2000/svg" d="m25 27h2v2h-2z" fill="url(#New_Gradient_Swatch_1-8)" data-original="url(#New_Gradient_Swatch_1-8)" style=""></path><path xmlns="http://www.w3.org/2000/svg" d="m37 23h2v2h-2z" fill="url(#New_Gradient_Swatch_1-10)" data-original="url(#New_Gradient_Swatch_1-10)" style=""></path><path xmlns="http://www.w3.org/2000/svg" d="m37 27h2v2h-2z" fill="url(#New_Gradient_Swatch_1-10)" data-original="url(#New_Gradient_Swatch_1-10)" style=""></path></g></svg>