<svg xmlns="http://www.w3.org/2000/svg" xmlns:xlink="http://www.w3.org/1999/xlink" width="100" height="100" x="0" y="0" viewBox="0 0 64 64" style="enable-background:new 0 0 512 512" xml:space="preserve" class=""><g><linearGradient xmlns="http://www.w3.org/2000/svg" id="New_Gradient_Swatch_1" gradientUnits="userSpaceOnUse" x1="32" x2="32" y1="-.289" y2="65.178"><stop stop-opacity="1" stop-color="#1998ff" offset="0"></stop><stop stop-opacity="1" stop-color="#1998ff" offset="0.014"></stop><stop stop-opacity="1" stop-color="#1998ff" offset="0.042"></stop><stop stop-opacity="1" stop-color="#1998ff" offset="0.07"></stop><stop stop-opacity="1" stop-color="#1998ff" offset="0.1"></stop><stop stop-opacity="1" stop-color="#3a42ce" offset="0.4"></stop><stop stop-opacity="1" stop-color="#3a42ce" offset="0.8"></stop><stop stop-opacity="1" stop-color="#3a42ce" offset="1"></stop></linearGradient><linearGradient xmlns="http://www.w3.org/2000/svg" xmlns:xlink="http://www.w3.org/1999/xlink" id="New_Gradient_Swatch_1-2" x1="17" x2="17" xlink:href="#New_Gradient_Swatch_1" y1="-.289" y2="65.178"></linearGradient><linearGradient xmlns="http://www.w3.org/2000/svg" xmlns:xlink="http://www.w3.org/1999/xlink" id="New_Gradient_Swatch_1-3" x1="21" x2="21" xlink:href="#New_Gradient_Swatch_1" y1="-.289" y2="65.178"></linearGradient><linearGradient xmlns="http://www.w3.org/2000/svg" xmlns:xlink="http://www.w3.org/1999/xlink" id="New_Gradient_Swatch_1-4" x1="25" x2="25" xlink:href="#New_Gradient_Swatch_1" y1="-.289" y2="65.178"></linearGradient><linearGradient xmlns="http://www.w3.org/2000/svg" xmlns:xlink="http://www.w3.org/1999/xlink" id="New_Gradient_Swatch_1-5" x1="57" x2="57" xlink:href="#New_Gradient_Swatch_1" y1="-.289" y2="65.178"></linearGradient><linearGradient xmlns="http://www.w3.org/2000/svg" xmlns:xlink="http://www.w3.org/1999/xlink" id="New_Gradient_Swatch_1-6" x1="29.854" x2="29.854" xlink:href="#New_Gradient_Swatch_1" y1="-.289" y2="65.178"></linearGradient><linearGradient xmlns="http://www.w3.org/2000/svg" xmlns:xlink="http://www.w3.org/1999/xlink" id="New_Gradient_Swatch_1-7" x1="44.146" x2="44.146" xlink:href="#New_Gradient_Swatch_1" y1="-.289" y2="65.178"></linearGradient><linearGradient xmlns="http://www.w3.org/2000/svg" xmlns:xlink="http://www.w3.org/1999/xlink" id="New_Gradient_Swatch_1-8" gradientTransform="matrix(.243 .97 -.97 .243 69.742 -3.324)" x1="37" x2="37" xlink:href="#New_Gradient_Swatch_1" y1="-.289" y2="65.178"></linearGradient><linearGradient xmlns="http://www.w3.org/2000/svg" xmlns:xlink="http://www.w3.org/1999/xlink" id="New_Gradient_Swatch_1-9" x1="37" x2="37" xlink:href="#New_Gradient_Swatch_1" y1="-.289" y2="65.178"></linearGradient><linearGradient xmlns="http://www.w3.org/2000/svg" xmlns:xlink="http://www.w3.org/1999/xlink" id="New_Gradient_Swatch_1-10" gradientTransform="matrix(.707 .707 -.707 .707 31.343 -9.468)" x1="27.101" x2="27.101" xlink:href="#New_Gradient_Swatch_1" y1="-.289" y2="65.178"></linearGradient><linearGradient xmlns="http://www.w3.org/2000/svg" xmlns:xlink="http://www.w3.org/1999/xlink" id="New_Gradient_Swatch_1-11" x1="23" x2="23" xlink:href="#New_Gradient_Swatch_1" y1="-.289" y2="65.178"></linearGradient><linearGradient xmlns="http://www.w3.org/2000/svg" xmlns:xlink="http://www.w3.org/1999/xlink" id="New_Gradient_Swatch_1-12" gradientTransform="matrix(.707 .707 -.707 .707 45.343 -3.669)" x1="27.101" x2="27.101" xlink:href="#New_Gradient_Swatch_1" y1="-.289" y2="65.178"></linearGradient><linearGradient xmlns="http://www.w3.org/2000/svg" xmlns:xlink="http://www.w3.org/1999/xlink" id="New_Gradient_Swatch_1-14" gradientTransform="matrix(.707 .707 -.707 .707 51.142 -17.669)" x1="46.899" x2="46.899" xlink:href="#New_Gradient_Swatch_1" y1="-.289" y2="65.178"></linearGradient><linearGradient xmlns="http://www.w3.org/2000/svg" xmlns:xlink="http://www.w3.org/1999/xlink" id="New_Gradient_Swatch_1-15" x1="51" x2="51" xlink:href="#New_Gradient_Swatch_1" y1="-.289" y2="65.178"></linearGradient><linearGradient xmlns="http://www.w3.org/2000/svg" xmlns:xlink="http://www.w3.org/1999/xlink" id="New_Gradient_Swatch_1-16" gradientTransform="matrix(.707 .707 -.707 .707 37.142 -23.468)" x1="46.899" x2="46.899" xlink:href="#New_Gradient_Swatch_1" y1="-.289" y2="65.178"></linearGradient><g xmlns="http://www.w3.org/2000/svg" id="Develop"><path d="m61 12h-11v-9a1 1 0 0 0 -1-1h-38a1 1 0 0 0 -.707.293l-8 8a1 1 0 0 0 -.293.707v50a1 1 0 0 0 1 1h58a1 1 0 0 0 1-1v-48a1 1 0 0 0 -1-1zm-1 8h-46v-6h46zm-50-14.586v4.586h-4.586zm-6 6.586h7a1 1 0 0 0 1-1v-7h36v8h-35a1 1 0 0 0 -1 1v47h-8zm30.883 48-.45-3.6a1 1 0 0 0 -.739-.843 12.923 12.923 0 0 1 -3.238-1.34 1 1 0 0 0 -1.119.073l-2.86 2.226-3-2.995 2.226-2.86a1 1 0 0 0 .074-1.119 12.9 12.9 0 0 1 -1.34-3.239 1 1 0 0 0 -.842-.738l-3.6-.45v-4.232l3.6-.45a1 1 0 0 0 .842-.738 12.9 12.9 0 0 1 1.34-3.239 1 1 0 0 0 -.074-1.119l-2.226-2.86 3-2.995 2.86 2.226a1 1 0 0 0 1.119.073 12.923 12.923 0 0 1 3.238-1.34 1 1 0 0 0 .739-.843l.45-3.6h4.234l.45 3.6a1 1 0 0 0 .739.843 12.923 12.923 0 0 1 3.238 1.34 1 1 0 0 0 1.119-.073l2.86-2.226 3 2.995-2.226 2.86a1 1 0 0 0 -.074 1.119 12.9 12.9 0 0 1 1.34 3.239 1 1 0 0 0 .842.738l3.6.45v4.234l-3.6.45a1 1 0 0 0 -.842.738 12.9 12.9 0 0 1 -1.34 3.239 1 1 0 0 0 .074 1.119l2.226 2.86-3 2.995-2.86-2.226a1 1 0 0 0 -1.119-.073 12.923 12.923 0 0 1 -3.238 1.34 1 1 0 0 0 -.739.843l-.45 3.6zm6.25 0 .337-2.695a14.912 14.912 0 0 0 2.486-1.029l3.036 2.363a1 1 0 0 0 1.321-.083l4.244-4.243a1 1 0 0 0 .082-1.321l-2.363-3.036a14.941 14.941 0 0 0 1.029-2.486l3.819-.478a1 1 0 0 0 .876-.992v-6a1 1 0 0 0 -.876-.992l-3.819-.478a14.941 14.941 0 0 0 -1.029-2.486l2.363-3.036a1 1 0 0 0 -.082-1.321l-4.244-4.243a1 1 0 0 0 -1.321-.083l-3.036 2.363a14.912 14.912 0 0 0 -2.486-1.024l-.478-3.819a1 1 0 0 0 -.992-.881h-6a1 1 0 0 0 -.992.876l-.478 3.824a14.912 14.912 0 0 0 -2.486 1.029l-3.036-2.363a1 1 0 0 0 -1.321.083l-4.244 4.243a1 1 0 0 0 -.082 1.321l2.363 3.036a14.941 14.941 0 0 0 -1.024 2.481l-3.819.478a1 1 0 0 0 -.881.992v6a1 1 0 0 0 .876.992l3.819.478a14.941 14.941 0 0 0 1.029 2.486l-2.363 3.036a1 1 0 0 0 .082 1.321l4.244 4.243a1 1 0 0 0 1.321.083l3.036-2.363a14.912 14.912 0 0 0 2.486 1.029l.337 2.7h-18.867v-38.005h46v38z" fill="url(#New_Gradient_Swatch_1)" data-original="url(#New_Gradient_Swatch_1)" style=""></path><path d="m16 16h2v2h-2z" fill="url(#New_Gradient_Swatch_1-2)" data-original="url(#New_Gradient_Swatch_1-2)" style=""></path><path d="m20 16h2v2h-2z" fill="url(#New_Gradient_Swatch_1-3)" data-original="url(#New_Gradient_Swatch_1-3)" style=""></path><path d="m24 16h2v2h-2z" fill="url(#New_Gradient_Swatch_1-4)" data-original="url(#New_Gradient_Swatch_1-4)" style=""></path><path d="m56 16h2v2h-2z" fill="url(#New_Gradient_Swatch_1-5)" data-original="url(#New_Gradient_Swatch_1-5)" style=""></path><path d="m32.293 36.293-6 6a1 1 0 0 0 0 1.414l6 6 1.414-1.414-5.293-5.293 5.293-5.293z" fill="url(#New_Gradient_Swatch_1-6)" data-original="url(#New_Gradient_Swatch_1-6)" style=""></path><path d="m41.707 49.707 6-6a1 1 0 0 0 0-1.414l-6-6-1.414 1.414 5.293 5.293-5.293 5.293z" fill="url(#New_Gradient_Swatch_1-7)" data-original="url(#New_Gradient_Swatch_1-7)" style=""></path><path d="m28.754 42h16.492v1.999h-16.492z" fill="url(#New_Gradient_Swatch_1-8)" transform="matrix(.243 -.97 .97 .243 -13.69 68.466)" data-original="url(#New_Gradient_Swatch_1-8)" style=""></path><path d="m36 28h2v2h-2z" fill="url(#New_Gradient_Swatch_1-9)" data-original="url(#New_Gradient_Swatch_1-9)" style=""></path><path d="m26.101 32.101h2v2h-2z" fill="url(#New_Gradient_Swatch_1-10)" transform="matrix(.707 -.707 .707 .707 -15.468 28.858)" data-original="url(#New_Gradient_Swatch_1-10)" style=""></path><path d="m22 42h2v2h-2z" fill="url(#New_Gradient_Swatch_1-11)" data-original="url(#New_Gradient_Swatch_1-11)" style=""></path><path d="m26.101 51.9h2v2h-2z" fill="url(#New_Gradient_Swatch_1-12)" transform="matrix(.707 -.707 .707 .707 -29.468 34.657)" data-original="url(#New_Gradient_Swatch_1-12)" style=""></path><path d="m36 56h2v2h-2z" fill="url(#New_Gradient_Swatch_1-9)" data-original="url(#New_Gradient_Swatch_1-9)" style=""></path><path d="m45.9 51.9h2v2h-2z" fill="url(#New_Gradient_Swatch_1-14)" transform="matrix(.707 -.707 .707 .707 -23.669 48.657)" data-original="url(#New_Gradient_Swatch_1-14)" style=""></path><path d="m50 42h2v2h-2z" fill="url(#New_Gradient_Swatch_1-15)" data-original="url(#New_Gradient_Swatch_1-15)" style=""></path><path d="m45.9 32.101h2v2h-2z" fill="url(#New_Gradient_Swatch_1-16)" transform="matrix(.707 -.707 .707 .707 -9.669 42.858)" data-original="url(#New_Gradient_Swatch_1-16)" style=""></path></g></g></svg>