<svg xmlns="http://www.w3.org/2000/svg" xmlns:xlink="http://www.w3.org/1999/xlink" width="100" height="100" x="0" y="0" viewBox="0 0 64 64" style="enable-background:new 0 0 512 512" xml:space="preserve" class=""><g transform="matrix(1,0,0,1,-5,0)"><linearGradient xmlns="http://www.w3.org/2000/svg" id="New_Gradient_Swatch_1" gradientUnits="userSpaceOnUse" x1="32" x2="32" y1="-.629" y2="61.724"><stop stop-opacity="1" stop-color="#1998ff" offset="0"></stop><stop stop-opacity="1" stop-color="#1998ff" offset="0.014"></stop><stop stop-opacity="1" stop-color="#1998ff" offset="0.042"></stop><stop stop-opacity="1" stop-color="#1998ff" offset="0.07"></stop><stop stop-opacity="1" stop-color="#1998ff" offset="0.1"></stop><stop stop-opacity="1" stop-color="#3a42ce" offset="0.4"></stop><stop stop-opacity="1" stop-color="#3a42ce" offset="0.8"></stop><stop stop-opacity="1" stop-color="#3a42ce" offset="1"></stop></linearGradient><linearGradient xmlns="http://www.w3.org/2000/svg" xmlns:xlink="http://www.w3.org/1999/xlink" id="New_Gradient_Swatch_1-2" gradientTransform="matrix(.707 .707 -.707 .707 12.201 -7.983)" x1="15.737" x2="15.737" xlink:href="#New_Gradient_Swatch_1" y1="-.629" y2="61.724"></linearGradient><linearGradient xmlns="http://www.w3.org/2000/svg" xmlns:xlink="http://www.w3.org/1999/xlink" id="New_Gradient_Swatch_1-3" x1="9" x2="9" xlink:href="#New_Gradient_Swatch_1" y1="-.629" y2="61.724"></linearGradient><linearGradient xmlns="http://www.w3.org/2000/svg" xmlns:xlink="http://www.w3.org/1999/xlink" id="New_Gradient_Swatch_1-4" gradientTransform="matrix(.707 .707 -.707 .707 35.201 1.544)" x1="15.737" x2="15.737" xlink:href="#New_Gradient_Swatch_1" y1="-.629" y2="61.724"></linearGradient><linearGradient xmlns="http://www.w3.org/2000/svg" xmlns:xlink="http://www.w3.org/1999/xlink" id="New_Gradient_Swatch_1-5" gradientTransform="matrix(.707 .707 -.707 .707 44.728 -21.456)" x1="48.263" x2="48.263" xlink:href="#New_Gradient_Swatch_1" y1="-.629" y2="61.724"></linearGradient><linearGradient xmlns="http://www.w3.org/2000/svg" xmlns:xlink="http://www.w3.org/1999/xlink" id="New_Gradient_Swatch_1-6" x1="55" x2="55" xlink:href="#New_Gradient_Swatch_1" y1="-.629" y2="61.724"></linearGradient><linearGradient xmlns="http://www.w3.org/2000/svg" xmlns:xlink="http://www.w3.org/1999/xlink" id="New_Gradient_Swatch_1-7" gradientTransform="matrix(.707 .707 -.707 .707 21.728 -30.983)" x1="48.263" x2="48.263" xlink:href="#New_Gradient_Swatch_1" y1="-.629" y2="61.724"></linearGradient><linearGradient xmlns="http://www.w3.org/2000/svg" xmlns:xlink="http://www.w3.org/1999/xlink" id="New_Gradient_Swatch_1-8" x1="43.238" x2="43.238" xlink:href="#New_Gradient_Swatch_1" y1="-.629" y2="61.724"></linearGradient><linearGradient xmlns="http://www.w3.org/2000/svg" xmlns:xlink="http://www.w3.org/1999/xlink" id="New_Gradient_Swatch_1-9" x1="37.083" x2="37.083" xlink:href="#New_Gradient_Swatch_1" y1="-.629" y2="61.724"></linearGradient><g xmlns="http://www.w3.org/2000/svg" id="Light_Bulb" data-name="Light Bulb"><path d="m31 2h2v4h-2z" fill="url(#New_Gradient_Swatch_1)" data-original="url(#New_Gradient_Swatch_1)" style=""></path><path d="m14.737 8.736h2v4h-2z" fill="url(#New_Gradient_Swatch_1-2)" transform="matrix(.707 -.707 .707 .707 -2.983 14.272)" data-original="url(#New_Gradient_Swatch_1-2)" style=""></path><path d="m7 26h4v2h-4z" fill="url(#New_Gradient_Swatch_1-3)" data-original="url(#New_Gradient_Swatch_1-3)" style=""></path><path d="m13.736 42.264h4v2h-4z" fill="url(#New_Gradient_Swatch_1-4)" transform="matrix(.707 -.707 .707 .707 -25.983 23.799)" data-original="url(#New_Gradient_Swatch_1-4)" style=""></path><path d="m47.264 41.263h2v4h-2z" fill="url(#New_Gradient_Swatch_1-5)" transform="matrix(.707 -.707 .707 .707 -16.456 46.799)" data-original="url(#New_Gradient_Swatch_1-5)" style=""></path><path d="m53 26h4v2h-4z" fill="url(#New_Gradient_Swatch_1-6)" data-original="url(#New_Gradient_Swatch_1-6)" style=""></path><path d="m46.263 9.737h4v2h-4z" fill="url(#New_Gradient_Swatch_1-7)" transform="matrix(.707 -.707 .707 .707 6.544 37.272)" data-original="url(#New_Gradient_Swatch_1-7)" style=""></path><path d="m40.628 14.729-1.151 1.634a13.029 13.029 0 0 1 5.523 10.637h2a15.027 15.027 0 0 0 -6.372-12.271z" fill="url(#New_Gradient_Swatch_1-8)" data-original="url(#New_Gradient_Swatch_1-8)" style=""></path><path d="m35.716 14.539a12.966 12.966 0 0 1 1.873.72l.862-1.8a14.838 14.838 0 0 0 -2.164-.833z" fill="url(#New_Gradient_Swatch_1-9)" data-original="url(#New_Gradient_Swatch_1-9)" style=""></path><path d="m32 8a19.021 19.021 0 0 0 -19 19 19.572 19.572 0 0 0 9.608 16.917 2.908 2.908 0 0 1 1.392 2.533v8.55a7.008 7.008 0 0 0 7 7h2a7.008 7.008 0 0 0 7-7v-8.55a2.908 2.908 0 0 1 1.392-2.533 19.572 19.572 0 0 0 9.608-16.917 19.021 19.021 0 0 0 -19-19zm1 52h-2a5.009 5.009 0 0 1 -4.9-4h11.8a5.009 5.009 0 0 1 -4.9 4zm7.387-17.812a4.876 4.876 0 0 0 -2.358 3.812h-3.029v2h3v2h-3v2h3v2h-12v-2.02h7v-2h-7v-1.98h7v-2h-7.029a4.876 4.876 0 0 0 -2.358-3.812 17.564 17.564 0 0 1 -8.613-15.188 17 17 0 0 1 34 0 17.564 17.564 0 0 1 -8.613 15.188z" fill="url(#New_Gradient_Swatch_1)" data-original="url(#New_Gradient_Swatch_1)" style=""></path></g></g></svg>