<svg width="32" height="32" viewBox="0 0 32 32" fill="none" xmlns="http://www.w3.org/2000/svg">
<path d="M1.64697 4.44458C11.2508 4.44458 20.7487 4.44458 30.3044 4.44458C30.1985 4.56981 30.1407 4.64687 30.0636 4.72393C25.7385 9.07793 21.4037 13.4319 17.0786 17.7763C16.8089 18.046 16.5392 18.2772 16.1346 18.3157C15.6337 18.3543 15.2581 18.152 14.9209 17.8052C12.9558 15.8209 10.9907 13.8461 9.01603 11.8618C6.66564 9.50177 4.31525 7.14175 1.96485 4.78173C1.87816 4.6854 1.79146 4.5987 1.64697 4.44458Z" fill="#F2F2F2"/>
<path d="M1.7627 26.8696C4.89334 23.7582 8.00472 20.6565 11.1835 17.4873C11.7519 18.0845 12.3395 18.7299 12.9752 19.3464C13.3509 19.7125 13.7651 20.0689 14.2082 20.329C15.5375 21.1092 17.1944 20.9551 18.3503 19.934C19.1306 19.2405 19.8626 18.4891 20.614 17.757C20.7007 17.6703 20.7874 17.5933 20.8452 17.5355C23.9662 20.6468 27.0776 23.7486 30.2082 26.8696C20.7296 26.8696 11.2606 26.8696 1.7627 26.8696Z" fill="#F2F2F2"/>
<path d="M32.0002 6.52533C32.0002 12.6903 32.0002 18.8649 32.0002 24.9528C28.9177 21.9281 25.7967 18.8745 22.7046 15.8498C25.8352 12.7096 28.9081 9.61744 32.0002 6.52533Z" fill="#F2F2F2"/>
<path d="M0 24.9432C0 18.8456 0 12.6807 0 6.52533C3.08248 9.61744 6.15533 12.7096 9.23781 15.8113C6.19386 18.8264 3.08248 21.8992 0 24.9432Z" fill="#F2F2F2"/>
</svg>
