<svg width="32" height="32" viewBox="0 0 32 32" fill="none" xmlns="http://www.w3.org/2000/svg">
<path d="M4.88339 0C5.88339 0 6.88339 0 7.88339 0C9.01672 0.00833333 9.74172 0.7 9.76672 1.83333C9.80838 3.94167 10.1084 6.00833 10.75 8.01667C11 8.79167 10.8334 9.45833 10.25 10.0333C9.05838 11.2167 7.87505 12.4167 6.68339 13.5917C6.50006 13.775 6.45839 13.9083 6.59172 14.1583C9.21672 19.0583 12.975 22.8167 17.8834 25.4333C18.1334 25.5667 18.25 25.475 18.4084 25.3167C19.575 24.1417 20.7584 22.9833 21.9084 21.8C22.5334 21.1583 23.2334 20.9917 24.0667 21.2583C26.0083 21.8917 28.0083 22.175 30.0417 22.225C31.3417 22.25 32 22.9417 32 24.2333C32 26.175 32 28.125 32 30.0667C32 31.275 31.2583 32 30.0417 32C16.0834 31.9417 3.89173 22.2083 0.766736 8.60833C0.266737 6.425 0.00840438 4.2 7.10685e-05 1.95833C-0.00826225 0.741667 0.716736 0.00833333 1.92507 0C2.91673 0 3.90006 0 4.88339 0Z" fill="#F2F2F2"/>
</svg>
