<svg width="43" height="42" viewBox="0 0 43 42" fill="none" xmlns="http://www.w3.org/2000/svg">
<path d="M21.517 5.72611e-06C33.1046 0.00847176 42.5085 9.4227 42.5 21.0212C42.4915 32.6111 33.0707 42.0169 21.4831 42C9.87005 41.9915 0.474658 32.5519 0.500051 20.9365C0.525444 9.3719 9.94623 -0.0084603 21.517 5.72611e-06ZM21.2207 27.6501C22.9136 28.903 24.5726 30.1221 26.2316 31.3412C27.3235 32.1455 28.0937 31.8661 28.373 30.5539C29.5242 25.178 30.6669 19.802 31.8011 14.4261C31.8603 14.1552 31.8688 13.8589 31.8434 13.588C31.7672 12.8684 31.2594 12.5213 30.5653 12.6821C30.4045 12.7244 30.2437 12.7837 30.0828 12.843C25.3005 14.6801 20.5182 16.5257 15.7358 18.3713C13.789 19.1248 11.8422 19.8698 9.90391 20.6402C9.51455 20.7926 9.05748 20.9958 9.0744 21.4953C9.08287 22.0201 9.59073 22.1217 9.98009 22.2487C11.5206 22.7398 13.0696 23.2054 14.6101 23.7049C14.9402 23.8149 15.1856 23.7641 15.4734 23.5779C17.2425 22.4434 19.0284 21.3344 20.8059 20.2169C22.8543 18.9216 24.9111 17.6347 26.9595 16.3394C27.2304 16.1701 27.5012 15.9754 27.9414 16.1871C27.7975 16.3564 27.6874 16.5088 27.552 16.6358C24.708 19.2094 21.8809 21.8085 18.9946 24.3398C18.292 24.9579 17.7842 25.5674 17.9112 26.541C17.9196 26.6087 17.8942 26.6849 17.8942 26.7527C17.8096 28.0141 17.7249 29.2755 17.6318 30.5624C18.0635 30.6216 18.3344 30.4184 18.5968 30.1729C19.4601 29.3433 20.3235 28.5136 21.2207 27.6501Z" fill="#F2F2F2"/>
</svg>
