<svg width="42" height="42" viewBox="0 0 42 42" fill="none" xmlns="http://www.w3.org/2000/svg">
<path d="M21 0C9.40435 0 0 9.40435 0 21C0 32.5957 9.40435 42 21 42C32.5957 42 42 32.5957 42 21C42 9.40435 32.5957 0 21 0ZM20.2878 12.7643C18.2426 13.0565 16.4896 13.9513 15.1565 15.5583C12.5452 18.7174 12.8009 23.9583 15.6313 26.9165C18.3522 29.7652 24.3417 30.8243 28.56 26.3139C30.0939 27.9209 31.5913 29.473 33.0887 31.0617C28.1035 36.9235 18.3887 37.7087 12.1983 32.7235C5.58783 27.3913 4.85739 16.8365 10.6643 10.573C15.9965 4.83913 26.7887 4.05391 33.107 10.9017C31.5548 12.4174 30.0026 13.933 28.3774 15.5035C26.2409 13.3304 23.5017 12.2896 20.2878 12.7643ZM26.4783 21.0548C26.4235 23.8122 24.2322 25.9487 21.4383 25.9304C18.7174 25.9122 16.5261 23.7026 16.5443 20.9817C16.5626 18.2243 18.7904 15.9783 21.5113 15.9965C24.2687 16.0148 26.533 18.2974 26.4783 21.0548Z" fill="#F2F2F2"/>
</svg>
