<svg width="42" height="42" viewBox="0 0 42 42" fill="none" xmlns="http://www.w3.org/2000/svg">
<path fill-rule="evenodd" clip-rule="evenodd" d="M21 42C9.40202 42 0 32.598 0 21C0 9.40202 9.40202 0 21 0C32.598 0 42 9.40202 42 21C42 32.598 32.598 42 21 42ZM21.6922 32.6835C28.5771 32.6806 34.1766 27.0797 34.1794 20.1963C34.1807 16.8598 32.883 13.7225 30.5254 11.3622C28.1678 9.00188 25.0326 7.70144 21.6921 7.7C14.8092 7.7 9.20743 13.3015 9.20469 20.1865C9.20376 22.3873 9.77877 24.5355 10.8715 26.4292L9.1 32.9L15.7197 31.1635C17.5436 32.1584 19.5971 32.6827 21.687 32.6835H21.6922Z" fill="#F2F2F2"/>
</svg>
