<svg width="42" height="42" viewBox="0 0 42 42" fill="none" xmlns="http://www.w3.org/2000/svg">
<path d="M41.9999 21.0725C42.0101 32.3838 32.7662 42.0307 20.9339 41.9999C9.64594 41.9897 0.134912 32.8461 0.0013874 21.2163C-0.132137 9.56595 9.38916 -0.12212 21.2215 0.00116379C32.6224 0.114174 42.041 9.38102 41.9999 21.0725ZM23.3168 17.528C23.327 16.5623 23.3373 15.5863 23.3168 14.6206C23.3065 13.7679 22.947 13.3158 22.1253 13.1617C20.3998 12.8227 18.6537 12.8843 16.9179 13.1206C16.4351 13.1823 15.9524 13.4699 15.5518 13.7679C15.1102 14.0864 15.1718 14.2816 15.6956 14.4151C16.4968 14.6103 16.9076 15.1446 17.0206 15.9048C17.2568 17.4664 17.2568 19.028 16.9795 20.5793C16.9076 20.9903 16.8768 21.504 16.353 21.6375C15.8291 21.7711 15.4799 21.4012 15.2129 21.0519C14.689 20.3739 14.1652 19.6958 13.7544 18.9458C13.0046 17.5589 12.337 16.1206 11.6385 14.6925C11.392 14.1788 11.0428 13.7473 10.4574 13.7473C8.85507 13.7371 7.25278 13.7679 5.66076 13.8295C4.93151 13.8603 4.71582 14.2918 4.98287 14.9596C5.22937 15.576 5.49642 16.1822 5.78401 16.7781C7.49928 20.4047 9.44052 23.8977 12.1315 26.8874C14.6171 29.6612 17.719 31.1612 21.5501 30.853C22.9265 30.74 23.214 30.7297 23.3168 29.0551C23.3578 28.3565 23.4811 27.6682 23.9638 27.1134C24.3233 26.7024 24.6623 26.6305 25.1142 26.949C25.4531 27.1853 25.7715 27.473 26.0591 27.7709C26.7268 28.449 27.3533 29.1784 28.0415 29.8359C28.6269 30.401 29.3253 30.8735 30.1676 30.8735C31.8212 30.8838 33.4646 30.8324 35.1182 30.7811C36.0632 30.7503 36.5151 30.0927 36.1248 29.2298C35.868 28.6647 35.5291 28.0997 35.1182 27.6476C34.0192 26.4353 32.8586 25.2847 31.7288 24.1135C31.1125 23.4765 31.0201 22.9731 31.5234 22.2539C32.3759 21.0211 33.3311 19.8499 34.163 18.5965C34.882 17.528 35.5496 16.4185 36.1248 15.2678C36.5973 14.3124 36.1659 13.7371 35.0977 13.7473C33.403 13.7679 31.698 13.8398 30.0032 13.809C29.274 13.7987 28.9145 14.1069 28.6475 14.7131C28.288 15.5247 27.9387 16.3466 27.5279 17.1274C26.7678 18.576 25.9667 20.004 24.7855 21.1649C24.5698 21.3807 24.1487 21.617 23.9433 21.5348C23.6762 21.432 23.5222 21.0314 23.3578 20.7334C23.2859 20.5999 23.3168 20.4149 23.3168 20.2608C23.3065 19.3465 23.3168 18.4424 23.3168 17.528Z" fill="#F2F2F2"/>
</svg>
